<svg xmlns="http://www.w3.org/2000/svg" xmlns:xlink="http://www.w3.org/1999/xlink" viewBox="0 0 6300 251"><defs><style>.cls-1,.cls-4{fill:none;}.cls-2,.cls-3{fill:#fdcca3;}.cls-10,.cls-11,.cls-12,.cls-13,.cls-14,.cls-2,.cls-3,.cls-4,.cls-5,.cls-6,.cls-8,.cls-9{stroke:#000;stroke-miterlimit:10;}.cls-12,.cls-2{stroke-width:3px;}.cls-10,.cls-13,.cls-3,.cls-4,.cls-5,.cls-6{stroke-width:2px;}.cls-5,.cls-8{fill:#213e4d;}.cls-16,.cls-6,.cls-9{fill:#fff;}.cls-10,.cls-12,.cls-7{fill:#7b4926;}.cls-11,.cls-15{fill:#00e1ff;}.cls-11{stroke-width:0.25px;}.cls-13{fill:#5e0404;}.cls-14{fill:#3a0304;}.cls-17{fill:#ffbe8d;}</style><symbol id="_01" data-name="01" viewBox="0 0 300 250"><g id="background"><rect class="cls-1" width="300" height="250"/></g><ellipse class="cls-2" cx="149.2" cy="104.46" rx="71.73" ry="77.54"/><circle class="cls-5" cx="114.5" cy="123.5" r="11.5"/><ellipse class="cls-6" cx="115" cy="124.5" rx="11" ry="10.5"/><circle class="cls-5" cx="117" cy="124" r="6"/><circle class="cls-5" cx="181.5" cy="123.5" r="11.5"/><ellipse class="cls-6" cx="181" cy="124.5" rx="11" ry="10.5"/><circle class="cls-5" cx="179" cy="124" r="6"/><path class="cls-3" d="M142,130h14a7,7,0,0,1-14,0Z"/><rect class="cls-10" x="176" y="102" width="15" height="7" rx="3.5" ry="3.5"/><rect class="cls-10" x="104" y="101" width="15" height="7" rx="3.5" ry="3.5"/><path class="cls-4" d="M128.5,155.5s22,18,42,0"/><ellipse class="cls-17" cx="103.5" cy="143.5" rx="5.5" ry="6.5"/><ellipse class="cls-17" cx="193" cy="143" rx="5.5" ry="6.5"/><g id="hår"><path class="cls-12" d="M5,171s28,32,45-7V89s6-38,46-40c0,0,50-53,105,0,0,0,43,0,45,40l1,73s14,41,46,10c0,0,4,52-44,53,0,0-54,8-47-70,0,0,12-18,11-49,0,0-32-36-33-54,0,0-46,67-87,59l-9,2s1,24,11,41c0,0,15,72-47,71C48,225,3,228,5,171Z"/></g></symbol><symbol id="_21" data-name="21" viewBox="0 0 300 250.5"><g id="background_copy_20" data-name="background copy 20"><rect class="cls-1" width="300" height="250"/></g><ellipse class="cls-2" cx="149.2" cy="104.46" rx="71.73" ry="77.54"/><path class="cls-3" d="M142,130h14a7,7,0,0,1-14,0Z"/><g id="øje2_copy_19" data-name="øje2 copy 19"><path class="cls-4" d="M190.06,118.12s-14.13-.05-20.89,5c0,0,19-.1,19.71,2.82"/><path class="cls-4" d="M108.37,119.2s13.43-1.93,20.46,2.2c0,0-18.09,2.43-18.41,5.42"/></g><path class="cls-10" d="M187.93,111.56l-7.91-1.2a3.51,3.51,0,0,1-2.93-4h0a3.5,3.5,0,0,1,4-2.93l7.91,1.2a3.51,3.51,0,0,1,2.93,4h0A3.5,3.5,0,0,1,187.93,111.56Z"/><path class="cls-10" d="M115.28,110.83l-7.72,2.09a3.51,3.51,0,0,1-4.3-2.46h0a3.51,3.51,0,0,1,2.46-4.29l7.72-2.09a3.51,3.51,0,0,1,4.3,2.46h0A3.51,3.51,0,0,1,115.28,110.83Z"/><path class="cls-13" d="M115.5,154.09s0-13.58,13.57-12.61l17.46,3.88s2.91,1,4.85,0l14.54-3.88s5.82-1.94,9.7,1c0,0,6.78,3.88,6.78,11.64,0,0,1.94,12.6-11.63,13.57,0,0-5.82,1-7.76-1l-10.66-3.88a20.49,20.49,0,0,0-11.64,0s-10.67,5.82-13.57,4.85C127.14,167.66,115.5,166.69,115.5,154.09Z"/><path class="cls-14" d="M138.55,164s-5.5-8.53-1.51-11.29c0,0,4.92-1.76,6.74,1.22,0,0,4.63,6,10.66.4,0,0,3-2.79,4.92-1.75,0,0,6.75,1.22-.48,12.6C158.88,165.14,147.46,159,138.55,164Z"/><g id="hår_copy_20" data-name="hår copy 20"><path class="cls-12" d="M5,171s28,32,45-7V89s6-38,46-40c0,0,50-53,105,0,0,0,43,0,45,40l1,73s14,41,46,10c0,0,4,52-44,53,0,0-54,8-47-70,0,0,12-18,11-49,0,0-32-36-33-54,0,0-46,67-87,59l-9,2s1,24,11,41c0,0,15,72-47,71C48,225,3,228,5,171Z"/></g><path class="cls-15" d="M187.5,121.63s58.65,4.16,66.33,66.52l7.67,62.35H205.59S208.88,141.12,187.5,121.63Z"/><path class="cls-16" d="M202.19,129a1.5,1.5,0,0,0,0-3,1.5,1.5,0,0,0,0,3Z"/><path class="cls-16" d="M200.51,128.05a4.61,4.61,0,0,1,.29,2.76c-.35.81-1,.46-1.74.6-1.7.34-2,2.07-1.6,3.49a1.51,1.51,0,0,0,2.9-.8c-.06-.57-.24-.48-.55.27a1.89,1.89,0,0,0,.53,0,2.74,2.74,0,0,0,1.09-.24,3.92,3.92,0,0,0,1.79-1.53c1-1.66.68-3.59.18-5.36a1.5,1.5,0,0,0-2.89.79Z"/><path class="cls-16" d="M212.32,133.74c1.84,2.45,4.6,6.16,1.35,8.78-1.07.86-2.55,1.08-3.41,2.26-1,1.35-.46,2-.54,3.45-.2,3.56-5,3-7.52,3.24-1.91.16-1.93,3.16,0,3,2.94-.25,7.62.27,9.92-2s-.17-4.68,1.91-6.74,3.8-2.1,4.13-5.36-1.45-5.74-3.25-8.13c-1.15-1.53-3.76,0-2.59,1.51Z"/><path class="cls-16" d="M226,142.78a22.64,22.64,0,0,0,1.47,3.94c1.92,5.47.5,7.11-4.6,8.63a1.52,1.52,0,0,0-.9,2.2q1.62,1.84-.23,4,.22,3.6-2,2.34c-.42.12-1-.08-1.49.05a2.88,2.88,0,0,0-2.05,1.64c-.38,1-.06,3.5-.24,4.47-.73,4-4.52,4.59-7.79,6.28-1.71.88-.2,3.47,1.52,2.59,3.12-1.61,7-2.62,9-5.74a6.88,6.88,0,0,0,1.2-4.24c-.18-2-1.05-1.37.57-1.68,2.37-.45,3.93.2,5.37-2.52,1.55-2.94.11-6-1.33-8.66l-.89,2.2c3.24-1,7-2.31,8.17-5.91,1.22-3.91-2.33-6.77-3-10.35-.32-1.9-3.22-1.09-2.89.8Z"/><path class="cls-16" d="M238.2,159.78l1.12,2.86q1.71,3.15-1.26,5c-2.39,2.77-1.61,1-3.16,2.4-.93.81-1.47.7-2,2-.42,1.07.14,1.95,0,3-.31,3.2-1.51,3.05-4.06,3.51s-3.16,1.64-3.84,3.93c-1.5,5-5.9,16.92-13.08,14.25-1.81-.67-2.6,2.23-.8,2.89,5.68,2.11,9.67-2.2,12.48-6.62a43.43,43.43,0,0,0,2.56-4.5c.7-1.48.91-4,1.73-5.22,1.73-2.63,3.56-1.1,6.08-2.2a3.78,3.78,0,0,0,2.46-3.23c.15-1.16-.85-2.6-.64-3.61.33-1.53,1.72-1.43,2.67-2,5.5-3.44,4.63-8.43,2.27-13.94-.76-1.77-3.35-.24-2.59,1.51Z"/><path class="cls-16" d="M246.91,181.55c-.39,3.69,1.66,8.8-2.84,10.72-1.87.8-3.77.72-5.58,1.83a1.54,1.54,0,0,0-.54,2.05q2.1,2.11-.24,3.42c-.51,1.21-1.29,1.55-2.36,1-.63.11-1.36,0-2,.12a8.52,8.52,0,0,0-4.36,3.14c-3.19,3.85-8.33,17.31-15.35,10.66-1.4-1.33-3.53.79-2.12,2.12,7,6.68,14.26-1.68,17.72-7.6.78-1.34,1.69-3.34,2.9-4.23,1.48-1.1,3.42-.69,5-.81,1.34-.11,2.2,0,3.31-.88,2.68-2.23,1.41-5.87.14-8.46l-.54,2.05c3-1.83,6.88-1,9-4.3s.59-7.4.95-10.84c.2-1.92-2.8-1.91-3,0Z"/><path class="cls-16" d="M251,209.11c-.37,4.56,0,11.37-5.34,13.14-3.41,1.13-7.76,1.2-11.3,1.74-1.06.16-1.23,1.42-.89,2.2q-.28,6.24-3.77,4.2a6.31,6.31,0,0,1-1.87-.79c-.49-.15-.78-.46-1.3-.5-1.58-.14-3.15,1.28-4.44,1.88-2.14,1-3,1.27-5,.06-.52-.32-.72-.87-1.27-1.09a2.81,2.81,0,0,0-3.27.27,1.5,1.5,0,0,0,1.51,2.59c.43-.26,2.63,1.82,3.2,2a6.23,6.23,0,0,0,3.18.1c1.71-.35,2.93-1.76,4.54-2.19,2.08-.54,3.76.79,5.82,1.15,6.28,1.11,7.26-4.49,5.24-9.21l-.9,2.2c4.48-.68,12.28-.27,15.63-3.83,3.08-3.28,2.87-9.76,3.21-13.94.16-1.92-2.84-1.91-3,0Z"/><path class="cls-16" d="M252.84,236.69c-2.48,2.45-5,5-8.2,6.56-4.33,2.07-7.36.49-11.65-.23-6.79-1.14-13.32,4.48-19.66-.16-1.56-1.14-3.06,1.46-1.52,2.59a13.06,13.06,0,0,0,9.75,2.25c2-.25,4-.91,6-1.35,3.41-.76,5.72.07,9.08.78,7.53,1.61,13.35-3.37,18.36-8.32,1.38-1.36-.74-3.48-2.12-2.12Z"/><path class="cls-15" d="M112.5,121.63s-58.65,4.16-66.33,66.52L38.5,250.5H94.41S91.12,141.12,112.5,121.63Z"/><path class="cls-16" d="M96.6,127.26c-.49,1.75-.87,3.72.18,5.36a4,4,0,0,0,1.61,1.45,3,3,0,0,0,1.09.3,2.12,2.12,0,0,0,.71,0c-.31-.75-.49-.84-.55-.27a1.51,1.51,0,0,0,2.9.8c.37-1.42.09-3.14-1.6-3.49-.74-.15-1.36.24-1.74-.6s.07-2,.29-2.76a1.5,1.5,0,0,0-2.89-.79Z"/><path class="cls-16" d="M85.09,132.23c-1.8,2.39-3.57,5-3.25,8.13S84,143.89,86,145.72s-.22,4.63,1.91,6.74c2.29,2.26,7,1.76,9.92,2,1.93.16,1.91-2.84,0-3-2.78-.24-6.87.1-7.52-3.24-.27-1.36.46-2.11-.54-3.45-.89-1.19-2.32-1.37-3.41-2.26-3.21-2.62-.49-6.33,1.35-8.78,1.17-1.54-1.44-3-2.59-1.51Z"/><path class="cls-16" d="M71.12,142c-.62,3.6-4.16,6.43-3,10.35,1.11,3.59,5,4.95,8.17,5.91l-.89-2.2c-1.32,2.45-2.77,5.33-1.6,8.13,1.3,3.09,3.08,2.57,5.64,3.05,1.6.3.76-.43.57,1.68a6.5,6.5,0,0,0,.9,3.68c1.91,3.53,6,4.58,9.32,6.3,1.72.88,3.24-1.71,1.52-2.59-2.22-1.14-5.75-2-7.37-4-3.42-4.23.37-3.92-.66-6.78a2.89,2.89,0,0,0-1.85-1.62c-.54-.17-1.19.06-1.69-.07l-1,.32q-3.45-3.53-1.17-6.62a1.52,1.52,0,0,0-.9-2.2c-5.1-1.52-6.52-3.16-4.6-8.63A22.64,22.64,0,0,0,74,142.78c.32-1.89-2.57-2.7-2.89-.8Z"/><path class="cls-16" d="M59.21,158.27c-2.48,5.79-3.06,10.18,2.27,13.94,1.23.87,2.1-.64,2.67,2,.21,1-.79,2.45-.64,3.61A3.79,3.79,0,0,0,66,181.07c2.45,1,4.41-.35,6.08,2.2.81,1.25,1,3.74,1.73,5.22a42.41,42.41,0,0,0,2.56,4.5c2.81,4.41,6.78,8.74,12.48,6.62,1.79-.66,1-3.56-.8-2.89-6.76,2.51-11.46-8.5-12.9-13.41-.76-2.62-1-4.23-4-4.77-2.1-.37-3.93-.29-4.21-3-.11-1.1.64-2.15.27-3.33s-1.1-1.45-2.06-2.21c-.39-.31-1-.13-1.4-.37-4.78-3-3.64-5.83-1.9-9.88.76-1.75-1.83-3.28-2.59-1.51Z"/><path class="cls-16" d="M50.09,181.55c.36,3.45-1.06,7.69.95,10.84s6,2.47,9,4.3l-.54-2.05c-1.26,2.59-2.55,6.23.14,8.46,1.11.93,1.84.66,3.11.9,2.6.51.69-2.6,5.18.79,1.26,1,2.13,2.91,2.9,4.23,3.46,5.92,10.67,14.28,17.72,7.6,1.4-1.33-.72-3.45-2.12-2.12-7,6.64-12.13-6.84-15.35-10.66a8.68,8.68,0,0,0-4.16-3.11c-2.74-.75-7.35.58-4.83-4.58a1.54,1.54,0,0,0-.54-2.05c-1.82-1.12-3.72-1-5.58-1.83-4.4-2-2.45-7-2.84-10.72-.2-1.91-3.2-1.93-3,0Z"/><path class="cls-16" d="M46,209.11c.34,4.2.13,10.66,3.21,13.94,3.37,3.58,11.13,3.14,15.63,3.83l-.9-2.2c-2,4.72-1,10.32,5.24,9.21,1.65-.29,3.31-1.39,4.89-1.27,1.92.15,3.37,1.87,5.28,2.28a6.62,6.62,0,0,0,3.19,0c.55-.17,3.08-2.27,3.38-2.1a1.5,1.5,0,0,0,1.51-2.59,2.87,2.87,0,0,0-3.09-.35c-3.13,1.09-2,3.2-6.43,1.11-1.33-.62-2.68-1.9-4.24-1.86a7.1,7.1,0,0,0-1,.18l-1.08.6q-4.49,3.16-5.1-3.71c.34-.78.17-2-.89-2.2-3.58-.55-7.88-.61-11.3-1.74-5.3-1.77-5-8.62-5.34-13.14-.16-1.91-3.16-1.93-3,0Z"/><path class="cls-16" d="M45,238.81c5,4.95,10.83,9.94,18.36,8.32,3-.63,5.33-1.59,8.43-.94,2.15.45,4.22,1.18,6.41,1.48a13.08,13.08,0,0,0,10-2.22c1.54-1.13,0-3.73-1.52-2.59-6.34,4.64-12.88-1-19.66.16-4.25.74-7.37,2.25-11.65.23-3.19-1.5-5.73-4.12-8.2-6.56-1.37-1.36-3.5.76-2.12,2.12Z"/></symbol><symbol id="_02" data-name="02" viewBox="0 0 300 250"><g id="background_copy" data-name="background copy"><rect class="cls-1" width="300" height="250"/></g><g id="ansigt_copy" data-name="ansigt copy"><ellipse class="cls-2" cx="149.2" cy="104.46" rx="71.73" ry="77.54"/><path class="cls-3" d="M142,130h14a7,7,0,0,1-14,0Z"/><path class="cls-4" d="M128,157s19-18,42,0"/><g id="øje2"><circle class="cls-5" cx="181.5" cy="123.5" r="11.5"/><ellipse class="cls-6" cx="181" cy="124.5" rx="11" ry="10.5"/><circle class="cls-5" cx="179" cy="124" r="6"/></g><g id="øje1"><circle class="cls-7" cx="114.5" cy="123.5" r="11.5"/><ellipse class="cls-7" cx="115" cy="124.5" rx="11" ry="10.5"/><circle class="cls-7" cx="117" cy="124" r="6"/><circle class="cls-8" cx="114.5" cy="123.5" r="11.5"/><ellipse class="cls-9" cx="115" cy="124.5" rx="11" ry="10.5"/><circle class="cls-8" cx="117" cy="124" r="6"/><circle class="cls-4" cx="114.5" cy="123.5" r="11.5"/><ellipse class="cls-4" cx="115" cy="124.5" rx="11" ry="10.5"/><circle class="cls-4" cx="117" cy="124" r="6"/></g><path class="cls-10" d="M187.93,115.56l-7.91-1.2a3.51,3.51,0,0,1-2.93-4h0a3.5,3.5,0,0,1,4-2.93l7.91,1.2a3.51,3.51,0,0,1,2.93,4h0A3.5,3.5,0,0,1,187.93,115.56Z"/><path class="cls-10" d="M115.28,114.83l-7.72,2.09a3.51,3.51,0,0,1-4.3-2.46h0a3.51,3.51,0,0,1,2.46-4.29l7.72-2.09a3.51,3.51,0,0,1,4.3,2.46h0A3.51,3.51,0,0,1,115.28,114.83Z"/><path class="cls-3" d="M145,161s3-4,7,0"/></g><g id="hår_copy" data-name="hår copy"><path class="cls-12" d="M5,171s28,32,45-7V89s6-38,46-40c0,0,50-53,105,0,0,0,43,0,45,40l1,73s14,41,46,10c0,0,4,52-44,53,0,0-54,8-47-70,0,0,12-18,11-49,0,0-32-36-33-54,0,0-46,67-87,59l-9,2s1,24,11,41c0,0,15,72-47,71C48,225,3,228,5,171Z"/></g></symbol><symbol id="_03" data-name="03" viewBox="0 0 300 250"><g id="background_copy_2" data-name="background copy 2"><rect class="cls-1" width="300" height="250"/></g><g id="ansigt_copy_2" data-name="ansigt copy 2"><ellipse class="cls-2" cx="149.2" cy="104.46" rx="71.73" ry="77.54"/><path class="cls-3" d="M142,130h14a7,7,0,0,1-14,0Z"/><path class="cls-4" d="M128,157s19-18,42,0"/><g id="øje2_copy" data-name="øje2 copy"><circle class="cls-5" cx="181.5" cy="123.5" r="11.5"/><ellipse class="cls-6" cx="181" cy="124.5" rx="11" ry="10.5"/><circle class="cls-5" cx="179" cy="124" r="6"/></g><g id="øje1_copy" data-name="øje1 copy"><circle class="cls-7" cx="114.5" cy="123.5" r="11.5"/><ellipse class="cls-7" cx="115" cy="124.5" rx="11" ry="10.5"/><circle class="cls-7" cx="117" cy="124" r="6"/><circle class="cls-8" cx="114.5" cy="123.5" r="11.5"/><ellipse class="cls-9" cx="115" cy="124.5" rx="11" ry="10.5"/><circle class="cls-8" cx="117" cy="124" r="6"/><circle class="cls-4" cx="114.5" cy="123.5" r="11.5"/><ellipse class="cls-4" cx="115" cy="124.5" rx="11" ry="10.5"/><circle class="cls-4" cx="117" cy="124" r="6"/></g><path class="cls-10" d="M187.93,115.56l-7.91-1.2a3.51,3.51,0,0,1-2.93-4h0a3.5,3.5,0,0,1,4-2.93l7.91,1.2a3.51,3.51,0,0,1,2.93,4h0A3.5,3.5,0,0,1,187.93,115.56Z"/><path class="cls-10" d="M115.28,114.83l-7.72,2.09a3.51,3.51,0,0,1-4.3-2.46h0a3.51,3.51,0,0,1,2.46-4.29l7.72-2.09a3.51,3.51,0,0,1,4.3,2.46h0A3.51,3.51,0,0,1,115.28,114.83Z"/><path class="cls-3" d="M145,159s3-4,7,0"/></g><g id="hår_copy_2" data-name="hår copy 2"><path class="cls-12" d="M5,171s28,32,45-7V89s6-38,46-40c0,0,50-53,105,0,0,0,43,0,45,40l1,73s14,41,46,10c0,0,4,52-44,53,0,0-54,8-47-70,0,0,12-18,11-49,0,0-32-36-33-54,0,0-46,67-87,59l-9,2s1,24,11,41c0,0,15,72-47,71C48,225,3,228,5,171Z"/></g></symbol><symbol id="_04" data-name="04" viewBox="0 0 300 250"><g id="background_copy_3" data-name="background copy 3"><rect class="cls-1" width="300" height="250"/></g><g id="ansigt_copy_3" data-name="ansigt copy 3"><ellipse class="cls-2" cx="149.2" cy="104.46" rx="71.73" ry="77.54"/><path class="cls-3" d="M142,130h14a7,7,0,0,1-14,0Z"/><path class="cls-4" d="M128,157s19-18,42,0"/><g id="øje2_copy_2" data-name="øje2 copy 2"><circle class="cls-5" cx="181.5" cy="123.5" r="11.5"/><ellipse class="cls-6" cx="181" cy="124.5" rx="11" ry="10.5"/><circle class="cls-5" cx="179" cy="124" r="6"/></g><g id="øje1_copy-2" data-name="øje1 copy"><circle class="cls-7" cx="114.5" cy="123.5" r="11.5"/><ellipse class="cls-7" cx="115" cy="124.5" rx="11" ry="10.5"/><circle class="cls-7" cx="117" cy="124" r="6"/><circle class="cls-8" cx="114.5" cy="123.5" r="11.5"/><ellipse class="cls-9" cx="115" cy="124.5" rx="11" ry="10.5"/><circle class="cls-8" cx="117" cy="124" r="6"/><circle class="cls-4" cx="114.5" cy="123.5" r="11.5"/><ellipse class="cls-4" cx="115" cy="124.5" rx="11" ry="10.5"/><circle class="cls-4" cx="117" cy="124" r="6"/></g><path class="cls-10" d="M187.93,115.56l-7.91-1.2a3.51,3.51,0,0,1-2.93-4h0a3.5,3.5,0,0,1,4-2.93l7.91,1.2a3.51,3.51,0,0,1,2.93,4h0A3.5,3.5,0,0,1,187.93,115.56Z"/><path class="cls-10" d="M115.28,114.83l-7.72,2.09a3.51,3.51,0,0,1-4.3-2.46h0a3.51,3.51,0,0,1,2.46-4.29l7.72-2.09a3.51,3.51,0,0,1,4.3,2.46h0A3.51,3.51,0,0,1,115.28,114.83Z"/><path class="cls-3" d="M145,159s3-4,7,0"/><path class="cls-4" d="M128,129s-6,10-14,9"/><path class="cls-4" d="M168,129s6,10,14,9"/></g><g id="hår_copy_3" data-name="hår copy 3"><path class="cls-12" d="M5,171s28,32,45-7V89s6-38,46-40c0,0,50-53,105,0,0,0,43,0,45,40l1,73s14,41,46,10c0,0,4,52-44,53,0,0-54,8-47-70,0,0,12-18,11-49,0,0-32-36-33-54,0,0-46,67-87,59l-9,2s1,24,11,41c0,0,15,72-47,71C48,225,3,228,5,171Z"/></g></symbol><symbol id="_05" data-name="05" viewBox="0 0 300 250"><g id="background_copy_4" data-name="background copy 4"><rect class="cls-1" width="300" height="250"/></g><g id="ansigt_copy_4" data-name="ansigt copy 4"><ellipse class="cls-2" cx="149.2" cy="104.46" rx="71.73" ry="77.54"/><path class="cls-3" d="M142,130h14a7,7,0,0,1-14,0Z"/><path class="cls-4" d="M128,157s19-18,42,0"/><g id="øje2_copy_3" data-name="øje2 copy 3"><circle class="cls-5" cx="181.5" cy="123.5" r="11.5"/><ellipse class="cls-6" cx="181" cy="124.5" rx="11" ry="10.5"/><circle class="cls-5" cx="179" cy="124" r="6"/></g><g id="øje1_copy-3" data-name="øje1 copy"><circle class="cls-7" cx="114.5" cy="123.5" r="11.5"/><ellipse class="cls-7" cx="115" cy="124.5" rx="11" ry="10.5"/><circle class="cls-7" cx="117" cy="124" r="6"/><circle class="cls-8" cx="114.5" cy="123.5" r="11.5"/><ellipse class="cls-9" cx="115" cy="124.5" rx="11" ry="10.5"/><circle class="cls-8" cx="117" cy="124" r="6"/><circle class="cls-4" cx="114.5" cy="123.5" r="11.5"/><ellipse class="cls-4" cx="115" cy="124.5" rx="11" ry="10.5"/><circle class="cls-4" cx="117" cy="124" r="6"/></g><path class="cls-10" d="M187.93,115.56l-7.91-1.2a3.51,3.51,0,0,1-2.93-4h0a3.5,3.5,0,0,1,4-2.93l7.91,1.2a3.51,3.51,0,0,1,2.93,4h0A3.5,3.5,0,0,1,187.93,115.56Z"/><path class="cls-10" d="M115.28,114.83l-7.72,2.09a3.51,3.51,0,0,1-4.3-2.46h0a3.51,3.51,0,0,1,2.46-4.29l7.72-2.09a3.51,3.51,0,0,1,4.3,2.46h0A3.51,3.51,0,0,1,115.28,114.83Z"/><path class="cls-4" d="M145,161s3-4,7,0"/><path class="cls-4" d="M128,129s-6,10-14,9"/><path class="cls-4" d="M168,129s6,10,14,9"/><ellipse class="cls-11" cx="188.17" cy="133.83" rx="1.67" ry="3.33"/></g><g id="hår_copy_4" data-name="hår copy 4"><path class="cls-12" d="M5,171s28,32,45-7V89s6-38,46-40c0,0,50-53,105,0,0,0,43,0,45,40l1,73s14,41,46,10c0,0,4,52-44,53,0,0-54,8-47-70,0,0,12-18,11-49,0,0-32-36-33-54,0,0-46,67-87,59l-9,2s1,24,11,41c0,0,15,72-47,71C48,225,3,228,5,171Z"/></g></symbol><symbol id="_06" data-name="06" viewBox="0 0 300 250"><g id="background_copy_5" data-name="background copy 5"><rect class="cls-1" width="300" height="250"/></g><g id="ansigt_copy_5" data-name="ansigt copy 5"><ellipse class="cls-2" cx="149.2" cy="104.46" rx="71.73" ry="77.54"/><path class="cls-3" d="M142,130h14a7,7,0,0,1-14,0Z"/><path class="cls-4" d="M128,157s19-18,42,0"/><g id="øje2_copy_4" data-name="øje2 copy 4"><circle class="cls-5" cx="181.5" cy="123.5" r="11.5"/><ellipse class="cls-6" cx="181" cy="124.5" rx="11" ry="10.5"/><circle class="cls-5" cx="179" cy="124" r="6"/></g><g id="øje1_copy-4" data-name="øje1 copy"><circle class="cls-7" cx="114.5" cy="123.5" r="11.5"/><ellipse class="cls-7" cx="115" cy="124.5" rx="11" ry="10.5"/><circle class="cls-7" cx="117" cy="124" r="6"/><circle class="cls-8" cx="114.5" cy="123.5" r="11.5"/><ellipse class="cls-9" cx="115" cy="124.5" rx="11" ry="10.5"/><circle class="cls-8" cx="117" cy="124" r="6"/><circle class="cls-4" cx="114.5" cy="123.5" r="11.5"/><ellipse class="cls-4" cx="115" cy="124.5" rx="11" ry="10.5"/><circle class="cls-4" cx="117" cy="124" r="6"/></g><path class="cls-10" d="M187.93,115.56l-7.91-1.2a3.51,3.51,0,0,1-2.93-4h0a3.5,3.5,0,0,1,4-2.93l7.91,1.2a3.51,3.51,0,0,1,2.93,4h0A3.5,3.5,0,0,1,187.93,115.56Z"/><path class="cls-10" d="M115.28,114.83l-7.72,2.09a3.51,3.51,0,0,1-4.3-2.46h0a3.51,3.51,0,0,1,2.46-4.29l7.72-2.09a3.51,3.51,0,0,1,4.3,2.46h0A3.51,3.51,0,0,1,115.28,114.83Z"/><path class="cls-3" d="M145,159s3-4,7,0"/><path class="cls-4" d="M128,129s-6,10-14,9"/><path class="cls-4" d="M168,129s6,10,14,9"/><ellipse class="cls-11" cx="188.17" cy="133.83" rx="1.67" ry="3.33"/><ellipse class="cls-11" cx="189" cy="140.5" rx="2.5" ry="5"/></g><g id="hår_copy_5" data-name="hår copy 5"><path class="cls-12" d="M5,171s28,32,45-7V89s6-38,46-40c0,0,50-53,105,0,0,0,43,0,45,40l1,73s14,41,46,10c0,0,4,52-44,53,0,0-54,8-47-70,0,0,12-18,11-49,0,0-32-36-33-54,0,0-46,67-87,59l-9,2s1,24,11,41c0,0,15,72-47,71C48,225,3,228,5,171Z"/></g></symbol><symbol id="_07" data-name="07" viewBox="0 0 300 250"><g id="background_copy_6" data-name="background copy 6"><rect class="cls-1" width="300" height="250"/></g><g id="ansigt_copy_6" data-name="ansigt copy 6"><ellipse class="cls-2" cx="149.2" cy="104.46" rx="71.73" ry="77.54"/><path class="cls-3" d="M142,130h14a7,7,0,0,1-14,0Z"/><path class="cls-4" d="M128,157s19-18,42,0"/><g id="øje2_copy_5" data-name="øje2 copy 5"><circle class="cls-5" cx="181.5" cy="123.5" r="11.5"/><ellipse class="cls-6" cx="181" cy="124.5" rx="11" ry="10.5"/><circle class="cls-5" cx="179" cy="124" r="6"/></g><g id="øje1_copy-5" data-name="øje1 copy"><circle class="cls-7" cx="114.5" cy="123.5" r="11.5"/><ellipse class="cls-7" cx="115" cy="124.5" rx="11" ry="10.5"/><circle class="cls-7" cx="117" cy="124" r="6"/><circle class="cls-8" cx="114.5" cy="123.5" r="11.5"/><ellipse class="cls-9" cx="115" cy="124.5" rx="11" ry="10.5"/><circle class="cls-8" cx="117" cy="124" r="6"/><circle class="cls-4" cx="114.5" cy="123.5" r="11.5"/><ellipse class="cls-4" cx="115" cy="124.5" rx="11" ry="10.5"/><circle class="cls-4" cx="117" cy="124" r="6"/></g><path class="cls-10" d="M187.93,115.56l-7.91-1.2a3.51,3.51,0,0,1-2.93-4h0a3.5,3.5,0,0,1,4-2.93l7.91,1.2a3.51,3.51,0,0,1,2.93,4h0A3.5,3.5,0,0,1,187.93,115.56Z"/><path class="cls-10" d="M115.28,114.83l-7.72,2.09a3.51,3.51,0,0,1-4.3-2.46h0a3.51,3.51,0,0,1,2.46-4.29l7.72-2.09a3.51,3.51,0,0,1,4.3,2.46h0A3.51,3.51,0,0,1,115.28,114.83Z"/><path class="cls-3" d="M145,159s3-4,7,0"/><path class="cls-4" d="M128,129s-6,10-14,9"/><path class="cls-4" d="M168,129s6,10,14,9"/><ellipse class="cls-11" cx="188.17" cy="133.83" rx="1.67" ry="3.33"/><ellipse class="cls-11" cx="108.17" cy="134.83" rx="1.67" ry="3.33"/><ellipse class="cls-11" cx="189" cy="145.5" rx="2.5" ry="5"/></g><g id="hår_copy_6" data-name="hår copy 6"><path class="cls-12" d="M5,171s28,32,45-7V89s6-38,46-40c0,0,50-53,105,0,0,0,43,0,45,40l1,73s14,41,46,10c0,0,4,52-44,53,0,0-54,8-47-70,0,0,12-18,11-49,0,0-32-36-33-54,0,0-46,67-87,59l-9,2s1,24,11,41c0,0,15,72-47,71C48,225,3,228,5,171Z"/></g></symbol><symbol id="_08" data-name="08" viewBox="0 0 300 250"><g id="background_copy_7" data-name="background copy 7"><rect class="cls-1" width="300" height="250"/></g><g id="ansigt_copy_7" data-name="ansigt copy 7"><ellipse class="cls-2" cx="149.2" cy="104.46" rx="71.73" ry="77.54"/><path class="cls-3" d="M142,130h14a7,7,0,0,1-14,0Z"/><path class="cls-4" d="M128,157s19-18,42,0"/><g id="øje2_copy_6" data-name="øje2 copy 6"><circle class="cls-5" cx="181.5" cy="123.5" r="11.5"/><ellipse class="cls-6" cx="181" cy="124.5" rx="11" ry="10.5"/><circle class="cls-5" cx="179" cy="124" r="6"/></g><g id="øje1_copy-6" data-name="øje1 copy"><circle class="cls-7" cx="114.5" cy="123.5" r="11.5"/><ellipse class="cls-7" cx="115" cy="124.5" rx="11" ry="10.5"/><circle class="cls-7" cx="117" cy="124" r="6"/><circle class="cls-8" cx="114.5" cy="123.5" r="11.5"/><ellipse class="cls-9" cx="115" cy="124.5" rx="11" ry="10.5"/><circle class="cls-8" cx="117" cy="124" r="6"/><circle class="cls-4" cx="114.5" cy="123.5" r="11.5"/><ellipse class="cls-4" cx="115" cy="124.5" rx="11" ry="10.5"/><circle class="cls-4" cx="117" cy="124" r="6"/></g><path class="cls-10" d="M187.93,115.56l-7.91-1.2a3.51,3.51,0,0,1-2.93-4h0a3.5,3.5,0,0,1,4-2.93l7.91,1.2a3.51,3.51,0,0,1,2.93,4h0A3.5,3.5,0,0,1,187.93,115.56Z"/><path class="cls-10" d="M115.28,114.83l-7.72,2.09a3.51,3.51,0,0,1-4.3-2.46h0a3.51,3.51,0,0,1,2.46-4.29l7.72-2.09a3.51,3.51,0,0,1,4.3,2.46h0A3.51,3.51,0,0,1,115.28,114.83Z"/><path class="cls-3" d="M145,161s3-4,7,0"/><path class="cls-4" d="M128,129s-6,10-14,9"/><path class="cls-4" d="M168,129s6,10,14,9"/><ellipse class="cls-11" cx="188.17" cy="133.83" rx="1.67" ry="3.33"/><ellipse class="cls-11" cx="108.17" cy="134.83" rx="1.67" ry="3.33"/><ellipse class="cls-11" cx="108" cy="141.5" rx="2.5" ry="5"/><ellipse class="cls-11" cx="189" cy="163.5" rx="2.5" ry="5"/></g><g id="hår_copy_7" data-name="hår copy 7"><path class="cls-12" d="M5,171s28,32,45-7V89s6-38,46-40c0,0,50-53,105,0,0,0,43,0,45,40l1,73s14,41,46,10c0,0,4,52-44,53,0,0-54,8-47-70,0,0,12-18,11-49,0,0-32-36-33-54,0,0-46,67-87,59l-9,2s1,24,11,41c0,0,15,72-47,71C48,225,3,228,5,171Z"/></g></symbol><symbol id="_09" data-name="09" viewBox="0 0 300 250"><g id="background_copy_8" data-name="background copy 8"><rect class="cls-1" width="300" height="250"/></g><g id="ansigt_copy_8" data-name="ansigt copy 8"><ellipse class="cls-2" cx="149.2" cy="104.46" rx="71.73" ry="77.54"/><path class="cls-3" d="M142,130h14a7,7,0,0,1-14,0Z"/><path class="cls-4" d="M128,157s19-18,42,0"/><g id="øje2_copy_7" data-name="øje2 copy 7"><circle class="cls-5" cx="181.5" cy="123.5" r="11.5"/><ellipse class="cls-6" cx="181" cy="124.5" rx="11" ry="10.5"/><circle class="cls-5" cx="179" cy="124" r="6"/></g><g id="øje1_copy-7" data-name="øje1 copy"><circle class="cls-7" cx="114.5" cy="123.5" r="11.5"/><ellipse class="cls-7" cx="115" cy="124.5" rx="11" ry="10.5"/><circle class="cls-7" cx="117" cy="124" r="6"/><circle class="cls-8" cx="114.5" cy="123.5" r="11.5"/><ellipse class="cls-9" cx="115" cy="124.5" rx="11" ry="10.5"/><circle class="cls-8" cx="117" cy="124" r="6"/><circle class="cls-4" cx="114.5" cy="123.5" r="11.5"/><ellipse class="cls-4" cx="115" cy="124.5" rx="11" ry="10.5"/><circle class="cls-4" cx="117" cy="124" r="6"/></g><path class="cls-10" d="M187.93,115.56l-7.91-1.2a3.51,3.51,0,0,1-2.93-4h0a3.5,3.5,0,0,1,4-2.93l7.91,1.2a3.51,3.51,0,0,1,2.93,4h0A3.5,3.5,0,0,1,187.93,115.56Z"/><path class="cls-10" d="M115.28,114.83l-7.72,2.09a3.51,3.51,0,0,1-4.3-2.46h0a3.51,3.51,0,0,1,2.46-4.29l7.72-2.09a3.51,3.51,0,0,1,4.3,2.46h0A3.51,3.51,0,0,1,115.28,114.83Z"/><path class="cls-3" d="M145,159s3-4,7,0"/><path class="cls-4" d="M128,129s-6,10-14,9"/><path class="cls-4" d="M168,129s6,10,14,9"/><ellipse class="cls-11" cx="188.17" cy="133.83" rx="1.67" ry="3.33"/><ellipse class="cls-11" cx="108.17" cy="134.83" rx="1.67" ry="3.33"/><ellipse class="cls-11" cx="108" cy="148.5" rx="2.5" ry="5"/></g><g id="hår_copy_8" data-name="hår copy 8"><path class="cls-12" d="M5,171s28,32,45-7V89s6-38,46-40c0,0,50-53,105,0,0,0,43,0,45,40l1,73s14,41,46,10c0,0,4,52-44,53,0,0-54,8-47-70,0,0,12-18,11-49,0,0-32-36-33-54,0,0-46,67-87,59l-9,2s1,24,11,41c0,0,15,72-47,71C48,225,3,228,5,171Z"/></g></symbol><symbol id="_10" data-name="10" viewBox="0 0 300 250"><g id="background_copy_9" data-name="background copy 9"><rect class="cls-1" width="300" height="250"/></g><g id="ansigt_copy_9" data-name="ansigt copy 9"><ellipse class="cls-2" cx="149.2" cy="104.46" rx="71.73" ry="77.54"/><path class="cls-3" d="M142,130h14a7,7,0,0,1-14,0Z"/><path class="cls-4" d="M128,157s19-18,42,0"/><g id="øje2_copy_8" data-name="øje2 copy 8"><circle class="cls-5" cx="181.5" cy="123.5" r="11.5"/><ellipse class="cls-6" cx="181" cy="124.5" rx="11" ry="10.5"/><circle class="cls-5" cx="179" cy="124" r="6"/></g><g id="øje1_copy-8" data-name="øje1 copy"><circle class="cls-7" cx="114.5" cy="123.5" r="11.5"/><ellipse class="cls-7" cx="115" cy="124.5" rx="11" ry="10.5"/><circle class="cls-7" cx="117" cy="124" r="6"/><circle class="cls-8" cx="114.5" cy="123.5" r="11.5"/><ellipse class="cls-9" cx="115" cy="124.5" rx="11" ry="10.5"/><circle class="cls-8" cx="117" cy="124" r="6"/><circle class="cls-4" cx="114.5" cy="123.5" r="11.5"/><ellipse class="cls-4" cx="115" cy="124.5" rx="11" ry="10.5"/><circle class="cls-4" cx="117" cy="124" r="6"/></g><path class="cls-10" d="M187.93,115.56l-7.91-1.2a3.51,3.51,0,0,1-2.93-4h0a3.5,3.5,0,0,1,4-2.93l7.91,1.2a3.51,3.51,0,0,1,2.93,4h0A3.5,3.5,0,0,1,187.93,115.56Z"/><path class="cls-10" d="M115.28,114.83l-7.72,2.09a3.51,3.51,0,0,1-4.3-2.46h0a3.51,3.51,0,0,1,2.46-4.29l7.72-2.09a3.51,3.51,0,0,1,4.3,2.46h0A3.51,3.51,0,0,1,115.28,114.83Z"/><path class="cls-3" d="M145,159s3-4,7,0"/><path class="cls-4" d="M128,129s-6,10-14,9"/><path class="cls-4" d="M168,129s6,10,14,9"/><ellipse class="cls-11" cx="188.17" cy="133.83" rx="1.67" ry="3.33"/><ellipse class="cls-11" cx="108.17" cy="134.83" rx="1.67" ry="3.33"/><ellipse class="cls-11" cx="108" cy="161.5" rx="2.5" ry="5"/></g><g id="hår_copy_9" data-name="hår copy 9"><path class="cls-12" d="M5,171s28,32,45-7V89s6-38,46-40c0,0,50-53,105,0,0,0,43,0,45,40l1,73s14,41,46,10c0,0,4,52-44,53,0,0-54,8-47-70,0,0,12-18,11-49,0,0-32-36-33-54,0,0-46,67-87,59l-9,2s1,24,11,41c0,0,15,72-47,71C48,225,3,228,5,171Z"/></g></symbol><symbol id="_11" data-name="11" viewBox="0 0 300 250"><g id="background_copy_10" data-name="background copy 10"><rect class="cls-1" width="300" height="250"/></g><g id="ansigt_copy_10" data-name="ansigt copy 10"><ellipse class="cls-2" cx="149.2" cy="104.46" rx="71.73" ry="77.54"/><path class="cls-3" d="M142,130h14a7,7,0,0,1-14,0Z"/><path class="cls-4" d="M128,157s19-18,42,0"/><g id="øje2_copy_9" data-name="øje2 copy 9"><circle class="cls-5" cx="181.5" cy="123.5" r="11.5"/><ellipse class="cls-6" cx="181" cy="124.5" rx="11" ry="10.5"/><circle class="cls-5" cx="179" cy="124" r="6"/></g><g id="øje1_copy-9" data-name="øje1 copy"><circle class="cls-7" cx="114.5" cy="123.5" r="11.5"/><ellipse class="cls-7" cx="115" cy="124.5" rx="11" ry="10.5"/><circle class="cls-7" cx="117" cy="124" r="6"/><circle class="cls-8" cx="114.5" cy="123.5" r="11.5"/><ellipse class="cls-9" cx="115" cy="124.5" rx="11" ry="10.5"/><circle class="cls-8" cx="117" cy="124" r="6"/><circle class="cls-4" cx="114.5" cy="123.5" r="11.5"/><ellipse class="cls-4" cx="115" cy="124.5" rx="11" ry="10.5"/><circle class="cls-4" cx="117" cy="124" r="6"/></g><path class="cls-10" d="M187.93,115.56l-7.91-1.2a3.51,3.51,0,0,1-2.93-4h0a3.5,3.5,0,0,1,4-2.93l7.91,1.2a3.51,3.51,0,0,1,2.93,4h0A3.5,3.5,0,0,1,187.93,115.56Z"/><path class="cls-10" d="M115.28,114.83l-7.72,2.09a3.51,3.51,0,0,1-4.3-2.46h0a3.51,3.51,0,0,1,2.46-4.29l7.72-2.09a3.51,3.51,0,0,1,4.3,2.46h0A3.51,3.51,0,0,1,115.28,114.83Z"/><path class="cls-3" d="M145,161s3-4,7,0"/><path class="cls-4" d="M128,129s-6,10-14,9"/><path class="cls-4" d="M168,129s6,10,14,9"/><ellipse class="cls-11" cx="189.25" cy="141" rx="4.75" ry="9.5"/><ellipse class="cls-11" cx="108.17" cy="134.83" rx="1.67" ry="3.33"/></g><g id="hår_copy_10" data-name="hår copy 10"><path class="cls-12" d="M5,171s28,32,45-7V89s6-38,46-40c0,0,50-53,105,0,0,0,43,0,45,40l1,73s14,41,46,10c0,0,4,52-44,53,0,0-54,8-47-70,0,0,12-18,11-49,0,0-32-36-33-54,0,0-46,67-87,59l-9,2s1,24,11,41c0,0,15,72-47,71C48,225,3,228,5,171Z"/></g></symbol><symbol id="_12" data-name="12" viewBox="0 0 300 250"><g id="background_copy_11" data-name="background copy 11"><rect class="cls-1" width="300" height="250"/></g><g id="ansigt_copy_11" data-name="ansigt copy 11"><ellipse class="cls-2" cx="149.2" cy="104.46" rx="71.73" ry="77.54"/><path class="cls-3" d="M142,130h14a7,7,0,0,1-14,0Z"/><path class="cls-4" d="M128,157s19-18,42,0"/><g id="øje2_copy_10" data-name="øje2 copy 10"><circle class="cls-5" cx="181.5" cy="123.5" r="11.5"/><ellipse class="cls-6" cx="181" cy="124.5" rx="11" ry="10.5"/><circle class="cls-5" cx="179" cy="124" r="6"/></g><g id="øje1_copy-10" data-name="øje1 copy"><circle class="cls-7" cx="114.5" cy="123.5" r="11.5"/><ellipse class="cls-7" cx="115" cy="124.5" rx="11" ry="10.5"/><circle class="cls-7" cx="117" cy="124" r="6"/><circle class="cls-8" cx="114.5" cy="123.5" r="11.5"/><ellipse class="cls-9" cx="115" cy="124.5" rx="11" ry="10.5"/><circle class="cls-8" cx="117" cy="124" r="6"/><circle class="cls-4" cx="114.5" cy="123.5" r="11.5"/><ellipse class="cls-4" cx="115" cy="124.5" rx="11" ry="10.5"/><circle class="cls-4" cx="117" cy="124" r="6"/></g><path class="cls-10" d="M187.93,115.56l-7.91-1.2a3.51,3.51,0,0,1-2.93-4h0a3.5,3.5,0,0,1,4-2.93l7.91,1.2a3.51,3.51,0,0,1,2.93,4h0A3.5,3.5,0,0,1,187.93,115.56Z"/><path class="cls-10" d="M115.28,114.83l-7.72,2.09a3.51,3.51,0,0,1-4.3-2.46h0a3.51,3.51,0,0,1,2.46-4.29l7.72-2.09a3.51,3.51,0,0,1,4.3,2.46h0A3.51,3.51,0,0,1,115.28,114.83Z"/><path class="cls-3" d="M145,159s3-4,7,0"/><path class="cls-4" d="M128,129s-6,10-14,9"/><path class="cls-4" d="M168,129s6,10,14,9"/><ellipse class="cls-11" cx="191.5" cy="145.5" rx="7" ry="14"/><ellipse class="cls-11" cx="108.17" cy="134.83" rx="1.67" ry="3.33"/></g><g id="hår_copy_11" data-name="hår copy 11"><path class="cls-12" d="M5,171s28,32,45-7V89s6-38,46-40c0,0,50-53,105,0,0,0,43,0,45,40l1,73s14,41,46,10c0,0,4,52-44,53,0,0-54,8-47-70,0,0,12-18,11-49,0,0-32-36-33-54,0,0-46,67-87,59l-9,2s1,24,11,41c0,0,15,72-47,71C48,225,3,228,5,171Z"/></g></symbol><symbol id="_13" data-name="13" viewBox="0 0 300 250"><g id="background_copy_12" data-name="background copy 12"><rect class="cls-1" width="300" height="250"/></g><g id="ansigt_copy_12" data-name="ansigt copy 12"><ellipse class="cls-2" cx="149.2" cy="104.46" rx="71.73" ry="77.54"/><path class="cls-3" d="M142,130h14a7,7,0,0,1-14,0Z"/><path class="cls-4" d="M128,157s19-18,42,0"/><g id="øje2_copy_11" data-name="øje2 copy 11"><path class="cls-4" d="M190.06,118.12s-14.13-.05-20.89,5c0,0,19-.1,19.71,2.82"/><path class="cls-4" d="M108.37,119.2s13.43-1.93,20.46,2.2c0,0-18.09,2.43-18.41,5.42"/></g><path class="cls-10" d="M187.93,115.56l-7.91-1.2a3.51,3.51,0,0,1-2.93-4h0a3.5,3.5,0,0,1,4-2.93l7.91,1.2a3.51,3.51,0,0,1,2.93,4h0A3.5,3.5,0,0,1,187.93,115.56Z"/><path class="cls-10" d="M115.28,114.83l-7.72,2.09a3.51,3.51,0,0,1-4.3-2.46h0a3.51,3.51,0,0,1,2.46-4.29l7.72-2.09a3.51,3.51,0,0,1,4.3,2.46h0A3.51,3.51,0,0,1,115.28,114.83Z"/><path class="cls-3" d="M145,159s3-4,7,0"/><ellipse class="cls-11" cx="191.5" cy="166.5" rx="7" ry="14"/><ellipse class="cls-11" cx="108.17" cy="161.83" rx="1.67" ry="3.33"/></g><g id="hår_copy_12" data-name="hår copy 12"><path class="cls-12" d="M5,171s28,32,45-7V89s6-38,46-40c0,0,50-53,105,0,0,0,43,0,45,40l1,73s14,41,46,10c0,0,4,52-44,53,0,0-54,8-47-70,0,0,12-18,11-49,0,0-32-36-33-54,0,0-46,67-87,59l-9,2s1,24,11,41c0,0,15,72-47,71C48,225,3,228,5,171Z"/></g></symbol><symbol id="_14" data-name="14" viewBox="0 0 300 250"><g id="background_copy_13" data-name="background copy 13"><rect class="cls-1" width="300" height="250"/></g><ellipse class="cls-2" cx="149.2" cy="104.46" rx="71.73" ry="77.54"/><path class="cls-3" d="M142,130h14a7,7,0,0,1-14,0Z"/><g id="øje2_copy_12" data-name="øje2 copy 12"><path class="cls-4" d="M190.06,118.12s-14.13-.05-20.89,5c0,0,19-.1,19.71,2.82"/><path class="cls-4" d="M108.37,119.2s13.43-1.93,20.46,2.2c0,0-18.09,2.43-18.41,5.42"/></g><path class="cls-10" d="M187.93,111.56l-7.91-1.2a3.51,3.51,0,0,1-2.93-4h0a3.5,3.5,0,0,1,4-2.93l7.91,1.2a3.51,3.51,0,0,1,2.93,4h0A3.5,3.5,0,0,1,187.93,111.56Z"/><path class="cls-10" d="M115.28,110.83l-7.72,2.09a3.51,3.51,0,0,1-4.3-2.46h0a3.51,3.51,0,0,1,2.46-4.29l7.72-2.09a3.51,3.51,0,0,1,4.3,2.46h0A3.51,3.51,0,0,1,115.28,110.83Z"/><path class="cls-13" d="M115.5,155.5s0-14,14-13l18,4s3,1,5,0l15-4s6-2,10,1c0,0,7,4,7,12,0,0,2,13-12,14,0,0-6,1-8-1l-11-4a21.12,21.12,0,0,0-12,0s-11,6-14,5C127.5,169.5,115.5,168.5,115.5,155.5Z"/><path class="cls-14" d="M139.27,165.69s-5.67-8.81-1.56-11.65c0,0,5.07-1.81,7,1.26,0,0,4.77,6.18,11,.42,0,0,3.11-2.89,5.07-1.81,0,0,7,1.26-.49,13C160.24,166.9,148.46,160.61,139.27,165.69Z"/><g id="hår_copy_13" data-name="hår copy 13"><path class="cls-12" d="M5,171s28,32,45-7V89s6-38,46-40c0,0,50-53,105,0,0,0,43,0,45,40l1,73s14,41,46,10c0,0,4,52-44,53,0,0-54,8-47-70,0,0,12-18,11-49,0,0-32-36-33-54,0,0-46,67-87,59l-9,2s1,24,11,41c0,0,15,72-47,71C48,225,3,228,5,171Z"/></g><ellipse class="cls-11" cx="107.25" cy="131.75" rx="5.75" ry="2.75" transform="translate(-52.58 189.33) rotate(-70.66)"/><ellipse class="cls-11" cx="191.25" cy="130.75" rx="2.75" ry="5.75" transform="translate(-33.71 75.38) rotate(-20.53)"/></symbol><symbol id="_15" data-name="15" viewBox="0 0 300 250"><g id="background_copy_14" data-name="background copy 14"><rect class="cls-1" width="300" height="250"/></g><ellipse class="cls-2" cx="149.2" cy="104.46" rx="71.73" ry="77.54"/><path class="cls-3" d="M142,130h14a7,7,0,0,1-14,0Z"/><g id="øje2_copy_13" data-name="øje2 copy 13"><path class="cls-4" d="M190.06,118.12s-14.13-.05-20.89,5c0,0,19-.1,19.71,2.82"/><path class="cls-4" d="M108.37,119.2s13.43-1.93,20.46,2.2c0,0-18.09,2.43-18.41,5.42"/></g><path class="cls-10" d="M187.93,111.56l-7.91-1.2a3.51,3.51,0,0,1-2.93-4h0a3.5,3.5,0,0,1,4-2.93l7.91,1.2a3.51,3.51,0,0,1,2.93,4h0A3.5,3.5,0,0,1,187.93,111.56Z"/><path class="cls-10" d="M115.28,110.83l-7.72,2.09a3.51,3.51,0,0,1-4.3-2.46h0a3.51,3.51,0,0,1,2.46-4.29l7.72-2.09a3.51,3.51,0,0,1,4.3,2.46h0A3.51,3.51,0,0,1,115.28,110.83Z"/><path class="cls-13" d="M115.5,155.5s0-14,14-13l18,4s3,1,5,0l15-4s6-2,10,1c0,0,7,4,7,12,0,0,2,13-12,14,0,0-6,1-8-1l-11-4a21.12,21.12,0,0,0-12,0s-11,6-14,5C127.5,169.5,115.5,168.5,115.5,155.5Z"/><path class="cls-14" d="M139.27,165.69s-5.67-8.81-1.56-11.65c0,0,5.07-1.81,7,1.26,0,0,4.77,6.18,11,.42,0,0,3.11-2.89,5.07-1.81,0,0,7,1.26-.49,13C160.24,166.9,148.46,160.61,139.27,165.69Z"/><g id="hår_copy_14" data-name="hår copy 14"><path class="cls-12" d="M5,171s28,32,45-7V89s6-38,46-40c0,0,50-53,105,0,0,0,43,0,45,40l1,73s14,41,46,10c0,0,4,52-44,53,0,0-54,8-47-70,0,0,12-18,11-49,0,0-32-36-33-54,0,0-46,67-87,59l-9,2s1,24,11,41c0,0,15,72-47,71C48,225,3,228,5,171Z"/></g><ellipse class="cls-11" cx="105.25" cy="141.75" rx="5.75" ry="2.75" transform="translate(-63.35 194.13) rotate(-70.66)"/><ellipse class="cls-11" cx="106.25" cy="129.75" rx="5.75" ry="2.75" transform="translate(-57.5 165.94) rotate(-63.15)"/><ellipse class="cls-11" cx="191.25" cy="141.75" rx="2.75" ry="5.75" transform="translate(-37.57 76.08) rotate(-20.53)"/><ellipse class="cls-11" cx="192.25" cy="129.75" rx="2.75" ry="5.75" transform="translate(-39.12 113.51) rotate(-30)"/></symbol><symbol id="_16" data-name="16" viewBox="0 0 300 250"><g id="background_copy_15" data-name="background copy 15"><rect class="cls-1" width="300" height="250"/></g><ellipse class="cls-2" cx="149.2" cy="104.46" rx="71.73" ry="77.54"/><path class="cls-3" d="M142,130h14a7,7,0,0,1-14,0Z"/><g id="øje2_copy_14" data-name="øje2 copy 14"><path class="cls-4" d="M190.06,118.12s-14.13-.05-20.89,5c0,0,19-.1,19.71,2.82"/><path class="cls-4" d="M108.37,119.2s13.43-1.93,20.46,2.2c0,0-18.09,2.43-18.41,5.42"/></g><path class="cls-10" d="M189.93,115.56l-7.91-1.2a3.51,3.51,0,0,1-2.93-4h0a3.5,3.5,0,0,1,4-2.93l7.91,1.2a3.51,3.51,0,0,1,2.93,4h0A3.5,3.5,0,0,1,189.93,115.56Z"/><path class="cls-10" d="M115.28,114.83l-7.72,2.09a3.51,3.51,0,0,1-4.3-2.46h0a3.51,3.51,0,0,1,2.46-4.29l7.72-2.09a3.51,3.51,0,0,1,4.3,2.46h0A3.51,3.51,0,0,1,115.28,114.83Z"/><path class="cls-13" d="M119.5,154.91s0-12.37,12.37-11.49l15.9,3.54s2.65.88,4.42,0l13.25-3.54s5.3-1.76,8.84.89c0,0,6.18,3.53,6.18,10.6,0,0,1.77,11.49-10.6,12.37,0,0-5.3.88-7.07-.88l-9.72-3.54a18.62,18.62,0,0,0-10.6,0s-9.72,5.3-12.37,4.42C130.1,167.28,119.5,166.4,119.5,154.91Z"/><path class="cls-14" d="M140.5,163.91s-5-7.78-1.37-10.29c0,0,4.48-1.6,6.14,1.11,0,0,4.22,5.47,9.71.37,0,0,2.75-2.55,4.49-1.6,0,0,6.14,1.12-.44,11.48C159,165,148.62,159.43,140.5,163.91Z"/><g id="hår_copy_15" data-name="hår copy 15"><path class="cls-12" d="M5,171s28,32,45-7V89s6-38,46-40c0,0,50-53,105,0,0,0,43,0,45,40l1,73s14,41,46,10c0,0,4,52-44,53,0,0-54,8-47-70,0,0,12-18,11-49,0,0-32-36-33-54,0,0-46,67-87,59l-9,2s1,24,11,41c0,0,15,72-47,71C48,225,3,228,5,171Z"/></g><ellipse class="cls-11" cx="103.25" cy="158.75" rx="5.75" ry="2.75" transform="translate(-80.73 203.61) rotate(-70.66)"/><ellipse class="cls-11" cx="102.25" cy="145.75" rx="5.75" ry="2.75" transform="translate(-73.97 171.14) rotate(-63.15)"/><ellipse class="cls-11" cx="103.25" cy="122.75" rx="5.75" ry="2.75" transform="translate(-56.56 108.96) rotate(-45)"/><ellipse class="cls-11" cx="194.25" cy="157.75" rx="2.75" ry="5.75" transform="translate(-42.99 78.15) rotate(-20.53)"/><ellipse class="cls-11" cx="194.25" cy="143.75" rx="2.75" ry="5.75" transform="translate(-45.85 116.38) rotate(-30)"/><ellipse class="cls-11" cx="193.25" cy="121.75" rx="2.75" ry="5.75" transform="matrix(0.66, -0.75, 0.75, 0.66, -25.46, 187.6)"/><ellipse class="cls-11" cx="192.25" cy="130.75" rx="2.75" ry="5.75" transform="translate(-39.62 113.64) rotate(-30)"/><ellipse class="cls-11" cx="108.25" cy="130.75" rx="5.75" ry="2.75" transform="translate(-59.11 159.12) rotate(-60)"/></symbol><symbol id="_17" data-name="17" viewBox="0 0 300 250"><g id="background_copy_16" data-name="background copy 16"><rect class="cls-1" width="300" height="250"/></g><ellipse class="cls-2" cx="149.2" cy="104.46" rx="71.73" ry="77.54"/><path class="cls-3" d="M142,130h14a7,7,0,0,1-14,0Z"/><g id="øje2_copy_15" data-name="øje2 copy 15"><path class="cls-4" d="M190.06,118.12s-14.13-.05-20.89,5c0,0,19-.1,19.71,2.82"/><path class="cls-4" d="M108.37,119.2s13.43-1.93,20.46,2.2c0,0-18.09,2.43-18.41,5.42"/></g><path class="cls-10" d="M187.93,111.56l-7.91-1.2a3.51,3.51,0,0,1-2.93-4h0a3.5,3.5,0,0,1,4-2.93l7.91,1.2a3.51,3.51,0,0,1,2.93,4h0A3.5,3.5,0,0,1,187.93,111.56Z"/><path class="cls-10" d="M115.28,110.83l-7.72,2.09a3.51,3.51,0,0,1-4.3-2.46h0a3.51,3.51,0,0,1,2.46-4.29l7.72-2.09a3.51,3.51,0,0,1,4.3,2.46h0A3.51,3.51,0,0,1,115.28,110.83Z"/><path class="cls-13" d="M115.5,155.5s0-14,14-13l18,4s3,1,5,0l15-4s6-2,10,1c0,0,7,4,7,12,0,0,2,13-12,14,0,0-6,1-8-1l-11-4a21.12,21.12,0,0,0-12,0s-11,6-14,5C127.5,169.5,115.5,168.5,115.5,155.5Z"/><path class="cls-14" d="M139.27,165.69s-5.67-8.81-1.56-11.65c0,0,5.07-1.81,7,1.26,0,0,4.77,6.18,11,.42,0,0,3.11-2.89,5.07-1.81,0,0,7,1.26-.49,13C160.24,166.9,148.46,160.61,139.27,165.69Z"/><g id="hår_copy_16" data-name="hår copy 16"><path class="cls-12" d="M5,171s28,32,45-7V89s6-38,46-40c0,0,50-53,105,0,0,0,43,0,45,40l1,73s14,41,46,10c0,0,4,52-44,53,0,0-54,8-47-70,0,0,12-18,11-49,0,0-32-36-33-54,0,0-46,67-87,59l-9,2s1,24,11,41c0,0,15,72-47,71C48,225,3,228,5,171Z"/></g><ellipse class="cls-11" cx="102.25" cy="163.75" rx="5.75" ry="2.75" transform="translate(-86.12 206.02) rotate(-70.66)"/><ellipse class="cls-11" cx="101.25" cy="151.75" rx="5.75" ry="2.75" transform="translate(-79.87 173.54) rotate(-63.15)"/><ellipse class="cls-11" cx="217.3" cy="146.74" rx="2.75" ry="5.75" transform="translate(-44.84 152.76) rotate(-35.35)"/><ellipse class="cls-11" cx="212.32" cy="135.92" rx="2.75" ry="5.75" transform="translate(-21.93 229.09) rotate(-54.31)"/><ellipse class="cls-11" cx="195.94" cy="121.2" rx="5.75" ry="2.75" transform="translate(-8.76 15.46) rotate(-4.42)"/><ellipse class="cls-11" cx="201.65" cy="128.23" rx="2.75" ry="5.75" transform="matrix(0.25, -0.97, 0.97, 0.25, 26.88, 291.21)"/><ellipse class="cls-11" cx="78.58" cy="148.74" rx="5.75" ry="2.75" transform="translate(-89.27 159.93) rotate(-65.97)"/><ellipse class="cls-11" cx="87.55" cy="136.92" rx="5.75" ry="2.75" transform="translate(-69.58 95.42) rotate(-42.61)"/><ellipse class="cls-11" cx="103.93" cy="122.2" rx="2.75" ry="5.75" transform="translate(-25.91 216.41) rotate(-85.58)"/><ellipse class="cls-11" cx="98.22" cy="129.23" rx="5.75" ry="2.75" transform="translate(-29.31 28.82) rotate(-14.55)"/><ellipse class="cls-11" cx="195.46" cy="167.54" rx="2.75" ry="5.75" transform="translate(-53.52 102.11) rotate(-25.88)"/><ellipse class="cls-11" cx="194.16" cy="153.6" rx="2.75" ry="5.75" transform="translate(-53.07 140.64) rotate(-35.35)"/><ellipse class="cls-11" cx="191.11" cy="131.79" rx="2.75" ry="5.75" transform="translate(-27.42 210.14) rotate(-54.31)"/><ellipse class="cls-11" cx="190.96" cy="140.85" rx="2.75" ry="5.75" transform="translate(-46.28 136.44) rotate(-35.35)"/><ellipse class="cls-11" cx="105.25" cy="136.75" rx="5.75" ry="2.75" transform="translate(-65.8 159.52) rotate(-60)"/></symbol><symbol id="_18" data-name="18" viewBox="0 0 300 250"><g id="background_copy_17" data-name="background copy 17"><rect class="cls-1" width="300" height="250"/></g><ellipse class="cls-2" cx="149.2" cy="104.46" rx="71.73" ry="77.54"/><path class="cls-3" d="M142,130h14a7,7,0,0,1-14,0Z"/><g id="øje2_copy_16" data-name="øje2 copy 16"><path class="cls-4" d="M190.06,118.12s-14.13-.05-20.89,5c0,0,19-.1,19.71,2.82"/><path class="cls-4" d="M108.37,119.2s13.43-1.93,20.46,2.2c0,0-18.09,2.43-18.41,5.42"/></g><path class="cls-10" d="M187.93,115.56l-7.91-1.2a3.51,3.51,0,0,1-2.93-4h0a3.5,3.5,0,0,1,4-2.93l7.91,1.2a3.51,3.51,0,0,1,2.93,4h0A3.5,3.5,0,0,1,187.93,115.56Z"/><path class="cls-10" d="M115.28,113.83l-7.72,2.09a3.51,3.51,0,0,1-4.3-2.46h0a3.51,3.51,0,0,1,2.46-4.29l7.72-2.09a3.51,3.51,0,0,1,4.3,2.46h0A3.51,3.51,0,0,1,115.28,113.83Z"/><path class="cls-13" d="M118.5,153.9s0-12.36,12.36-11.48L146.75,146s2.65.89,4.41,0l13.25-3.53s5.29-1.76,8.82.89c0,0,6.18,3.53,6.18,10.59,0,0,1.77,11.48-10.59,12.36,0,0-5.3.88-7.06-.88l-9.71-3.54a18.72,18.72,0,0,0-10.6,0s-9.71,5.3-12.36,4.42C129.09,166.26,118.5,165.38,118.5,153.9Z"/><path class="cls-14" d="M139.48,162.89s-5-7.77-1.37-10.28c0,0,4.48-1.6,6.14,1.11,0,0,4.21,5.46,9.7.37,0,0,2.75-2.55,4.48-1.6,0,0,6.14,1.12-.43,11.47C158,164,147.6,158.41,139.48,162.89Z"/><g id="hår_copy_17" data-name="hår copy 17"><path class="cls-12" d="M5,171s28,32,45-7V89s6-38,46-40c0,0,50-53,105,0,0,0,43,0,45,40l1,73s14,41,46,10c0,0,4,52-44,53,0,0-54,8-47-70,0,0,12-18,11-49,0,0-32-36-33-54,0,0-46,67-87,59l-9,2s1,24,11,41c0,0,15,72-47,71C48,225,3,228,5,171Z"/></g><ellipse class="cls-11" cx="94.25" cy="175.75" rx="5.75" ry="2.75" transform="translate(-102.79 206.49) rotate(-70.66)"/><ellipse class="cls-11" cx="93.25" cy="163.75" rx="5.75" ry="2.75" transform="translate(-94.96 172.98) rotate(-63.15)"/><ellipse class="cls-11" cx="228.53" cy="166.26" rx="2.75" ry="5.75" transform="translate(-50.73 122.9) rotate(-27.21)"/><ellipse class="cls-11" cx="225.13" cy="154.84" rx="2.75" ry="5.75" transform="translate(-42.47 210.07) rotate(-46.18)"/><ellipse class="cls-11" cx="211" cy="137.95" rx="2.75" ry="5.75" transform="translate(59.67 339.57) rotate(-86.28)"/><ellipse class="cls-11" cx="215.66" cy="145.72" rx="2.75" ry="5.75" transform="translate(-1.95 288.5) rotate(-67.32)"/><ellipse class="cls-11" cx="224.13" cy="137.92" rx="2.75" ry="5.75" transform="translate(-22.34 230.16) rotate(-52.12)"/><ellipse class="cls-11" cx="216.24" cy="129" rx="2.75" ry="5.75" transform="translate(24.14 291.77) rotate(-71.09)"/><ellipse class="cls-11" cx="195.31" cy="121.63" rx="2.75" ry="5.75" transform="translate(45.58 296.33) rotate(-81.31)"/><ellipse class="cls-11" cx="203.81" cy="124.71" rx="5.75" ry="2.75" transform="matrix(1, -0.04, 0.04, 1, -4.7, 8.02)"/><ellipse class="cls-11" cx="72.46" cy="136.92" rx="5.75" ry="2.75" transform="translate(-68.8 73.33) rotate(-37.88)"/><ellipse class="cls-11" cx="80.34" cy="128" rx="5.75" ry="2.75" transform="translate(-37.14 32.94) rotate(-18.91)"/><ellipse class="cls-11" cx="101.28" cy="120.63" rx="5.75" ry="2.75" transform="translate(-17.06 16.68) rotate(-8.69)"/><ellipse class="cls-11" cx="92.78" cy="123.71" rx="2.75" ry="5.75" transform="translate(-34.44 211.61) rotate(-87.77)"/><ellipse class="cls-11" cx="66.58" cy="165.74" rx="5.75" ry="2.75" transform="translate(-111.91 159.05) rotate(-65.97)"/><ellipse class="cls-11" cx="75.55" cy="153.92" rx="5.75" ry="2.75" transform="translate(-84.26 91.79) rotate(-42.61)"/><ellipse class="cls-11" cx="91.93" cy="139.2" rx="2.75" ry="5.75" transform="translate(-53.94 220.14) rotate(-85.58)"/><ellipse class="cls-11" cx="86.22" cy="146.23" rx="5.75" ry="2.75" transform="translate(-33.97 26.35) rotate(-14.55)"/><ellipse class="cls-11" cx="204.14" cy="179.44" rx="2.75" ry="5.75" transform="translate(-60.67 118.22) rotate(-28.3)"/><ellipse class="cls-11" cx="202.25" cy="165.56" rx="2.75" ry="5.75" transform="translate(-59.03 158.56) rotate(-37.77)"/><ellipse class="cls-11" cx="199.28" cy="131.9" rx="2.75" ry="5.75" transform="translate(-20.31 226.19) rotate(-56.74)"/><ellipse class="cls-11" cx="194.28" cy="139.9" rx="2.75" ry="5.75" transform="translate(-43.92 115.88) rotate(-30)"/><ellipse class="cls-11" cx="198.51" cy="152.95" rx="2.75" ry="5.75" transform="translate(-52.09 153.63) rotate(-37.77)"/><ellipse class="cls-11" cx="102.25" cy="149.75" rx="5.75" ry="2.75" transform="translate(-78.56 163.43) rotate(-60)"/><ellipse class="cls-11" cx="104.25" cy="127.75" rx="5.75" ry="2.75" transform="translate(-58.96 104.3) rotate(-42.61)"/><ellipse class="cls-11" cx="94.25" cy="130.75" rx="5.75" ry="2.75" transform="translate(-63.63 98.33) rotate(-42.61)"/></symbol><symbol id="_20" data-name="20" viewBox="0 0 300 250.5"><g id="background_copy_19" data-name="background copy 19"><rect class="cls-1" width="300" height="250"/></g><ellipse class="cls-2" cx="149.2" cy="104.46" rx="71.73" ry="77.54"/><path class="cls-3" d="M142,130h14a7,7,0,0,1-14,0Z"/><g id="øje2_copy_18" data-name="øje2 copy 18"><path class="cls-4" d="M190.06,118.12s-14.13-.05-20.89,5c0,0,19-.1,19.71,2.82"/><path class="cls-4" d="M108.37,119.2s13.43-1.93,20.46,2.2c0,0-18.09,2.43-18.41,5.42"/></g><path class="cls-10" d="M188.93,115.56l-7.91-1.2a3.51,3.51,0,0,1-2.93-4h0a3.5,3.5,0,0,1,4-2.93l7.91,1.2a3.51,3.51,0,0,1,2.93,4h0A3.5,3.5,0,0,1,188.93,115.56Z"/><path class="cls-10" d="M115.28,114.83l-7.72,2.09a3.51,3.51,0,0,1-4.3-2.46h0a3.51,3.51,0,0,1,2.46-4.29l7.72-2.09a3.51,3.51,0,0,1,4.3,2.46h0A3.51,3.51,0,0,1,115.28,114.83Z"/><path class="cls-13" d="M119.5,153.9s0-12.36,12.36-11.48L147.75,146s2.65.89,4.41,0l13.25-3.53s5.29-1.76,8.82.89c0,0,6.18,3.53,6.18,10.59,0,0,1.77,11.48-10.59,12.36,0,0-5.3.88-7.06-.88l-9.71-3.54a18.72,18.72,0,0,0-10.6,0s-9.71,5.3-12.36,4.42C130.09,166.26,119.5,165.38,119.5,153.9Z"/><path class="cls-14" d="M140.48,162.89s-5-7.77-1.37-10.28c0,0,4.48-1.6,6.14,1.11,0,0,4.21,5.46,9.7.37,0,0,2.75-2.55,4.48-1.6,0,0,6.14,1.12-.43,11.47C159,164,148.6,158.41,140.48,162.89Z"/><g id="hår_copy_19" data-name="hår copy 19"><path class="cls-12" d="M5,171s28,32,45-7V89s6-38,46-40c0,0,50-53,105,0,0,0,43,0,45,40l1,73s14,41,46,10c0,0,4,52-44,53,0,0-54,8-47-70,0,0,12-18,11-49,0,0-32-36-33-54,0,0-46,67-87,59l-9,2s1,24,11,41c0,0,15,72-47,71C48,225,3,228,5,171Z"/></g><path class="cls-15" d="M187.5,121.63s58.65,4.16,66.33,66.52l7.67,62.35H205.59S208.88,141.12,187.5,121.63Z"/><path class="cls-16" d="M205.78,138.82c.17.79.53,2,.09,2.73s-1.21.32-2,.52c-1.59.41-1.81,2-1.52,3.42.41,1.88,3.3,1.08,2.9-.8,0-.4-.21-.29-.51.31a1.61,1.61,0,0,0,.58.05,3.15,3.15,0,0,0,1.09-.21,3.85,3.85,0,0,0,1.84-1.47c1.09-1.62.81-3.55.41-5.35s-3.31-1.09-2.89.8Z"/><path class="cls-16" d="M217.28,145.13c1.75,2.61,4.22,6.38.76,8.81-1.23.86-2.8,1-3.71,2.35s-.46,1.85-.45,3.17l.35,1a4.09,4.09,0,0,1-3.43,1.63,37,37,0,0,1-4.71.13c-1.93.06-1.94,3.06,0,3,2.94-.08,7.62.69,10-1.52s-.27-4.86,1.89-6.43,4-1.88,4.67-4.86c.71-3.26-1-6.17-2.77-8.78-1.07-1.59-3.67-.09-2.59,1.52Z"/><path class="cls-16" d="M230.36,154.51a19.39,19.39,0,0,0,1,3.81c.77,2.43,1.09.91.23,4.59-.81,3.52-1.82,3.52-5.13,4.32a1.52,1.52,0,0,0-.9,2.2q2.19,2.4-.32,4.4c-.32,2-1.09,2.51-2.33,1.67-.45.1-1-.12-1.49,0a3,3,0,0,0-2.09,1.61c-.45,1.14-.16,3.28-.46,4.44-.8,3.07-2.32,3.41-5,4.51-1.06.43-2.09.84-3.14,1.3-1.76.79-.23,3.38,1.52,2.59,3.21-1.43,7.12-2.23,9.29-5.26a6.87,6.87,0,0,0,1.39-4.18c-.11-2.13-1.06-1.4.73-1.55,2.4-.19,4,.24,5.46-2.31,1.68-2.86.36-6-.93-8.72l-.89,2.2c3.24-.78,7-1.92,8.34-5.34,1.54-3.89-1.86-6.59-2.29-10.27-.22-1.9-3.22-1.92-3,0Z"/><path class="cls-16" d="M241.55,172.18c1.52,4.16,2.53,7.7-2.39,10.07-1,.49-2,.3-2.87,1.3-1,1.17-.68,2.12-.72,3.53-.08,2.7-.11,3.59-2.89,3.6-2.48,0-4,.43-5.12,2.74-2.05,4.28-6.1,18-13.81,14.63-1.75-.76-3.28,1.82-1.51,2.59,5.18,2.25,9.2-.63,12.34-4.77a40.29,40.29,0,0,0,5.14-8.93c1.94-4.63,2.62-2.2,6.34-3.33a3.93,3.93,0,0,0,2.86-2.89c.3-1.06-.26-1.92-.17-2.93.22-2.33-.79-1.47,2.27-2.79,5.95-2.55,5.39-8.26,3.42-13.61-.66-1.8-3.56-1-2.89.79Z"/><path class="cls-16" d="M249.23,194.36a17.46,17.46,0,0,0-.37,3.22c-.09,2.6.23,2.7-1.54,5.28-2.15,3.12-1.51,2.09-4.43,2.79a11,11,0,0,0-2.88,1.14,1.55,1.55,0,0,0-.53,2.06c2.56,6.07-3.24,3.8-5.2,4.25a8.87,8.87,0,0,0-4.41,3.06c-3.31,3.74-9.18,16.54-15.79,9.54-1.33-1.4-3.45.72-2.12,2.12,6,6.36,13.54.08,17.2-5.39A21,21,0,0,1,231.4,219l5.48-2.84a5,5,0,0,0,1.35.35c1.47-.15,2.13.23,3.44-.86,2.68-2.21,1.51-5.72.4-8.36l-.54,2c3.09-1.67,6.92-.62,9.16-3.83,2.1-3,.8-7,1.43-10.4.36-1.88-2.53-2.69-2.89-.79Z"/><path class="cls-16" d="M251.86,222.1c-.24,1.72-.49,3.42-.81,5.12-.62,3.26-.59,4.35-3.37,6.39-3.6,2.63-8.59,2.3-13,2.73a1.52,1.52,0,0,0-1.45,1.9c.85,1.22.48,2.23-1.1,3q-.93,2.82-2.85,1.23c-1-.2-1.74-1.26-2.7-1.38-1.33-.16-2.28.44-3.49.88a9.8,9.8,0,0,1-6.4.44c-.47-.16-.67-1-1.22-1.14-1.69-.5-1.7-.66-3.29.17s-.19,3.48,1.52,2.59c.28-.15,2.43,2,2.9,2.19a5.87,5.87,0,0,0,3.16.33,15.48,15.48,0,0,0,3.41-1.24c3.55-1.33,3.7-.18,6.61.63,6.22,1.73,8.22-3.37,6.34-8.51l-1.44,1.9c4.46-.44,11.74.32,15.57-2.49s3.91-9.78,4.48-13.95c.26-1.89-2.63-2.7-2.89-.8Z"/><path class="cls-16" d="M200,129.43a2.12,2.12,0,0,1-2.23,2.4c-1.92-.11-1.92,2.89,0,3a5.16,5.16,0,0,0,5.13-6.2c-.41-1.89-3.31-1.09-2.9.8Z"/><path class="cls-15" d="M112.5,121.63s-58.65,4.16-66.33,66.52L38.5,250.5H94.41S91.12,141.12,112.5,121.63Z"/><path class="cls-16" d="M91.33,138c-.39,1.79-.69,3.75.41,5.35a4,4,0,0,0,1.66,1.4,3.19,3.19,0,0,0,1.1.28,2.37,2.37,0,0,0,.75-.05c-.3-.6-.47-.71-.51-.31-.4,1.88,2.49,2.68,2.9.8.29-1.39.08-3-1.52-3.42-.72-.19-1.37.23-1.89-.38s-.18-2.09,0-2.87c.42-1.89-2.47-2.69-2.89-.8Z"/><path class="cls-16" d="M80.13,143.61c-1.66,2.48-3.32,5.2-2.86,8.3.47,3.28,2.46,3.68,4.76,5.34,2,1.46-.17,4,1.6,6.07,2.2,2.62,7.29,1.8,10.28,1.88,1.93.06,1.93-2.94,0-3a32,32,0,0,1-4-.12,3,3,0,0,1-2.72-.84c-1.4-.21-1.74-.8-1-1.78-.13-1.26.36-2-.45-3.17-.92-1.36-2.46-1.46-3.71-2.35-3.38-2.41-1-6.22.76-8.81,1.08-1.61-1.52-3.11-2.59-1.52Z"/><path class="cls-16" d="M66.64,154.51c-.44,3.72-3.78,6.34-2.29,10.27,1.29,3.42,5.15,4.57,8.34,5.34l-.89-2.2c-1.18,2.5-2.52,5.46-1.23,8.21,1.36,2.91,3.17,2.63,5.76,2.82,1.74.13.84-.68.73,1.55a6.53,6.53,0,0,0,1.06,3.64c2.08,3.45,6.2,4.27,9.62,5.8,1.75.78,3.28-1.8,1.52-2.59-2.34-1-5.83-1.64-7.59-3.54-3.88-4.2.06-3.83-1-6.71a2.93,2.93,0,0,0-1.89-1.58c-.55-.16-1.18.1-1.69,0l-1,.38q-4.32-2.92-1.65-6.45a1.52,1.52,0,0,0-.9-2.2c-1.16-.28-3.72-.61-4.48-1.5-1.65-1.94-1-5.39-.42-7.41a20.44,20.44,0,0,0,1-3.81c.22-1.92-2.78-1.9-3,0Z"/><path class="cls-16" d="M55.56,171.39C53.6,176.73,53,182.45,59,185c2.39,1,2.06.21,2.27,2.79.08,1-.47,1.87-.17,2.93a3.89,3.89,0,0,0,2.86,2.89c3.54,1.07,4.45-1.18,6.34,3.33a39.91,39.91,0,0,0,5.14,8.93c3.15,4.12,7.15,7,12.34,4.77,1.77-.77.24-3.35-1.51-2.59-7.53,3.27-11.86-10.14-13.74-14.45-1.05-2.43-2.64-2.91-5.19-2.92-2.72,0-2.79-1-2.89-3.6-.05-1.17.23-2.09-.46-3.14s-1.56-1.11-2.6-1.61c-1.3-.63-3.37-1.47-4.15-2.92-.94-1.78.61-5.53,1.23-7.23s-2.23-2.59-2.89-.79Z"/><path class="cls-16" d="M47.88,195.15c.63,3.38-.68,7.37,1.43,10.4,2.24,3.2,6.08,2.16,9.16,3.83l-.54-2c-1.09,2.59-2.23,6,.24,8.25,1.19,1.08,2.06.74,3.4,1,3.85.72-1.66-6.52,7,2.46a24,24,0,0,1,2.24,3.39C74.5,227.89,82,234.19,88,227.82c1.33-1.4-.79-3.52-2.12-2.12-6.57,7-12.49-5.78-15.79-9.54a9.11,9.11,0,0,0-3.74-2.79c-2.14-.76-8.21,1-5.87-4.52a1.55,1.55,0,0,0-.53-2.06,9,9,0,0,0-2.88-1.14c-2.66-.69-2.41.14-4.43-2.79s-1.47-2.4-1.54-5.28a19.49,19.49,0,0,0-.37-3.22c-.36-1.9-3.25-1.1-2.89.79Z"/><path class="cls-16" d="M45.25,222.9c.58,4.23.7,11.07,4.48,13.95s11.17,2.06,15.57,2.49l-1.44-1.9C62,242.58,64,247.68,70.2,246c2.91-.81,3.06-2,6.61-.63a15.48,15.48,0,0,0,3.41,1.24,5.87,5.87,0,0,0,3.16-.33c.47-.22,2.62-2.34,2.9-2.19,1.71.89,3.23-1.7,1.52-2.59-1.43-.74-1.58-.64-3.11-.24-.46.12-.65.65-1,.79a9.36,9.36,0,0,1-6.77,0,7.84,7.84,0,0,0-3.29-.91c-.63.05-1.06.59-1.6.84l-2.6,1.14q-4.34-1.86-2.65-4.81a1.52,1.52,0,0,0-1.45-1.9c-4.42-.43-9.36-.09-13-2.73-2.64-1.93-2.59-2.53-3.2-5.54-.4-2-.7-4-1-6s-3.15-1.09-2.89.8Z"/><path class="cls-16" d="M97.14,128.63a5.16,5.16,0,0,0,5.13,6.2c1.91-.11,1.93-3.11,0-3a2.12,2.12,0,0,1-2.23-2.4c.4-1.89-2.49-2.69-2.9-.8Z"/></symbol></defs><title>grlsad</title><g id="Layer_2" data-name="Layer 2"><g id="pige_ked18" data-name="pige ked18"><g id="ansigt_copy_18" data-name="ansigt copy 18"><use width="300" height="250" xlink:href="#_01"/><use width="300" height="250.5" transform="translate(6000)" xlink:href="#_21"/><use width="300" height="250" transform="translate(300)" xlink:href="#_02"/><use width="300" height="250" transform="translate(600)" xlink:href="#_03"/><use width="300" height="250" transform="translate(900)" xlink:href="#_04"/><use width="300" height="250" transform="translate(1200)" xlink:href="#_05"/><use width="300" height="250" transform="translate(1500)" xlink:href="#_06"/><use width="300" height="250" transform="translate(1800)" xlink:href="#_07"/><use width="300" height="250" transform="translate(2100)" xlink:href="#_08"/><use width="300" height="250" transform="translate(2400)" xlink:href="#_09"/><use width="300" height="250" transform="translate(2700)" xlink:href="#_10"/><use width="300" height="250" transform="translate(3000)" xlink:href="#_11"/><use width="300" height="250" transform="translate(3300)" xlink:href="#_12"/><use width="300" height="250" transform="translate(3600)" xlink:href="#_13"/><use width="300" height="250" transform="translate(3900)" xlink:href="#_14"/><use width="300" height="250" transform="translate(4200)" xlink:href="#_15"/><use width="300" height="250" transform="translate(4500)" xlink:href="#_16"/><use width="300" height="250" transform="translate(4800)" xlink:href="#_17"/><use width="300" height="250" transform="translate(5100)" xlink:href="#_18"/><use width="300" height="250.5" transform="translate(5400)" xlink:href="#_21"/><use width="300" height="250.5" transform="translate(5700)" xlink:href="#_20"/></g></g></g></svg>
