<svg xmlns="http://www.w3.org/2000/svg" xmlns:xlink="http://www.w3.org/1999/xlink" viewBox="0 0 2400 600"><defs><style>.cls-1,.cls-15,.cls-6{fill:none;}.cls-16,.cls-2,.cls-3{fill:#fff;}.cls-10,.cls-12,.cls-13,.cls-14,.cls-15,.cls-2,.cls-3,.cls-4,.cls-5,.cls-6,.cls-7,.cls-8,.cls-9{stroke:#000;stroke-miterlimit:10;}.cls-2{stroke-width:0.25px;}.cls-13,.cls-15,.cls-3,.cls-7,.cls-9{stroke-width:2px;}.cls-11,.cls-4{fill:#16456a;}.cls-10,.cls-12,.cls-14,.cls-4,.cls-5,.cls-6,.cls-8{stroke-width:3px;}.cls-5{fill:#7f7f7f;}.cls-8,.cls-9{fill:#f4e8cd;}.cls-10{fill:#686868;}.cls-12{fill:#99b88e;}.cls-13,.cls-14{fill:#795d47;}.cls-17{fill:#333;}.cls-18{fill:#1a1a1a;}</style><symbol id="Boymod01" data-name="Boymod01" viewBox="0 0 300 500"><rect class="cls-1" width="300" height="500"/><path d="M176.61,463.87h53.24a1.14,1.14,0,0,0,1.15-1.15V462a22.41,22.41,0,0,0-22.41-22.41h-32a1.15,1.15,0,0,0-1.14,1.15v22A1.14,1.14,0,0,0,176.61,463.87Z"/><path d="M89.41,440.44h32a1.15,1.15,0,0,1,1.15,1.15v22a1.15,1.15,0,0,1-1.15,1.15H68.15A1.15,1.15,0,0,1,67,463.59v-.74a22.41,22.41,0,0,1,22.41-22.41Z"/><path class="cls-2" d="M90.79,455.5l-1,.17a1,1,0,0,1-1.15-.82l-1.57-9.15a1,1,0,0,1,.82-1.15l1-.17a1,1,0,0,1,1.16.82l1.56,9.15A1,1,0,0,1,90.79,455.5Z"/><path class="cls-2" d="M95.45,454.63l-1,.17a1,1,0,0,1-1.15-.82l-1.56-9.15a1,1,0,0,1,.81-1.15l1-.17a1,1,0,0,1,1.15.82l1.56,9.15A1,1,0,0,1,95.45,454.63Z"/><path class="cls-2" d="M100.1,453.76l-1,.17a1,1,0,0,1-1.16-.82L96.4,444a1,1,0,0,1,.82-1.15l1-.17a1,1,0,0,1,1.15.82l1.57,9.14A1,1,0,0,1,100.1,453.76Z"/><path class="cls-2" d="M209.15,455.5l1,.17a1,1,0,0,0,1.15-.82l1.56-9.15a1,1,0,0,0-.81-1.15l-1-.17a1,1,0,0,0-1.16.82l-1.56,9.15A1,1,0,0,0,209.15,455.5Z"/><path class="cls-2" d="M204.5,454.63l1,.17a1,1,0,0,0,1.16-.82l1.56-9.15a1,1,0,0,0-.82-1.15l-1-.17a1,1,0,0,0-1.15.82l-1.57,9.15A1,1,0,0,0,204.5,454.63Z"/><path class="cls-2" d="M199.85,453.76l1,.17a1,1,0,0,0,1.15-.82l1.57-9.15a1,1,0,0,0-.82-1.15l-1-.17a1,1,0,0,0-1.16.82L199,452.6A1,1,0,0,0,199.85,453.76Z"/><rect class="cls-3" x="67" y="458.66" width="55.53" height="6.07"/><rect class="cls-3" x="175.47" y="457.8" width="55.53" height="6.07"/><path class="cls-4" d="M208.87,305.51v131h-32.1V378.89A24.86,24.86,0,0,0,152,354.1h-6a24.86,24.86,0,0,0-24.79,24.79v57.65H90v-131Z"/><path class="cls-5" d="M91.73,205.32s8.68-35.5,57.27-29.9c0,0,45.12-9.34,56.4,29.9l5.21,4.67V326.77H90L86.52,211.86Z"/><line class="cls-5" x1="89.56" y1="205.72" x2="117.76" y2="205.72"/><line class="cls-5" x1="208.44" y1="205.72" x2="179.8" y2="205.72"/><path class="cls-6" d="M116.46,200.08s5.21,29.5,33,27.77c0,0,30.37-1.74,32.11-26.9"/><path class="cls-6" d="M131.65,207.46"/><rect class="cls-7" x="130.78" y="207.46" width="2.6" height="39.92" rx="1.3" ry="1.3"/><rect class="cls-7" x="165.49" y="207.46" width="2.6" height="39.92" rx="1.3" ry="1.3"/><ellipse class="cls-8" cx="82.62" cy="329.9" rx="9.11" ry="16.83"/><ellipse class="cls-9" cx="92.38" cy="330.81" rx="3.25" ry="7.73"/><ellipse class="cls-8" cx="212.34" cy="329.9" rx="9.11" ry="16.83"/><ellipse class="cls-9" cx="202.58" cy="330.81" rx="3.25" ry="7.73"/><rect class="cls-5" x="200.2" y="205.72" width="23.43" height="120.99" rx="11.71" ry="11.71"/><rect class="cls-5" x="73.51" y="205.72" width="23.43" height="122.81" rx="11.71" ry="11.71"/><path class="cls-10" d="M168,280.43V280a4.81,4.81,0,0,0-4.81-4.82h-27.6a4.81,4.81,0,0,0-4.81,4.82v.47a4.82,4.82,0,0,1-4.82,4.82h-.78a4.81,4.81,0,0,0-4.81,4.82v21.47a4.81,4.81,0,0,0,4.81,4.82h47.64a4.81,4.81,0,0,0,4.81-4.82V290.07a4.81,4.81,0,0,0-4.81-4.82h0A4.82,4.82,0,0,1,168,280.43Z"/><path class="cls-12" d="M92.16,83.81s13.89-37.32,59-33.84c0,0,42.52-3.48,56.4,31.23v31.24H92.16Z"/><path class="cls-13" d="M169.39,101.59c-1.34,2.2-7.56,2.22-20,2.17-11.28,0-17-.1-18.22-2.17-3.39-5.53,6-23.86,19.09-23.86S172.79,96,169.39,101.59Z"/><rect x="127.74" y="101.16" width="45.12" height="9.54" rx="4.77" ry="4.77"/><path class="cls-14" d="M203.23,113.31s9.55,1.73,10.42,11.28c0,0,12.14,9.54.86,23.43,0,0,1.74,8.68-8.67,11.28L93,158.43s-6.94.87-8.68-9.54c0,0-12.14-10.42,0-22.56,0,0-2.6-10.42,7.81-12.15S203.23,113.31,203.23,113.31Z"/><ellipse class="cls-8" cx="149.43" cy="192.27" rx="14.32" ry="10.85"/><ellipse class="cls-9" cx="94.33" cy="134.57" rx="8.24" ry="9.11"/><ellipse class="cls-9" cx="205.4" cy="136.3" rx="8.24" ry="9.11"/><path class="cls-8" d="M94.33,113.74V158s0,11.28,9.55,15.62l20,14.75a19.22,19.22,0,0,0,11.28,3.47h32.1s8.68,0,13.89-6.94l19.95-16.49s5.21-1.74,4.34-15.62V112H94.33Z"/><circle cx="125.14" cy="135.87" r="5.21"/><circle cx="172.86" cy="135.87" r="5.21"/><rect x="159.85" y="116.78" width="26.9" height="10.41" rx="5.21" ry="5.21"/><rect x="112.12" y="116.78" width="27.77" height="10.41" rx="5.21" ry="5.21"/><path class="cls-6" d="M140.32,176.22s7.81,11.28,18.22,0"/><rect class="cls-15" x="140.76" y="136.74" width="18.22" height="26.9" rx="9.11" ry="9.11"/></symbol><symbol id="Boymob02" data-name="Boymob02" viewBox="0 0 300 500"><rect class="cls-1" width="300" height="500"/><path d="M176.61,463.87h53.24a1.14,1.14,0,0,0,1.15-1.15V462a22.41,22.41,0,0,0-22.41-22.41h-32a1.15,1.15,0,0,0-1.14,1.15v22A1.14,1.14,0,0,0,176.61,463.87Z"/><path d="M89.41,440.44h32a1.15,1.15,0,0,1,1.15,1.15v22a1.15,1.15,0,0,1-1.15,1.15H68.15A1.15,1.15,0,0,1,67,463.59v-.74a22.41,22.41,0,0,1,22.41-22.41Z"/><path class="cls-2" d="M90.79,455.5l-1,.17a1,1,0,0,1-1.15-.82l-1.57-9.15a1,1,0,0,1,.82-1.15l1-.17a1,1,0,0,1,1.16.82l1.56,9.15A1,1,0,0,1,90.79,455.5Z"/><path class="cls-2" d="M95.45,454.63l-1,.17a1,1,0,0,1-1.15-.82l-1.56-9.15a1,1,0,0,1,.81-1.15l1-.17a1,1,0,0,1,1.15.82l1.56,9.15A1,1,0,0,1,95.45,454.63Z"/><path class="cls-2" d="M100.1,453.76l-1,.17a1,1,0,0,1-1.16-.82L96.4,444a1,1,0,0,1,.82-1.15l1-.17a1,1,0,0,1,1.15.82l1.57,9.14A1,1,0,0,1,100.1,453.76Z"/><path class="cls-2" d="M209.15,455.5l1,.17a1,1,0,0,0,1.15-.82l1.56-9.15a1,1,0,0,0-.81-1.15l-1-.17a1,1,0,0,0-1.16.82l-1.56,9.15A1,1,0,0,0,209.15,455.5Z"/><path class="cls-2" d="M204.5,454.63l1,.17a1,1,0,0,0,1.16-.82l1.56-9.15a1,1,0,0,0-.82-1.15l-1-.17a1,1,0,0,0-1.15.82l-1.57,9.15A1,1,0,0,0,204.5,454.63Z"/><path class="cls-2" d="M199.85,453.76l1,.17a1,1,0,0,0,1.15-.82l1.57-9.15a1,1,0,0,0-.82-1.15l-1-.17a1,1,0,0,0-1.16.82L199,452.6A1,1,0,0,0,199.85,453.76Z"/><rect class="cls-3" x="67" y="458.66" width="55.53" height="6.07"/><rect class="cls-3" x="175.47" y="457.8" width="55.53" height="6.07"/><path class="cls-4" d="M208.87,305.51v131h-32.1V378.89A24.86,24.86,0,0,0,152,354.1h-6a24.86,24.86,0,0,0-24.79,24.79v57.65H90v-131Z"/><path class="cls-5" d="M91.73,205.32s8.68-35.5,57.27-29.9c0,0,45.12-9.34,56.4,29.9l5.21,4.67V326.77H90L86.52,211.86Z"/><line class="cls-5" x1="89.56" y1="205.72" x2="117.76" y2="205.72"/><line class="cls-5" x1="208.44" y1="205.72" x2="179.8" y2="205.72"/><path class="cls-6" d="M116.46,200.08s5.21,29.5,33,27.77c0,0,30.37-1.74,32.11-26.9"/><path class="cls-6" d="M131.65,207.46"/><rect class="cls-7" x="130.78" y="207.46" width="2.6" height="39.92" rx="1.3" ry="1.3"/><rect class="cls-7" x="165.49" y="207.46" width="2.6" height="39.92" rx="1.3" ry="1.3"/><ellipse class="cls-8" cx="82.62" cy="329.9" rx="9.11" ry="16.83"/><ellipse class="cls-9" cx="92.38" cy="330.81" rx="3.25" ry="7.73"/><ellipse class="cls-8" cx="193.15" cy="330.55" rx="16.83" ry="9.11" transform="translate(-160.27 477.74) rotate(-82.31)"/><ellipse class="cls-9" cx="183.35" cy="330.15" rx="7.73" ry="3.25" transform="translate(-168.36 467.68) rotate(-82.31)"/><path class="cls-5" d="M193.15,327.34h0a11.74,11.74,0,0,1-10-13.18l13-96.68a11.74,11.74,0,0,1,13.18-10h0a11.75,11.75,0,0,1,10,13.17L206.32,317.3A11.75,11.75,0,0,1,193.15,327.34Z"/><rect class="cls-5" x="73.51" y="205.72" width="23.43" height="122.81" rx="11.71" ry="11.71"/><path class="cls-10" d="M168,280.43V280a4.81,4.81,0,0,0-4.81-4.82h-27.6a4.81,4.81,0,0,0-4.81,4.82v.47a4.82,4.82,0,0,1-4.82,4.82h-.78a4.81,4.81,0,0,0-4.81,4.82v21.47a4.81,4.81,0,0,0,4.81,4.82h47.64a4.81,4.81,0,0,0,4.81-4.82V290.07a4.81,4.81,0,0,0-4.81-4.82h0A4.82,4.82,0,0,1,168,280.43Z"/><rect class="cls-11" x="174" y="336" width="31" height="17"/><path class="cls-12" d="M92.16,83.81s13.89-37.32,59-33.84c0,0,42.52-3.48,56.4,31.23v31.24H92.16Z"/><path class="cls-13" d="M169.39,101.59c-1.34,2.2-7.56,2.22-20,2.17-11.28,0-17-.1-18.22-2.17-3.39-5.53,6-23.86,19.09-23.86S172.79,96,169.39,101.59Z"/><rect x="127.74" y="101.16" width="45.12" height="9.54" rx="4.77" ry="4.77"/><path class="cls-14" d="M203.23,113.31s9.55,1.73,10.42,11.28c0,0,12.14,9.54.86,23.43,0,0,1.74,8.68-8.67,11.28L93,158.43s-6.94.87-8.68-9.54c0,0-12.14-10.42,0-22.56,0,0-2.6-10.42,7.81-12.15S203.23,113.31,203.23,113.31Z"/><ellipse class="cls-8" cx="149.43" cy="192.27" rx="14.32" ry="10.85"/><ellipse class="cls-9" cx="94.33" cy="134.57" rx="8.24" ry="9.11"/><ellipse class="cls-9" cx="205.4" cy="136.3" rx="8.24" ry="9.11"/><path class="cls-8" d="M94.33,113.74V158s0,11.28,9.55,15.62l20,14.75a19.22,19.22,0,0,0,11.28,3.47h32.1s8.68,0,13.89-6.94l19.95-16.49s5.21-1.74,4.34-15.62V112H94.33Z"/><circle cx="125.14" cy="135.87" r="5.21"/><circle cx="172.86" cy="135.87" r="5.21"/><rect x="159.85" y="116.78" width="26.9" height="10.41" rx="5.21" ry="5.21"/><rect x="112.12" y="116.78" width="27.77" height="10.41" rx="5.21" ry="5.21"/><path class="cls-6" d="M140.32,176.22s7.81,11.28,18.22,0"/><rect class="cls-15" x="140.76" y="136.74" width="18.22" height="26.9" rx="9.11" ry="9.11"/></symbol><symbol id="Boymob03" data-name="Boymob03" viewBox="0 0 300 500"><rect class="cls-1" width="300" height="500"/><path class="cls-5" d="M243.92,279.48a29.15,29.15,0,0,1-6.22,4.17"/><path class="cls-5" d="M246.4,276.8a19.56,19.56,0,0,1-2.48,2.68"/><path d="M176.61,463.87h53.24a1.14,1.14,0,0,0,1.15-1.15V462a22.41,22.41,0,0,0-22.41-22.41h-32a1.15,1.15,0,0,0-1.14,1.15v22A1.14,1.14,0,0,0,176.61,463.87Z"/><path d="M89.41,440.44h32a1.15,1.15,0,0,1,1.15,1.15v22a1.15,1.15,0,0,1-1.15,1.15H68.15A1.15,1.15,0,0,1,67,463.59v-.74a22.41,22.41,0,0,1,22.41-22.41Z"/><path class="cls-2" d="M90.79,455.5l-1,.17a1,1,0,0,1-1.15-.82l-1.57-9.15a1,1,0,0,1,.82-1.15l1-.17a1,1,0,0,1,1.16.82l1.56,9.15A1,1,0,0,1,90.79,455.5Z"/><path class="cls-2" d="M95.45,454.63l-1,.17a1,1,0,0,1-1.15-.82l-1.56-9.15a1,1,0,0,1,.81-1.15l1-.17a1,1,0,0,1,1.15.82l1.56,9.15A1,1,0,0,1,95.45,454.63Z"/><path class="cls-2" d="M100.1,453.76l-1,.17a1,1,0,0,1-1.16-.82L96.4,444a1,1,0,0,1,.82-1.15l1-.17a1,1,0,0,1,1.15.82l1.57,9.14A1,1,0,0,1,100.1,453.76Z"/><path class="cls-2" d="M209.15,455.5l1,.17a1,1,0,0,0,1.15-.82l1.56-9.15a1,1,0,0,0-.81-1.15l-1-.17a1,1,0,0,0-1.16.82l-1.56,9.15A1,1,0,0,0,209.15,455.5Z"/><path class="cls-2" d="M204.5,454.63l1,.17a1,1,0,0,0,1.16-.82l1.56-9.15a1,1,0,0,0-.82-1.15l-1-.17a1,1,0,0,0-1.15.82l-1.57,9.15A1,1,0,0,0,204.5,454.63Z"/><path class="cls-2" d="M199.85,453.76l1,.17a1,1,0,0,0,1.15-.82l1.57-9.15a1,1,0,0,0-.82-1.15l-1-.17a1,1,0,0,0-1.16.82L199,452.6A1,1,0,0,0,199.85,453.76Z"/><rect class="cls-3" x="67" y="458.66" width="55.53" height="6.07"/><rect class="cls-3" x="175.47" y="457.8" width="55.53" height="6.07"/><path class="cls-4" d="M208.87,305.51v131h-32.1V378.89A24.86,24.86,0,0,0,152,354.1h-6a24.86,24.86,0,0,0-24.79,24.79v57.65H90v-131Z"/><path class="cls-5" d="M91.73,205.32s8.68-35.5,57.27-29.9c0,0,45.12-9.34,56.4,29.9l5.21,4.67V326.77H90L86.52,211.86Z"/><line class="cls-5" x1="89.56" y1="205.72" x2="117.76" y2="205.72"/><line class="cls-5" x1="208.44" y1="205.72" x2="179.8" y2="205.72"/><path class="cls-6" d="M116.46,200.08s5.21,29.5,33,27.77c0,0,30.37-1.74,32.11-26.9"/><path class="cls-6" d="M131.65,207.46"/><rect class="cls-7" x="130.78" y="207.46" width="2.6" height="39.92" rx="1.3" ry="1.3"/><rect class="cls-7" x="165.49" y="207.46" width="2.6" height="39.92" rx="1.3" ry="1.3"/><ellipse class="cls-8" cx="82.62" cy="329.9" rx="9.11" ry="16.83"/><ellipse class="cls-9" cx="92.38" cy="330.81" rx="3.25" ry="7.73"/><rect class="cls-5" x="73.51" y="205.72" width="23.43" height="122.81" rx="11.71" ry="11.71"/><path class="cls-10" d="M168,280.43V280a4.81,4.81,0,0,0-4.81-4.82h-27.6a4.81,4.81,0,0,0-4.81,4.82v.47a4.82,4.82,0,0,1-4.82,4.82h-.78a4.81,4.81,0,0,0-4.81,4.82v21.47a4.81,4.81,0,0,0,4.81,4.82h47.64a4.81,4.81,0,0,0,4.81-4.82V290.07a4.81,4.81,0,0,0-4.81-4.82h0A4.82,4.82,0,0,1,168,280.43Z"/><path class="cls-5" d="M234.5,334.5"/><path class="cls-12" d="M92.16,83.81s13.89-37.32,59-33.84c0,0,42.52-3.48,56.4,31.23v31.24H92.16Z"/><path class="cls-13" d="M169.39,101.59c-1.34,2.2-7.56,2.22-20,2.17-11.28,0-17-.1-18.22-2.17-3.39-5.53,6-23.86,19.09-23.86S172.79,96,169.39,101.59Z"/><rect x="127.74" y="101.16" width="45.12" height="9.54" rx="4.77" ry="4.77"/><path class="cls-14" d="M203.23,113.31s9.55,1.73,10.42,11.28c0,0,12.14,9.54.86,23.43,0,0,1.74,8.68-8.67,11.28L93,158.43s-6.94.87-8.68-9.54c0,0-12.14-10.42,0-22.56,0,0-2.6-10.42,7.81-12.15S203.23,113.31,203.23,113.31Z"/><ellipse class="cls-8" cx="149.43" cy="192.27" rx="14.32" ry="10.85"/><ellipse class="cls-9" cx="94.33" cy="134.57" rx="8.24" ry="9.11"/><ellipse class="cls-9" cx="205.4" cy="136.3" rx="8.24" ry="9.11"/><path class="cls-8" d="M94.33,113.74V158s0,11.28,9.55,15.62l20,14.75a19.22,19.22,0,0,0,11.28,3.47h32.1s8.68,0,13.89-6.94l19.95-16.49s5.21-1.74,4.34-15.62V112H94.33Z"/><path class="cls-5" d="M246.4,276.8a15.4,15.4,0,0,0,2.67-5.43c2.08-8-2.94-15.78-5.61-19.34l-36-43.4c-2.37-2.86-8.08-1.65-12.69,2.69h0c-4.61,4.34-6.43,10.24-4,13.11l31.3,41.5-3.15,6.13c-8.47,4.42-34.08,19.19-34,37.35,0,3.86,1.2,5.31,1.7,5.83,6.31,6.59,30.19-4.86,45.17-22Z"/><circle cx="125.14" cy="135.87" r="5.21"/><circle cx="172.86" cy="135.87" r="5.21"/><rect x="159.85" y="116.78" width="26.9" height="10.41" rx="5.21" ry="5.21"/><rect x="112.12" y="116.78" width="27.77" height="10.41" rx="5.21" ry="5.21"/><path class="cls-6" d="M140.32,176.22s7.81,11.28,18.22,0"/><rect class="cls-15" x="140.76" y="136.74" width="18.22" height="26.9" rx="9.11" ry="9.11"/><path class="cls-16" d="M180.15,343.5l-.24-.16a.11.11,0,0,0-.14,0l-1.63,2.54a.1.1,0,0,0,0,.14l.23.15a.1.1,0,0,0,.14,0l1.64-2.54A.1.1,0,0,0,180.15,343.5Z"/><path d="M179.86,343.33a.1.1,0,0,0-.09,0l-1.63,2.54a.1.1,0,0,0,0,.14l.23.15.06,0a.1.1,0,0,0,.08-.05l1.64-2.54a.1.1,0,0,0,0-.13l-.24-.16Z"/><path class="cls-16" d="M171.67,351.89a4.74,4.74,0,0,1-2.55-.75l-11.4-7.34a4.73,4.73,0,0,1-1.42-6.53l18-28a4.72,4.72,0,0,1,6.52-1.41l11.41,7.34a4.72,4.72,0,0,1,1.41,6.52l-18,28a4.71,4.71,0,0,1-4,2.17Z"/><path d="M178.3,307.22a4.55,4.55,0,0,1,2.48.73l11.41,7.34a4.6,4.6,0,0,1,1.38,6.35l-18,28a4.59,4.59,0,0,1-6.35,1.38l-11.4-7.34a4.6,4.6,0,0,1-1.38-6.35l18-28a4.59,4.59,0,0,1,3.87-2.11m0-.25a4.87,4.87,0,0,0-4.08,2.22l-18,28a4.84,4.84,0,0,0,1.45,6.69l11.41,7.34a4.84,4.84,0,0,0,6.69-1.45l18-28a4.85,4.85,0,0,0-1.45-6.7l-11.41-7.34a4.84,4.84,0,0,0-2.62-.77Z"/><path class="cls-16" d="M158.07,334.29l-.22-.14a.09.09,0,0,0-.13,0l-.91,1.43a.08.08,0,0,0,0,.12l.22.15a.11.11,0,0,0,.13,0l.91-1.42A.09.09,0,0,0,158.07,334.29Z"/><path d="M157.8,334.13a.12.12,0,0,0-.08,0l-.91,1.43a.08.08,0,0,0,0,.12l.22.15h.05a.09.09,0,0,0,.08,0l.91-1.42a.09.09,0,0,0,0-.13l-.22-.14,0,0Z"/><path class="cls-16" d="M160.2,331l-.22-.14a.09.09,0,0,0-.13,0l-1.16,1.79a.11.11,0,0,0,0,.13l.22.14a.09.09,0,0,0,.13,0l1.16-1.8A.1.1,0,0,0,160.2,331Z"/><path d="M159.93,330.82a.1.1,0,0,0-.08.05l-1.16,1.79a.11.11,0,0,0,0,.13l.22.14.05,0a.12.12,0,0,0,.08,0l1.16-1.8a.1.1,0,0,0,0-.13l-.22-.14,0,0Z"/><path class="cls-16" d="M161.94,328.27l-.22-.14a.1.1,0,0,0-.13,0l-1.2,1.87a.09.09,0,0,0,0,.13l.22.14a.09.09,0,0,0,.13,0l1.2-1.87A.09.09,0,0,0,161.94,328.27Z"/><path d="M161.67,328.12a.09.09,0,0,0-.08,0l-1.2,1.87a.09.09,0,0,0,0,.13l.22.14.05,0a.1.1,0,0,0,.08-.05l1.2-1.87a.09.09,0,0,0,0-.13l-.22-.14Z"/><path d="M159.85,341.54a1.06,1.06,0,0,1-.57-.17,1,1,0,0,1-.45-.65,1,1,0,0,1,1.57-1.09,1,1,0,0,1,.46.66,1,1,0,0,1-.14.78,1,1,0,0,1-.87.47Z"/><path d="M159.84,340a.52.52,0,0,1,.29.09.55.55,0,0,1,.17.75.54.54,0,0,1-.45.24.54.54,0,0,1,0-1.08m0-1a1.54,1.54,0,0,0-.83,2.83,1.52,1.52,0,0,0,.84.25,1.53,1.53,0,0,0,.82-2.83,1.52,1.52,0,0,0-.83-.25Z"/><ellipse class="cls-8" cx="185.25" cy="317.55" rx="15.82" ry="9" transform="matrix(0.81, -0.59, 0.59, 0.81, -151.97, 171.14)"/><ellipse class="cls-9" cx="177.01" cy="311.97" rx="7.27" ry="3.22" transform="matrix(0.8, -0.6, 0.6, 0.8, -152.06, 169.24)"/></symbol><symbol id="Boymob04" data-name="Boymob04" viewBox="0 0 300 500"><rect class="cls-1" width="300" height="500"/><g id="sko_copy_8" data-name="sko copy 8"><path d="M176.61,463.87h53.24a1.14,1.14,0,0,0,1.15-1.15V462a22.41,22.41,0,0,0-22.41-22.41h-32a1.15,1.15,0,0,0-1.14,1.15v22A1.14,1.14,0,0,0,176.61,463.87Z"/><path d="M89.41,440.44h32a1.15,1.15,0,0,1,1.15,1.15v22a1.15,1.15,0,0,1-1.15,1.15H68.15A1.15,1.15,0,0,1,67,463.59v-.74a22.41,22.41,0,0,1,22.41-22.41Z"/><path class="cls-2" d="M90.79,455.5l-1,.17a1,1,0,0,1-1.15-.82l-1.57-9.15a1,1,0,0,1,.82-1.15l1-.17a1,1,0,0,1,1.16.82l1.56,9.15A1,1,0,0,1,90.79,455.5Z"/><path class="cls-2" d="M95.45,454.63l-1,.17a1,1,0,0,1-1.15-.82l-1.56-9.15a1,1,0,0,1,.81-1.15l1-.17a1,1,0,0,1,1.15.82l1.56,9.15A1,1,0,0,1,95.45,454.63Z"/><path class="cls-2" d="M100.1,453.76l-1,.17a1,1,0,0,1-1.16-.82L96.4,444a1,1,0,0,1,.82-1.15l1-.17a1,1,0,0,1,1.15.82l1.57,9.14A1,1,0,0,1,100.1,453.76Z"/><path class="cls-2" d="M209.15,455.5l1,.17a1,1,0,0,0,1.15-.82l1.56-9.15a1,1,0,0,0-.81-1.15l-1-.17a1,1,0,0,0-1.16.82l-1.56,9.15A1,1,0,0,0,209.15,455.5Z"/><path class="cls-2" d="M204.5,454.63l1,.17a1,1,0,0,0,1.16-.82l1.56-9.15a1,1,0,0,0-.82-1.15l-1-.17a1,1,0,0,0-1.15.82l-1.57,9.15A1,1,0,0,0,204.5,454.63Z"/><path class="cls-2" d="M199.85,453.76l1,.17a1,1,0,0,0,1.15-.82l1.57-9.15a1,1,0,0,0-.82-1.15l-1-.17a1,1,0,0,0-1.16.82L199,452.6A1,1,0,0,0,199.85,453.76Z"/><rect class="cls-3" x="67" y="458.66" width="55.53" height="6.07"/><rect class="cls-3" x="175.47" y="457.8" width="55.53" height="6.07"/></g><g id="jeans_copy_8" data-name="jeans copy 8"><path class="cls-4" d="M208.87,305.51v131h-32.1V378.89A24.86,24.86,0,0,0,152,354.1h-6a24.86,24.86,0,0,0-24.79,24.79v57.65H90v-131Z"/></g><g id="hoodie_copy_8" data-name="hoodie copy 8"><path class="cls-5" d="M91.73,205.32s8.68-35.5,57.27-29.9c0,0,45.12-9.34,56.4,29.9l5.21,4.67V326.77H90L86.52,211.86Z"/><line class="cls-5" x1="89.56" y1="205.72" x2="117.76" y2="205.72"/><line class="cls-5" x1="208.44" y1="205.72" x2="179.8" y2="205.72"/><path class="cls-6" d="M116.46,200.08s5.21,29.5,33,27.77c0,0,30.37-1.74,32.11-26.9"/><path class="cls-6" d="M131.65,207.46"/><rect class="cls-7" x="130.78" y="207.46" width="2.6" height="39.92" rx="1.3" ry="1.3"/><rect class="cls-7" x="165.49" y="207.46" width="2.6" height="39.92" rx="1.3" ry="1.3"/><ellipse class="cls-8" cx="82.62" cy="329.9" rx="9.11" ry="16.83"/><ellipse class="cls-9" cx="92.38" cy="330.81" rx="3.25" ry="7.73"/><rect class="cls-5" x="73.51" y="205.72" width="23.43" height="122.81" rx="11.71" ry="11.71"/><path class="cls-10" d="M168,280.43V280a4.81,4.81,0,0,0-4.81-4.82h-27.6a4.81,4.81,0,0,0-4.81,4.82v.47a4.82,4.82,0,0,1-4.82,4.82h-.78a4.81,4.81,0,0,0-4.81,4.82v21.47a4.81,4.81,0,0,0,4.81,4.82h47.64a4.81,4.81,0,0,0,4.81-4.82V290.07a4.81,4.81,0,0,0-4.81-4.82h0A4.82,4.82,0,0,1,168,280.43Z"/><path class="cls-5" d="M234.5,334.5"/></g><g id="kasket_copy_8" data-name="kasket copy 8"><path class="cls-12" d="M92.16,83.81s13.89-37.32,59-33.84c0,0,42.52-3.48,56.4,31.23v31.24H92.16Z"/><path class="cls-13" d="M169.39,101.59c-1.34,2.2-7.56,2.22-20,2.17-11.28,0-17-.1-18.22-2.17-3.39-5.53,6-23.86,19.09-23.86S172.79,96,169.39,101.59Z"/><rect x="127.74" y="101.16" width="45.12" height="9.54" rx="4.77" ry="4.77"/></g><g id="hår_copy_8" data-name="hår copy 8"><path class="cls-14" d="M203.23,113.31s9.55,1.73,10.42,11.28c0,0,12.14,9.54.86,23.43,0,0,1.74,8.68-8.67,11.28L93,158.43s-6.94.87-8.68-9.54c0,0-12.14-10.42,0-22.56,0,0-2.6-10.42,7.81-12.15S203.23,113.31,203.23,113.31Z"/></g><g id="ansigt_copy_8" data-name="ansigt copy 8"><ellipse class="cls-8" cx="149.43" cy="192.27" rx="14.32" ry="10.85"/><ellipse class="cls-9" cx="94.33" cy="134.57" rx="8.24" ry="9.11"/><ellipse class="cls-9" cx="205.4" cy="136.3" rx="8.24" ry="9.11"/><path class="cls-8" d="M94.33,113.74V158s0,11.28,9.55,15.62l20,14.75a19.22,19.22,0,0,0,11.28,3.47h32.1s8.68,0,13.89-6.94l19.95-16.49s5.21-1.74,4.34-15.62V112H94.33Z"/><circle cx="125.14" cy="135.87" r="5.21"/><circle cx="172.86" cy="135.87" r="5.21"/><rect x="159.85" y="116.78" width="26.9" height="10.41" rx="5.21" ry="5.21"/><rect x="112.12" y="116.78" width="27.77" height="10.41" rx="5.21" ry="5.21"/><path class="cls-6" d="M140.32,176.22s7.81,11.28,18.22,0"/><rect class="cls-15" x="140.76" y="136.74" width="18.22" height="26.9" rx="9.11" ry="9.11"/></g><path class="cls-5" d="M203,292.53c12.63,8,33.07-7.71,38.11-11.58,19.16-14.72,33.74-39.22,27.88-46.34-.46-.56-1.78-1.9-5.67-2.19-20.5-1.5-40.8,31.41-43.42,35.74l-4.17-54.58c-.13-3.93-5.5-7-11.94-6.77h0c-6.44.21-11.6,3.59-11.48,7.52l1.9,59.51C194.61,278.51,196.07,288.12,203,292.53Z"/><ellipse class="cls-8" cx="263.6" cy="228.22" rx="16.83" ry="9.11" transform="translate(10.94 468.48) rotate(-84.44)"/><g id="Iphone_copy_2" data-name="Iphone copy 2"><rect class="cls-16" x="254.51" y="190.13" width="24.94" height="42.75" rx="4.72" ry="4.72"/><path d="M274.73,190.25a4.6,4.6,0,0,1,4.6,4.59v33.32a4.6,4.6,0,0,1-4.6,4.59h-15.5a4.6,4.6,0,0,1-4.59-4.59V194.84a4.6,4.6,0,0,1,4.59-4.59h15.5m0-.25h-15.5a4.84,4.84,0,0,0-4.84,4.84v33.32a4.84,4.84,0,0,0,4.84,4.84h15.5a4.85,4.85,0,0,0,4.85-4.84V194.84a4.85,4.85,0,0,0-4.85-4.84Z"/><rect class="cls-17" x="256.36" y="194.06" width="21.83" height="33.45"/><path class="cls-18" d="M278.06,194.18v33.21H256.49V194.18h21.57m.25-.25H256.24v33.71h22.07V193.93Z"/><ellipse cx="262.9" cy="192.01" rx="0.44" ry="0.4"/><path d="M262.9,191.61a.4.4,0,1,0,.44.4.42.42,0,0,0-.44-.4Z"/><rect x="264.89" y="191.88" width="4.86" height="0.36" rx="0.11" ry="0.11"/><path d="M269.65,191.88H265a.11.11,0,0,0-.11.1v.15a.1.1,0,0,0,.11.1h4.65a.1.1,0,0,0,.11-.1V192a.11.11,0,0,0-.11-.1Z"/><ellipse cx="267.28" cy="190.76" rx="0.24" ry="0.22"/><path d="M267.28,190.54a.22.22,0,1,0,0,.44.22.22,0,1,0,0-.44Z"/><ellipse class="cls-16" cx="267.03" cy="230.05" rx="1.92" ry="1.75"/><path d="M267,228.42a1.64,1.64,0,1,1-1.79,1.63,1.72,1.72,0,0,1,1.79-1.63m0-.25a1.89,1.89,0,1,0,2.05,1.88,2,2,0,0,0-2.05-1.88Z"/><rect class="cls-16" x="279.48" y="199.3" width="0.52" height="3.22" rx="0.1" ry="0.1"/><path d="M279.9,199.3h-.32a.1.1,0,0,0-.1.1v3a.11.11,0,0,0,.1.1h.32a.1.1,0,0,0,.1-.1v-3a.09.09,0,0,0-.1-.1Z"/><rect class="cls-16" x="254" y="196.44" width="0.49" height="1.88" rx="0.09" ry="0.09"/><path d="M254.39,196.44h-.3a.09.09,0,0,0-.09.09v1.69a.09.09,0,0,0,.09.09h.3a.1.1,0,0,0,.1-.09v-1.69a.1.1,0,0,0-.1-.09Z"/><rect class="cls-16" x="254" y="199.92" width="0.49" height="2.32" rx="0.09" ry="0.09"/><path d="M254.39,199.92h-.3a.09.09,0,0,0-.09.1v2.13a.09.09,0,0,0,.09.1h.3a.1.1,0,0,0,.1-.1V200a.1.1,0,0,0-.1-.1Z"/><rect class="cls-16" x="254" y="203.05" width="0.49" height="2.41" rx="0.09" ry="0.09"/><path d="M254.39,203.05h-.3a.09.09,0,0,0-.09.1v2.22a.1.1,0,0,0,.09.1h.3a.11.11,0,0,0,.1-.1v-2.22a.1.1,0,0,0-.1-.1Z"/></g><ellipse class="cls-9" cx="254.35" cy="224.52" rx="7.73" ry="3.25" transform="translate(6.26 455.94) rotate(-84.44)"/></symbol><symbol id="Boymob05" data-name="Boymob05" viewBox="0 0 300 500"><rect class="cls-1" width="300" height="500"/><g id="sko_copy_9" data-name="sko copy 9"><path d="M176.61,463.87h53.24a1.14,1.14,0,0,0,1.15-1.15V462a22.41,22.41,0,0,0-22.41-22.41h-32a1.15,1.15,0,0,0-1.14,1.15v22A1.14,1.14,0,0,0,176.61,463.87Z"/><path d="M89.41,440.44h32a1.15,1.15,0,0,1,1.15,1.15v22a1.15,1.15,0,0,1-1.15,1.15H68.15A1.15,1.15,0,0,1,67,463.59v-.74a22.41,22.41,0,0,1,22.41-22.41Z"/><path class="cls-2" d="M90.79,455.5l-1,.17a1,1,0,0,1-1.15-.82l-1.57-9.15a1,1,0,0,1,.82-1.15l1-.17a1,1,0,0,1,1.16.82l1.56,9.15A1,1,0,0,1,90.79,455.5Z"/><path class="cls-2" d="M95.45,454.63l-1,.17a1,1,0,0,1-1.15-.82l-1.56-9.15a1,1,0,0,1,.81-1.15l1-.17a1,1,0,0,1,1.15.82l1.56,9.15A1,1,0,0,1,95.45,454.63Z"/><path class="cls-2" d="M100.1,453.76l-1,.17a1,1,0,0,1-1.16-.82L96.4,444a1,1,0,0,1,.82-1.15l1-.17a1,1,0,0,1,1.15.82l1.57,9.14A1,1,0,0,1,100.1,453.76Z"/><path class="cls-2" d="M209.15,455.5l1,.17a1,1,0,0,0,1.15-.82l1.56-9.15a1,1,0,0,0-.81-1.15l-1-.17a1,1,0,0,0-1.16.82l-1.56,9.15A1,1,0,0,0,209.15,455.5Z"/><path class="cls-2" d="M204.5,454.63l1,.17a1,1,0,0,0,1.16-.82l1.56-9.15a1,1,0,0,0-.82-1.15l-1-.17a1,1,0,0,0-1.15.82l-1.57,9.15A1,1,0,0,0,204.5,454.63Z"/><path class="cls-2" d="M199.85,453.76l1,.17a1,1,0,0,0,1.15-.82l1.57-9.15a1,1,0,0,0-.82-1.15l-1-.17a1,1,0,0,0-1.16.82L199,452.6A1,1,0,0,0,199.85,453.76Z"/><rect class="cls-3" x="67" y="458.66" width="55.53" height="6.07"/><rect class="cls-3" x="175.47" y="457.8" width="55.53" height="6.07"/></g><g id="jeans_copy_9" data-name="jeans copy 9"><path class="cls-4" d="M208.87,305.51v131h-32.1V378.89A24.86,24.86,0,0,0,152,354.1h-6a24.86,24.86,0,0,0-24.79,24.79v57.65H90v-131Z"/></g><g id="hoodie_copy_9" data-name="hoodie copy 9"><path class="cls-5" d="M91.73,205.32s8.68-35.5,57.27-29.9c0,0,45.12-9.34,56.4,29.9l5.21,4.67V326.77H90L86.52,211.86Z"/><line class="cls-5" x1="89.56" y1="205.72" x2="117.76" y2="205.72"/><line class="cls-5" x1="208.44" y1="205.72" x2="179.8" y2="205.72"/><path class="cls-6" d="M116.46,200.08s5.21,29.5,33,27.77c0,0,30.37-1.74,32.11-26.9"/><path class="cls-6" d="M131.65,207.46"/><rect class="cls-7" x="130.78" y="207.46" width="2.6" height="39.92" rx="1.3" ry="1.3"/><rect class="cls-7" x="165.49" y="207.46" width="2.6" height="39.92" rx="1.3" ry="1.3"/><ellipse class="cls-8" cx="82.62" cy="329.9" rx="9.11" ry="16.83"/><ellipse class="cls-9" cx="92.38" cy="330.81" rx="3.25" ry="7.73"/><rect class="cls-5" x="73.51" y="205.72" width="23.43" height="122.81" rx="11.71" ry="11.71"/><path class="cls-10" d="M168,280.43V280a4.81,4.81,0,0,0-4.81-4.82h-27.6a4.81,4.81,0,0,0-4.81,4.82v.47a4.82,4.82,0,0,1-4.82,4.82h-.78a4.81,4.81,0,0,0-4.81,4.82v21.47a4.81,4.81,0,0,0,4.81,4.82h47.64a4.81,4.81,0,0,0,4.81-4.82V290.07a4.81,4.81,0,0,0-4.81-4.82h0A4.82,4.82,0,0,1,168,280.43Z"/><path class="cls-5" d="M234.5,334.5"/></g><g id="kasket_copy_9" data-name="kasket copy 9"><path class="cls-12" d="M92.16,83.81s13.89-37.32,59-33.84c0,0,42.52-3.48,56.4,31.23v31.24H92.16Z"/><path class="cls-13" d="M169.39,101.59c-1.34,2.2-7.56,2.22-20,2.17-11.28,0-17-.1-18.22-2.17-3.39-5.53,6-23.86,19.09-23.86S172.79,96,169.39,101.59Z"/><rect x="127.74" y="101.16" width="45.12" height="9.54" rx="4.77" ry="4.77"/></g><g id="hår_copy_9" data-name="hår copy 9"><path class="cls-14" d="M203.23,113.31s9.55,1.73,10.42,11.28c0,0,12.14,9.54.86,23.43,0,0,1.74,8.68-8.67,11.28L93,158.43s-6.94.87-8.68-9.54c0,0-12.14-10.42,0-22.56,0,0-2.6-10.42,7.81-12.15S203.23,113.31,203.23,113.31Z"/></g><g id="ansigt_copy_9" data-name="ansigt copy 9"><ellipse class="cls-8" cx="149.43" cy="192.27" rx="14.32" ry="10.85"/><ellipse class="cls-9" cx="94.33" cy="134.57" rx="8.24" ry="9.11"/><ellipse class="cls-9" cx="205.4" cy="136.3" rx="8.24" ry="9.11"/><path class="cls-8" d="M94.33,113.74V158s0,11.28,9.55,15.62l20,14.75a19.22,19.22,0,0,0,11.28,3.47h32.1s8.68,0,13.89-6.94l19.95-16.49s5.21-1.74,4.34-15.62V112H94.33Z"/><rect x="159.85" y="116.78" width="26.9" height="10.41" rx="5.21" ry="5.21"/><rect x="112.12" y="116.78" width="27.77" height="10.41" rx="5.21" ry="5.21"/><path class="cls-6" d="M140.32,176.22s7.81,11.28,18.22,0"/><rect class="cls-15" x="140.76" y="136.74" width="18.22" height="26.9" rx="9.11" ry="9.11"/><ellipse cx="172.86" cy="135.33" rx="5.21" ry="0.67"/><ellipse cx="124.86" cy="135.33" rx="5.21" ry="0.67"/></g><path class="cls-5" d="M203,292.53c12.63,8,33.07-7.71,38.11-11.58,19.16-14.72,33.74-39.22,27.88-46.34-.46-.56-1.78-1.9-5.67-2.19-20.5-1.5-40.8,31.41-43.42,35.74l-4.17-54.58c-.13-3.93-5.5-7-11.94-6.77h0c-6.44.21-11.6,3.59-11.48,7.52l1.9,59.51C194.61,278.51,196.07,288.12,203,292.53Z"/><ellipse class="cls-8" cx="263.6" cy="228.22" rx="16.83" ry="9.11" transform="translate(10.94 468.48) rotate(-84.44)"/><g id="Iphone_copy_3" data-name="Iphone copy 3"><rect class="cls-16" x="254.51" y="190.13" width="24.94" height="42.75" rx="4.72" ry="4.72"/><path d="M274.73,190.25a4.6,4.6,0,0,1,4.6,4.59v33.32a4.6,4.6,0,0,1-4.6,4.59h-15.5a4.6,4.6,0,0,1-4.59-4.59V194.84a4.6,4.6,0,0,1,4.59-4.59h15.5m0-.25h-15.5a4.84,4.84,0,0,0-4.84,4.84v33.32a4.84,4.84,0,0,0,4.84,4.84h15.5a4.85,4.85,0,0,0,4.85-4.84V194.84a4.85,4.85,0,0,0-4.85-4.84Z"/><rect class="cls-17" x="256.36" y="194.06" width="21.83" height="33.45"/><path class="cls-18" d="M278.06,194.18v33.21H256.49V194.18h21.57m.25-.25H256.24v33.71h22.07V193.93Z"/><ellipse cx="262.9" cy="192.01" rx="0.44" ry="0.4"/><path d="M262.9,191.61a.4.4,0,1,0,.44.4.42.42,0,0,0-.44-.4Z"/><rect x="264.89" y="191.88" width="4.86" height="0.36" rx="0.11" ry="0.11"/><path d="M269.65,191.88H265a.11.11,0,0,0-.11.1v.15a.1.1,0,0,0,.11.1h4.65a.1.1,0,0,0,.11-.1V192a.11.11,0,0,0-.11-.1Z"/><ellipse cx="267.28" cy="190.76" rx="0.24" ry="0.22"/><path d="M267.28,190.54a.22.22,0,1,0,0,.44.22.22,0,1,0,0-.44Z"/><ellipse class="cls-16" cx="267.03" cy="230.05" rx="1.92" ry="1.75"/><path d="M267,228.42a1.64,1.64,0,1,1-1.79,1.63,1.72,1.72,0,0,1,1.79-1.63m0-.25a1.89,1.89,0,1,0,2.05,1.88,2,2,0,0,0-2.05-1.88Z"/><rect class="cls-16" x="279.48" y="199.3" width="0.52" height="3.22" rx="0.1" ry="0.1"/><path d="M279.9,199.3h-.32a.1.1,0,0,0-.1.1v3a.11.11,0,0,0,.1.1h.32a.1.1,0,0,0,.1-.1v-3a.09.09,0,0,0-.1-.1Z"/><rect class="cls-16" x="254" y="196.44" width="0.49" height="1.88" rx="0.09" ry="0.09"/><path d="M254.39,196.44h-.3a.09.09,0,0,0-.09.09v1.69a.09.09,0,0,0,.09.09h.3a.1.1,0,0,0,.1-.09v-1.69a.1.1,0,0,0-.1-.09Z"/><rect class="cls-16" x="254" y="199.92" width="0.49" height="2.32" rx="0.09" ry="0.09"/><path d="M254.39,199.92h-.3a.09.09,0,0,0-.09.1v2.13a.09.09,0,0,0,.09.1h.3a.1.1,0,0,0,.1-.1V200a.1.1,0,0,0-.1-.1Z"/><rect class="cls-16" x="254" y="203.05" width="0.49" height="2.41" rx="0.09" ry="0.09"/><path d="M254.39,203.05h-.3a.09.09,0,0,0-.09.1v2.22a.1.1,0,0,0,.09.1h.3a.11.11,0,0,0,.1-.1v-2.22a.1.1,0,0,0-.1-.1Z"/></g><ellipse class="cls-9" cx="254.35" cy="224.52" rx="7.73" ry="3.25" transform="translate(6.26 455.94) rotate(-84.44)"/></symbol><symbol id="Tænker01" data-name="Tænker01" viewBox="0 0 300 500"><rect class="cls-1" width="300" height="500"/><g id="sko_copy_7" data-name="sko copy 7"><path d="M176.61,463.87h53.24a1.14,1.14,0,0,0,1.15-1.15V462a22.41,22.41,0,0,0-22.41-22.41h-32a1.15,1.15,0,0,0-1.14,1.15v22A1.14,1.14,0,0,0,176.61,463.87Z"/><path d="M89.41,440.44h32a1.15,1.15,0,0,1,1.15,1.15v22a1.15,1.15,0,0,1-1.15,1.15H68.15A1.15,1.15,0,0,1,67,463.59v-.74a22.41,22.41,0,0,1,22.41-22.41Z"/><path class="cls-2" d="M90.79,455.5l-1,.17a1,1,0,0,1-1.15-.82l-1.57-9.15a1,1,0,0,1,.82-1.15l1-.17a1,1,0,0,1,1.16.82l1.56,9.15A1,1,0,0,1,90.79,455.5Z"/><path class="cls-2" d="M95.45,454.63l-1,.17a1,1,0,0,1-1.15-.82l-1.56-9.15a1,1,0,0,1,.81-1.15l1-.17a1,1,0,0,1,1.15.82l1.56,9.15A1,1,0,0,1,95.45,454.63Z"/><path class="cls-2" d="M100.1,453.76l-1,.17a1,1,0,0,1-1.16-.82L96.4,444a1,1,0,0,1,.82-1.15l1-.17a1,1,0,0,1,1.15.82l1.57,9.14A1,1,0,0,1,100.1,453.76Z"/><path class="cls-2" d="M209.15,455.5l1,.17a1,1,0,0,0,1.15-.82l1.56-9.15a1,1,0,0,0-.81-1.15l-1-.17a1,1,0,0,0-1.16.82l-1.56,9.15A1,1,0,0,0,209.15,455.5Z"/><path class="cls-2" d="M204.5,454.63l1,.17a1,1,0,0,0,1.16-.82l1.56-9.15a1,1,0,0,0-.82-1.15l-1-.17a1,1,0,0,0-1.15.82l-1.57,9.15A1,1,0,0,0,204.5,454.63Z"/><path class="cls-2" d="M199.85,453.76l1,.17a1,1,0,0,0,1.15-.82l1.57-9.15a1,1,0,0,0-.82-1.15l-1-.17a1,1,0,0,0-1.16.82L199,452.6A1,1,0,0,0,199.85,453.76Z"/><rect class="cls-3" x="67" y="458.66" width="55.53" height="6.07"/><rect class="cls-3" x="175.47" y="457.8" width="55.53" height="6.07"/></g><g id="jeans_copy_7" data-name="jeans copy 7"><path class="cls-4" d="M208.87,305.51v131h-32.1V378.89A24.86,24.86,0,0,0,152,354.1h-6a24.86,24.86,0,0,0-24.79,24.79v57.65H90v-131Z"/></g><g id="hoodie_copy_7" data-name="hoodie copy 7"><path class="cls-5" d="M91.73,205.32s8.68-35.5,57.27-29.9c0,0,45.12-9.34,56.4,29.9l5.21,4.67V326.77H90L86.52,211.86Z"/><line class="cls-5" x1="89.56" y1="205.72" x2="117.76" y2="205.72"/><line class="cls-5" x1="208.44" y1="205.72" x2="179.8" y2="205.72"/><path class="cls-6" d="M116.46,200.08s5.21,29.5,33,27.77c0,0,30.37-1.74,32.11-26.9"/><path class="cls-6" d="M131.65,207.46"/><rect class="cls-7" x="130.78" y="207.46" width="2.6" height="39.92" rx="1.3" ry="1.3"/><rect class="cls-7" x="165.49" y="207.46" width="2.6" height="39.92" rx="1.3" ry="1.3"/><path class="cls-10" d="M168,280.43V280a4.81,4.81,0,0,0-4.81-4.82h-27.6a4.81,4.81,0,0,0-4.81,4.82v.47a4.82,4.82,0,0,1-4.82,4.82h-.78a4.81,4.81,0,0,0-4.81,4.82v21.47a4.81,4.81,0,0,0,4.81,4.82h47.64a4.81,4.81,0,0,0,4.81-4.82V290.07a4.81,4.81,0,0,0-4.81-4.82h0A4.82,4.82,0,0,1,168,280.43Z"/><path class="cls-5" d="M234.5,334.5"/></g><g id="kasket_copy_7" data-name="kasket copy 7"><path class="cls-12" d="M92.16,83.81s13.89-37.32,59-33.84c0,0,42.52-3.48,56.4,31.23v31.24H92.16Z"/><path class="cls-13" d="M169.39,101.59c-1.34,2.2-7.56,2.22-20,2.17-11.28,0-17-.1-18.22-2.17-3.39-5.53,6-23.86,19.09-23.86S172.79,96,169.39,101.59Z"/><rect x="127.74" y="101.16" width="45.12" height="9.54" rx="4.77" ry="4.77"/></g><g id="hår_copy_7" data-name="hår copy 7"><path class="cls-14" d="M203.23,113.31s9.55,1.73,10.42,11.28c0,0,12.14,9.54.86,23.43,0,0,1.74,8.68-8.67,11.28L93,158.43s-6.94.87-8.68-9.54c0,0-12.14-10.42,0-22.56,0,0-2.6-10.42,7.81-12.15S203.23,113.31,203.23,113.31Z"/></g><g id="ansigt_copy_7" data-name="ansigt copy 7"><ellipse class="cls-8" cx="149.43" cy="192.27" rx="14.32" ry="10.85"/><ellipse class="cls-9" cx="94.33" cy="134.57" rx="8.24" ry="9.11"/><ellipse class="cls-9" cx="205.4" cy="136.3" rx="8.24" ry="9.11"/><path class="cls-8" d="M94.33,113.74V158s0,11.28,9.55,15.62l20,14.75a19.22,19.22,0,0,0,11.28,3.47h32.1s8.68,0,13.89-6.94l19.95-16.49s5.21-1.74,4.34-15.62V112H94.33Z"/><circle cx="125.14" cy="135.87" r="5.21"/><circle cx="172.86" cy="135.87" r="5.21"/><rect x="159.85" y="116.78" width="26.9" height="10.41" rx="5.21" ry="5.21"/><rect x="112.12" y="116.78" width="27.77" height="10.41" rx="5.21" ry="5.21"/><path class="cls-6" d="M140.32,176.22s7.81,11.28,18.22,0"/><rect class="cls-15" x="140.76" y="136.74" width="18.22" height="26.9" rx="9.11" ry="9.11"/></g><path class="cls-5" d="M203,292.53c12.63,8,33.07-7.71,38.11-11.58,19.16-14.72,33.74-39.22,27.88-46.34-.46-.56-1.78-1.9-5.67-2.19-20.5-1.5-40.8,31.41-43.42,35.74l-4.17-54.58c-.13-3.93-5.5-7-11.94-6.77h0c-6.44.21-11.6,3.59-11.48,7.52l1.9,59.51C194.61,278.51,196.07,288.12,203,292.53Z"/><ellipse class="cls-8" cx="263.6" cy="228.22" rx="16.83" ry="9.11" transform="translate(10.94 468.48) rotate(-84.44)"/><g id="Iphone_copy_3-2" data-name="Iphone copy 3"><rect class="cls-16" x="254.51" y="190.13" width="24.94" height="42.75" rx="4.72" ry="4.72"/><path d="M274.74,190.25a4.6,4.6,0,0,1,4.59,4.59v33.32a4.6,4.6,0,0,1-4.59,4.59H259.23a4.6,4.6,0,0,1-4.59-4.59V194.84a4.6,4.6,0,0,1,4.59-4.59h15.51m0-.25H259.23a4.84,4.84,0,0,0-4.84,4.84v33.32a4.84,4.84,0,0,0,4.84,4.84h15.51a4.84,4.84,0,0,0,4.84-4.84V194.84a4.84,4.84,0,0,0-4.84-4.84Z"/><rect class="cls-17" x="256.36" y="194.06" width="21.83" height="33.45"/><path class="cls-18" d="M278.06,194.18v33.21H256.49V194.18h21.57m.25-.25H256.24v33.71h22.07V193.93Z"/><ellipse cx="262.9" cy="192.01" rx="0.44" ry="0.4"/><path d="M262.9,191.61a.4.4,0,1,0,.44.4.42.42,0,0,0-.44-.4Z"/><rect x="264.89" y="191.88" width="4.86" height="0.36" rx="0.11" ry="0.11"/><path d="M269.65,191.88H265a.11.11,0,0,0-.11.1v.15a.1.1,0,0,0,.11.1h4.65a.1.1,0,0,0,.11-.1V192a.11.11,0,0,0-.11-.1Z"/><ellipse cx="267.28" cy="190.76" rx="0.24" ry="0.22"/><path d="M267.28,190.54a.22.22,0,1,0,0,.44.22.22,0,1,0,0-.44Z"/><path class="cls-16" d="M267,231.8a1.76,1.76,0,1,1,1.92-1.75A1.84,1.84,0,0,1,267,231.8Z"/><path d="M267,228.42a1.64,1.64,0,1,1-1.79,1.63,1.72,1.72,0,0,1,1.79-1.63m0-.25a1.89,1.89,0,1,0,2.05,1.88,2,2,0,0,0-2.05-1.88Z"/><rect class="cls-16" x="279.48" y="199.3" width="0.52" height="3.22" rx="0.1" ry="0.1"/><path d="M279.9,199.3h-.32a.1.1,0,0,0-.1.1v3a.11.11,0,0,0,.1.1h.32a.1.1,0,0,0,.1-.1v-3a.09.09,0,0,0-.1-.1Z"/><rect class="cls-16" x="254" y="196.44" width="0.49" height="1.88" rx="0.09" ry="0.09"/><path d="M254.39,196.44h-.3a.09.09,0,0,0-.09.09v1.69a.09.09,0,0,0,.09.09h.3a.1.1,0,0,0,.1-.09v-1.69a.1.1,0,0,0-.1-.09Z"/><rect class="cls-16" x="254" y="199.92" width="0.49" height="2.32" rx="0.09" ry="0.09"/><path d="M254.39,199.92h-.3a.09.09,0,0,0-.09.1v2.13a.09.09,0,0,0,.09.1h.3a.1.1,0,0,0,.1-.1V200a.1.1,0,0,0-.1-.1Z"/><rect class="cls-16" x="254" y="203.05" width="0.49" height="2.41" rx="0.09" ry="0.09"/><path d="M254.39,203.05h-.3a.09.09,0,0,0-.09.1v2.22a.1.1,0,0,0,.09.1h.3a.11.11,0,0,0,.1-.1v-2.22a.1.1,0,0,0-.1-.1Z"/></g><ellipse class="cls-9" cx="254.35" cy="224.52" rx="7.73" ry="3.25" transform="translate(6.26 455.94) rotate(-84.44)"/><ellipse class="cls-8" cx="115.2" cy="310.55" rx="9" ry="15.82" transform="translate(-203.32 219.69) rotate(-53.73)"/><ellipse class="cls-9" cx="123.44" cy="304.97" rx="3.22" ry="7.27" transform="translate(-194.43 220.12) rotate(-53.02)"/><path class="cls-5" d="M54.05,269.8a15.57,15.57,0,0,1-2.67-5.43c-2.07-8,2.94-15.78,5.61-19.34l36-43.4c2.37-2.86,8.08-1.65,12.69,2.69h0c4.61,4.34,6.43,10.24,4.06,13.11l-31.31,41.5,3.15,6.13c8.47,4.42,34.09,19.19,34,37.35,0,3.86-1.2,5.31-1.7,5.83-6.31,6.59-30.18-4.86-45.17-22Z"/></symbol><symbol id="Tænker02" data-name="Tænker02" viewBox="0 0 300 500"><rect class="cls-1" width="300" height="500"/><g id="sko_copy_6" data-name="sko copy 6"><path d="M176.61,463.87h53.24a1.14,1.14,0,0,0,1.15-1.15V462a22.41,22.41,0,0,0-22.41-22.41h-32a1.15,1.15,0,0,0-1.14,1.15v22A1.14,1.14,0,0,0,176.61,463.87Z"/><path d="M89.41,440.44h32a1.15,1.15,0,0,1,1.15,1.15v22a1.15,1.15,0,0,1-1.15,1.15H68.15A1.15,1.15,0,0,1,67,463.59v-.74a22.41,22.41,0,0,1,22.41-22.41Z"/><path class="cls-2" d="M90.79,455.5l-1,.17a1,1,0,0,1-1.15-.82l-1.57-9.15a1,1,0,0,1,.82-1.15l1-.17a1,1,0,0,1,1.16.82l1.56,9.15A1,1,0,0,1,90.79,455.5Z"/><path class="cls-2" d="M95.45,454.63l-1,.17a1,1,0,0,1-1.15-.82l-1.56-9.15a1,1,0,0,1,.81-1.15l1-.17a1,1,0,0,1,1.15.82l1.56,9.15A1,1,0,0,1,95.45,454.63Z"/><path class="cls-2" d="M100.1,453.76l-1,.17a1,1,0,0,1-1.16-.82L96.4,444a1,1,0,0,1,.82-1.15l1-.17a1,1,0,0,1,1.15.82l1.57,9.14A1,1,0,0,1,100.1,453.76Z"/><path class="cls-2" d="M209.15,455.5l1,.17a1,1,0,0,0,1.15-.82l1.56-9.15a1,1,0,0,0-.81-1.15l-1-.17a1,1,0,0,0-1.16.82l-1.56,9.15A1,1,0,0,0,209.15,455.5Z"/><path class="cls-2" d="M204.5,454.63l1,.17a1,1,0,0,0,1.16-.82l1.56-9.15a1,1,0,0,0-.82-1.15l-1-.17a1,1,0,0,0-1.15.82l-1.57,9.15A1,1,0,0,0,204.5,454.63Z"/><path class="cls-2" d="M199.85,453.76l1,.17a1,1,0,0,0,1.15-.82l1.57-9.15a1,1,0,0,0-.82-1.15l-1-.17a1,1,0,0,0-1.16.82L199,452.6A1,1,0,0,0,199.85,453.76Z"/><rect class="cls-3" x="67" y="458.66" width="55.53" height="6.07"/><rect class="cls-3" x="175.47" y="457.8" width="55.53" height="6.07"/></g><g id="jeans_copy_6" data-name="jeans copy 6"><path class="cls-4" d="M208.87,305.51v131h-32.1V378.89A24.86,24.86,0,0,0,152,354.1h-6a24.86,24.86,0,0,0-24.79,24.79v57.65H90v-131Z"/></g><g id="hoodie_copy_6" data-name="hoodie copy 6"><path class="cls-5" d="M91.73,205.32s8.68-35.5,57.27-29.9c0,0,45.12-9.34,56.4,29.9l5.21,4.67V326.77H90L86.52,211.86Z"/><line class="cls-5" x1="89.56" y1="205.72" x2="117.76" y2="205.72"/><line class="cls-5" x1="208.44" y1="205.72" x2="179.8" y2="205.72"/><path class="cls-6" d="M116.46,200.08s5.21,29.5,33,27.77c0,0,30.37-1.74,32.11-26.9"/><path class="cls-6" d="M131.65,207.46"/><rect class="cls-7" x="130.78" y="207.46" width="2.6" height="39.92" rx="1.3" ry="1.3"/><rect class="cls-7" x="165.49" y="207.46" width="2.6" height="39.92" rx="1.3" ry="1.3"/><path class="cls-10" d="M168,280.43V280a4.81,4.81,0,0,0-4.81-4.82h-27.6a4.81,4.81,0,0,0-4.81,4.82v.47a4.82,4.82,0,0,1-4.82,4.82h-.78a4.81,4.81,0,0,0-4.81,4.82v21.47a4.81,4.81,0,0,0,4.81,4.82h47.64a4.81,4.81,0,0,0,4.81-4.82V290.07a4.81,4.81,0,0,0-4.81-4.82h0A4.82,4.82,0,0,1,168,280.43Z"/><path class="cls-5" d="M234.5,334.5"/></g><g id="kasket_copy_6" data-name="kasket copy 6"><path class="cls-12" d="M92.16,83.81s13.89-37.32,59-33.84c0,0,42.52-3.48,56.4,31.23v31.24H92.16Z"/><path class="cls-13" d="M169.39,101.59c-1.34,2.2-7.56,2.22-20,2.17-11.28,0-17-.1-18.22-2.17-3.39-5.53,6-23.86,19.09-23.86S172.79,96,169.39,101.59Z"/><rect x="127.74" y="101.16" width="45.12" height="9.54" rx="4.77" ry="4.77"/></g><g id="hår_copy_6" data-name="hår copy 6"><path class="cls-14" d="M203.23,113.31s9.55,1.73,10.42,11.28c0,0,12.14,9.54.86,23.43,0,0,1.74,8.68-8.67,11.28L93,158.43s-6.94.87-8.68-9.54c0,0-12.14-10.42,0-22.56,0,0-2.6-10.42,7.81-12.15S203.23,113.31,203.23,113.31Z"/></g><g id="ansigt_copy_6" data-name="ansigt copy 6"><ellipse class="cls-8" cx="149.43" cy="192.27" rx="14.32" ry="10.85"/><ellipse class="cls-9" cx="94.33" cy="134.57" rx="8.24" ry="9.11"/><ellipse class="cls-9" cx="205.4" cy="136.3" rx="8.24" ry="9.11"/><path class="cls-8" d="M94.33,113.74V158s0,11.28,9.55,15.62l20,14.75a19.22,19.22,0,0,0,11.28,3.47h32.1s8.68,0,13.89-6.94l19.95-16.49s5.21-1.74,4.34-15.62V112H94.33Z"/><circle cx="125.14" cy="135.87" r="5.21"/><circle cx="172.86" cy="135.87" r="5.21"/><rect x="159.85" y="116.78" width="26.9" height="10.41" rx="5.21" ry="5.21"/><rect x="112.12" y="116.78" width="27.77" height="10.41" rx="5.21" ry="5.21"/><path class="cls-6" d="M140.32,176.22s7.81,11.28,18.22,0"/><rect class="cls-15" x="140.76" y="136.74" width="18.22" height="26.9" rx="9.11" ry="9.11"/></g><path class="cls-5" d="M203,292.53c12.63,8,33.07-7.71,38.11-11.58,19.16-14.72,33.74-39.22,27.88-46.34-.46-.56-1.78-1.9-5.67-2.19-20.5-1.5-40.8,31.41-43.42,35.74l-4.17-54.58c-.13-3.93-5.5-7-11.94-6.77h0c-6.44.21-11.6,3.59-11.48,7.52l1.9,59.51C194.61,278.51,196.07,288.12,203,292.53Z"/><ellipse class="cls-8" cx="263.6" cy="228.22" rx="16.83" ry="9.11" transform="translate(10.94 468.48) rotate(-84.44)"/><g id="Iphone_copy_2-2" data-name="Iphone copy 2"><rect class="cls-16" x="254.51" y="190.13" width="24.94" height="42.75" rx="4.72" ry="4.72"/><path d="M274.74,190.25a4.6,4.6,0,0,1,4.59,4.59v33.32a4.6,4.6,0,0,1-4.59,4.59H259.23a4.6,4.6,0,0,1-4.59-4.59V194.84a4.6,4.6,0,0,1,4.59-4.59h15.51m0-.25H259.23a4.84,4.84,0,0,0-4.84,4.84v33.32a4.84,4.84,0,0,0,4.84,4.84h15.51a4.84,4.84,0,0,0,4.84-4.84V194.84a4.84,4.84,0,0,0-4.84-4.84Z"/><rect class="cls-17" x="256.36" y="194.06" width="21.83" height="33.45"/><path class="cls-18" d="M278.06,194.18v33.21H256.49V194.18h21.57m.25-.25H256.24v33.71h22.07V193.93Z"/><ellipse cx="262.9" cy="192.01" rx="0.44" ry="0.4"/><path d="M262.9,191.61a.4.4,0,1,0,.44.4.42.42,0,0,0-.44-.4Z"/><rect x="264.89" y="191.88" width="4.86" height="0.36" rx="0.11" ry="0.11"/><path d="M269.65,191.88H265a.11.11,0,0,0-.11.1v.15a.1.1,0,0,0,.11.1h4.65a.1.1,0,0,0,.11-.1V192a.11.11,0,0,0-.11-.1Z"/><ellipse cx="267.28" cy="190.76" rx="0.24" ry="0.22"/><path d="M267.28,190.54a.22.22,0,1,0,0,.44.22.22,0,1,0,0-.44Z"/><path class="cls-16" d="M267,231.8a1.76,1.76,0,1,1,1.92-1.75A1.84,1.84,0,0,1,267,231.8Z"/><path d="M267,228.42a1.64,1.64,0,1,1-1.79,1.63,1.72,1.72,0,0,1,1.79-1.63m0-.25a1.89,1.89,0,1,0,2.05,1.88,2,2,0,0,0-2.05-1.88Z"/><rect class="cls-16" x="279.48" y="199.3" width="0.52" height="3.22" rx="0.1" ry="0.1"/><path d="M279.9,199.3h-.32a.1.1,0,0,0-.1.1v3a.11.11,0,0,0,.1.1h.32a.1.1,0,0,0,.1-.1v-3a.09.09,0,0,0-.1-.1Z"/><rect class="cls-16" x="254" y="196.44" width="0.49" height="1.88" rx="0.09" ry="0.09"/><path d="M254.39,196.44h-.3a.09.09,0,0,0-.09.09v1.69a.09.09,0,0,0,.09.09h.3a.1.1,0,0,0,.1-.09v-1.69a.1.1,0,0,0-.1-.09Z"/><rect class="cls-16" x="254" y="199.92" width="0.49" height="2.32" rx="0.09" ry="0.09"/><path d="M254.39,199.92h-.3a.09.09,0,0,0-.09.1v2.13a.09.09,0,0,0,.09.1h.3a.1.1,0,0,0,.1-.1V200a.1.1,0,0,0-.1-.1Z"/><rect class="cls-16" x="254" y="203.05" width="0.49" height="2.41" rx="0.09" ry="0.09"/><path d="M254.39,203.05h-.3a.09.09,0,0,0-.09.1v2.22a.1.1,0,0,0,.09.1h.3a.11.11,0,0,0,.1-.1v-2.22a.1.1,0,0,0-.1-.1Z"/></g><ellipse class="cls-9" cx="254.35" cy="224.52" rx="7.73" ry="3.25" transform="translate(6.26 455.94) rotate(-84.44)"/><ellipse class="cls-8" cx="162.28" cy="234.66" rx="16.83" ry="9.11" transform="translate(-112.47 157.75) rotate(-39.69)"/><ellipse class="cls-9" cx="156.75" cy="226.57" rx="7.73" ry="3.25" transform="translate(-108.57 152.35) rotate(-39.69)"/><path class="cls-5" d="M84.11,287.84c11.15,10,33.88-2.2,39.49-5.19,21.31-11.39,39.7-33.18,35.08-41.16-.36-.63-1.44-2.17-5.24-3.08-20-4.84-45.38,24.3-48.67,28.15l4.8-54.52c.52-3.9-4.28-7.78-10.67-8.63h0c-6.38-.85-12,1.64-12.55,5.54L78.5,268C78.1,272.63,78,282.36,84.11,287.84Z"/></symbol><symbol id="Tænker03" data-name="Tænker03" viewBox="0 0 300 500"><rect class="cls-1" width="300" height="500"/><g id="sko_copy_5" data-name="sko copy 5"><g id="venstre_copy" data-name="venstre copy"><path d="M178.61,464.74h53.24a1.15,1.15,0,0,0,1.15-1.15v-.74a22.41,22.41,0,0,0-22.41-22.41h-32a1.14,1.14,0,0,0-1.14,1.15v22A1.15,1.15,0,0,0,178.61,464.74Z"/><polygon class="cls-3" points="177.47 464.74 233 464.74 233 458.66 177.47 458.66 177.47 464.74"/><path class="cls-2" d="M209.21,455.5l1,.17a1,1,0,0,0,1.15-.82l1.57-9.15a1,1,0,0,0-.82-1.15l-1-.17a1,1,0,0,0-1.16.82l-1.56,9.15A1,1,0,0,0,209.21,455.5Z"/><path class="cls-2" d="M204.55,454.63l1,.17a1,1,0,0,0,1.15-.82l1.56-9.15a1,1,0,0,0-.81-1.15l-1-.17a1,1,0,0,0-1.15.82l-1.56,9.15A1,1,0,0,0,204.55,454.63Z"/><path class="cls-2" d="M199.9,453.76l1,.17a1,1,0,0,0,1.16-.82L203.6,444a1,1,0,0,0-.82-1.15l-1-.17a1,1,0,0,0-1.15.82l-1.57,9.14A1,1,0,0,0,199.9,453.76Z"/></g><path d="M91.78,439.57H123a1.52,1.52,0,0,1,1.52,1.52v21.26a1.52,1.52,0,0,1-1.52,1.52H70.52A1.52,1.52,0,0,1,69,462.35v0A22.78,22.78,0,0,1,91.78,439.57Z"/><path class="cls-2" d="M90.48,455.56l-.25.05a1.38,1.38,0,0,1-1.58-1.12l-1.44-8.42a1.38,1.38,0,0,1,1.12-1.58l.25,0a1.37,1.37,0,0,1,1.58,1.12L91.6,454A1.37,1.37,0,0,1,90.48,455.56Z"/><path class="cls-2" d="M95.13,454.69l-.25.05a1.38,1.38,0,0,1-1.58-1.13l-1.44-8.41A1.38,1.38,0,0,1,93,443.62l.25-.05a1.39,1.39,0,0,1,1.59,1.12l1.43,8.42A1.36,1.36,0,0,1,95.13,454.69Z"/><path class="cls-2" d="M99.79,453.82l-.25,0A1.37,1.37,0,0,1,98,452.74l-1.43-8.41a1.37,1.37,0,0,1,1.12-1.59l.25,0a1.38,1.38,0,0,1,1.58,1.12l1.44,8.42A1.38,1.38,0,0,1,99.79,453.82Z"/><path class="cls-3" d="M69.37,463.87h54.79a.37.37,0,0,0,.37-.37v-5.33a.36.36,0,0,0-.37-.37H69.37a.37.37,0,0,0-.37.37v5.33A.38.38,0,0,0,69.37,463.87Z"/></g><g id="jeans_copy_5" data-name="jeans copy 5"><path class="cls-4" d="M91.13,305.51v131h32.1V378.89A24.86,24.86,0,0,1,148,354.1h6a24.86,24.86,0,0,1,24.79,24.79v57.65H210v-131Z"/></g><g id="hoodie_copy_6-2" data-name="hoodie copy 6"><path class="cls-5" d="M208.27,205.32s-8.68-35.5-57.27-29.9c0,0-45.12-9.34-56.4,29.9L89.39,210V326.77H210l3.47-114.91Z"/><line class="cls-5" x1="210.44" y1="205.72" x2="182.24" y2="205.72"/><line class="cls-5" x1="91.56" y1="205.72" x2="120.2" y2="205.72"/><path class="cls-6" d="M183.54,200.08s-5.21,29.5-33,27.77c0,0-30.37-1.74-32.11-26.9"/><path class="cls-6" d="M168.35,207.46"/><path class="cls-7" d="M167.92,247.37h0a1.3,1.3,0,0,0,1.3-1.3V208.76a1.3,1.3,0,0,0-1.3-1.3h0a1.3,1.3,0,0,0-1.3,1.3v37.31A1.3,1.3,0,0,0,167.92,247.37Z"/><path class="cls-7" d="M133.21,247.37h0a1.3,1.3,0,0,0,1.3-1.3V208.76a1.3,1.3,0,0,0-1.3-1.3h0a1.3,1.3,0,0,0-1.3,1.3v37.31A1.3,1.3,0,0,0,133.21,247.37Z"/><path class="cls-10" d="M132,280.43V280a4.81,4.81,0,0,1,4.81-4.82h27.6a4.81,4.81,0,0,1,4.81,4.82v.47a4.82,4.82,0,0,0,4.82,4.82h.78a4.81,4.81,0,0,1,4.81,4.82v21.47a4.81,4.81,0,0,1-4.81,4.82H127.18a4.81,4.81,0,0,1-4.81-4.82V290.07a4.81,4.81,0,0,1,4.81-4.82h0A4.82,4.82,0,0,0,132,280.43Z"/><path class="cls-5" d="M65.5,334.5"/></g><g id="kasket_copy_5" data-name="kasket copy 5"><path class="cls-12" d="M207.84,83.81S194,46.49,148.83,50c0,0-42.52-3.48-56.4,31.23v31.24H207.84Z"/><path class="cls-13" d="M130.61,101.59c1.34,2.2,7.56,2.22,20,2.17,11.28,0,17-.1,18.22-2.17,3.39-5.53-6-23.86-19.09-23.86S127.21,96,130.61,101.59Z"/><path d="M131.91,110.71h35.58a4.79,4.79,0,0,0,4.77-4.78h0a4.79,4.79,0,0,0-4.77-4.77H131.91a4.79,4.79,0,0,0-4.77,4.77h0A4.79,4.79,0,0,0,131.91,110.71Z"/></g><g id="hår_copy_5" data-name="hår copy 5"><path class="cls-14" d="M96.77,113.31S87.22,115,86.35,124.59c0,0-12.14,9.54-.86,23.43,0,0-1.74,8.68,8.67,11.28L207,158.43s6.94.87,8.68-9.54c0,0,12.14-10.42,0-22.56,0,0,2.6-10.42-7.81-12.15S96.77,113.31,96.77,113.31Z"/></g><g id="ansigt_copy_5" data-name="ansigt copy 5"><ellipse class="cls-8" cx="150.57" cy="192.27" rx="14.32" ry="10.85"/><ellipse class="cls-9" cx="205.67" cy="134.57" rx="8.24" ry="9.11"/><ellipse class="cls-9" cx="94.6" cy="136.3" rx="8.24" ry="9.11"/><path class="cls-8" d="M205.67,113.74V158s0,11.28-9.55,15.62l-20,14.75a19.22,19.22,0,0,1-11.28,3.47h-32.1s-8.68,0-13.89-6.94l-20-16.49s-5.21-1.74-4.34-15.62V112H205.67Z"/><circle cx="179.86" cy="134.87" r="5.21"/><circle cx="132.14" cy="134.87" r="5.21"/><path d="M116.67,128.5l16.47-.63a5.22,5.22,0,0,0,5-5.4h0a5.22,5.22,0,0,0-5.4-5l-16.47.63a5.23,5.23,0,0,0-5,5.4h0A5.22,5.22,0,0,0,116.67,128.5Z"/><path d="M169.67,130.92l17.19,2.44a5.22,5.22,0,0,0,5.88-4.42h0a5.22,5.22,0,0,0-4.42-5.89l-17.19-2.44a5.22,5.22,0,0,0-5.88,4.43h0A5.22,5.22,0,0,0,169.67,130.92Z"/><path class="cls-6" d="M154.68,177.22a60.09,60.09,0,0,1-16.18.28c-.69-.08-1.37-.18-2-.28"/><path class="cls-15" d="M150.13,163.64h0a9.14,9.14,0,0,0,9.11-9.11v-8.68a9.14,9.14,0,0,0-9.11-9.11h0a9.14,9.14,0,0,0-9.11,9.11v8.68A9.14,9.14,0,0,0,150.13,163.64Z"/></g><ellipse class="cls-8" cx="152.47" cy="199.48" rx="16.83" ry="9.11" transform="translate(-83.5 285.27) rotate(-72.59)"/><ellipse class="cls-9" cx="143.43" cy="195.69" rx="7.73" ry="3.25" transform="translate(-86.22 273.98) rotate(-72.59)"/><path class="cls-5" d="M115.71,286.58c14.77,2.3,27.26-20.24,30.34-25.8,11.71-21.14,15.31-49.42,7.1-53.61-.65-.33-2.39-1-6.07.25-19.4,6.8-24.91,45.06-25.58,50.08L95.92,209.11c-1.68-3.56-7.82-4.21-13.64-1.46h0c-5.83,2.76-9.22,7.92-7.54,11.47L100.2,273C102.4,277.08,107.57,285.32,115.71,286.58Z"/><path class="cls-5" d="M203,292.53c12.63,8,33.07-7.71,38.11-11.58,19.16-14.72,33.74-39.22,27.88-46.34-.46-.56-1.78-1.9-5.67-2.19-20.5-1.5-40.8,31.41-43.42,35.74l-4.17-54.58c-.13-3.93-5.5-7-11.94-6.77h0c-6.44.21-11.6,3.59-11.48,7.52l1.9,59.51C194.61,278.51,196.07,288.12,203,292.53Z"/><ellipse class="cls-8" cx="263.6" cy="228.22" rx="16.83" ry="9.11" transform="translate(10.94 468.48) rotate(-84.44)"/><g id="Iphone_copy" data-name="Iphone copy"><rect class="cls-16" x="254.51" y="190.13" width="24.94" height="42.75" rx="4.72" ry="4.72"/><path d="M274.74,190.25a4.6,4.6,0,0,1,4.59,4.59v33.32a4.6,4.6,0,0,1-4.59,4.59H259.23a4.6,4.6,0,0,1-4.59-4.59V194.84a4.6,4.6,0,0,1,4.59-4.59h15.51m0-.25H259.23a4.84,4.84,0,0,0-4.84,4.84v33.32a4.84,4.84,0,0,0,4.84,4.84h15.51a4.84,4.84,0,0,0,4.84-4.84V194.84a4.84,4.84,0,0,0-4.84-4.84Z"/><rect class="cls-17" x="256.36" y="194.06" width="21.83" height="33.45"/><path class="cls-18" d="M278.06,194.18v33.21H256.49V194.18h21.57m.25-.25H256.24v33.71h22.07V193.93Z"/><ellipse cx="262.9" cy="192.01" rx="0.44" ry="0.4"/><path d="M262.9,191.61a.4.4,0,1,0,.44.4.42.42,0,0,0-.44-.4Z"/><rect x="264.89" y="191.88" width="4.86" height="0.36" rx="0.11" ry="0.11"/><path d="M269.65,191.88H265a.11.11,0,0,0-.11.1v.15a.1.1,0,0,0,.11.1h4.65a.1.1,0,0,0,.11-.1V192a.11.11,0,0,0-.11-.1Z"/><ellipse cx="267.28" cy="190.76" rx="0.24" ry="0.22"/><path d="M267.28,190.54a.22.22,0,1,0,0,.44.22.22,0,1,0,0-.44Z"/><path class="cls-16" d="M267,231.8a1.76,1.76,0,1,1,1.92-1.75A1.84,1.84,0,0,1,267,231.8Z"/><path d="M267,228.42a1.64,1.64,0,1,1-1.79,1.63,1.72,1.72,0,0,1,1.79-1.63m0-.25a1.89,1.89,0,1,0,2.05,1.88,2,2,0,0,0-2.05-1.88Z"/><rect class="cls-16" x="279.48" y="199.3" width="0.52" height="3.22" rx="0.1" ry="0.1"/><path d="M279.9,199.3h-.32a.1.1,0,0,0-.1.1v3a.11.11,0,0,0,.1.1h.32a.1.1,0,0,0,.1-.1v-3a.09.09,0,0,0-.1-.1Z"/><rect class="cls-16" x="254" y="196.44" width="0.49" height="1.88" rx="0.09" ry="0.09"/><path d="M254.39,196.44h-.3a.09.09,0,0,0-.09.09v1.69a.09.09,0,0,0,.09.09h.3a.1.1,0,0,0,.1-.09v-1.69a.1.1,0,0,0-.1-.09Z"/><rect class="cls-16" x="254" y="199.92" width="0.49" height="2.32" rx="0.09" ry="0.09"/><path d="M254.39,199.92h-.3a.09.09,0,0,0-.09.1v2.13a.09.09,0,0,0,.09.1h.3a.1.1,0,0,0,.1-.1V200a.1.1,0,0,0-.1-.1Z"/><rect class="cls-16" x="254" y="203.05" width="0.49" height="2.41" rx="0.09" ry="0.09"/><path d="M254.39,203.05h-.3a.09.09,0,0,0-.09.1v2.22a.1.1,0,0,0,.09.1h.3a.11.11,0,0,0,.1-.1v-2.22a.1.1,0,0,0-.1-.1Z"/></g><ellipse class="cls-9" cx="254.35" cy="224.52" rx="7.73" ry="3.25" transform="translate(6.26 455.94) rotate(-84.44)"/></symbol></defs><title>Artboard 3</title><g id="farver"><use width="300" height="500" xlink:href="#Boymod01"/><use width="300" height="500" transform="translate(300)" xlink:href="#Boymob02"/><use width="300" height="500" transform="translate(600)" xlink:href="#Boymob03"/><use width="300" height="500" transform="translate(900)" xlink:href="#Boymob04"/><use width="300" height="500" transform="translate(1200)" xlink:href="#Boymob05"/><use width="300" height="500" transform="translate(1500)" xlink:href="#Tænker01"/><use width="300" height="500" transform="translate(1800)" xlink:href="#Tænker02"/><use width="300" height="500" transform="translate(2100)" xlink:href="#Tænker03"/></g></svg>
