<svg id="jubel2" xmlns="http://www.w3.org/2000/svg" xmlns:xlink="http://www.w3.org/1999/xlink" viewBox="0 0 1600 450"><defs><style>.cls-1{fill:none;}.cls-2{fill:#ffb636;}.cls-3{fill:#ffd469;}.cls-4{fill:#a06c33;}.cls-5{fill:#f7f9aa;}.cls-6{fill:#55c6f1;}.cls-7{fill:#f56c80;}.cls-8{fill:#b19deb;}.cls-9{fill:#2b3b47;}</style><symbol id="j1" data-name="j1" viewBox="0 0 799 449.438"><g id="background"><rect class="cls-1" width="799" height="449.4375"/></g><g id="confetti1"><rect class="cls-1" x="136.8288" y="179.0259" width="110.3619" height="86.6416"/><path class="cls-2" d="M176.0188,205.1331l33.8951,30.5631-48.74,20.9239s-2.4741,1.1755-4.206-.47c0,0-1.7318-.94-1.237-3.7616Z"/><path class="cls-3" d="M156.9682,256.15s-1.56-.9219-1.2749-3.5172l1.7989-4.3463,24.9592-36.3353L192.1,221.59l-4.206,3.2914Z"/><ellipse class="cls-4" cx="193.2432" cy="219.8523" rx="7.155" ry="23.002" transform="translate(-99.302 210.0926) rotate(-46.7748)"/><ellipse class="cls-5" cx="175.6477" cy="232.2872" rx="1.4845" ry="1.4106"/><ellipse class="cls-6" cx="160.5557" cy="190.2043" rx="1.8556" ry="1.7633"/><ellipse class="cls-6" cx="216.2228" cy="194.9063" rx="1.8556" ry="1.7633"/><ellipse class="cls-7" cx="163.4009" cy="209.1299" rx="2.7215" ry="2.5861"/><ellipse class="cls-7" cx="185.9151" cy="244.63" rx="2.7215" ry="2.5861"/><ellipse class="cls-2" cx="212.8828" cy="247.4512" rx="2.7215" ry="2.5861"/><ellipse class="cls-2" cx="225.5007" cy="215.7127" rx="2.7215" ry="2.5861"/><ellipse class="cls-7" cx="212.388" cy="208.6597" rx="3.2163" ry="3.0563"/><path class="cls-7" d="M200.1487,227.9784s.6623,1.1259,2.568.4987c0,0,11.2686-8.7051,19.6912.755a2.0437,2.0437,0,0,0,2.2263-.1814,1.4716,1.4716,0,0,0,.3874-1.9193s-8.634-11.8025-24.5066-1.3065A1.6842,1.6842,0,0,0,200.1487,227.9784Z"/><path class="cls-6" d="M183.4411,208.66a1.5773,1.5773,0,0,1-.7423-2.116s8.1645-10.1093-2.4741-16.457a1.4475,1.4475,0,0,1,0-1.8808,1.742,1.742,0,0,1,1.9793-.47s13.1127,6.3477,3.4637,20.4538A2.0113,2.0113,0,0,1,183.4411,208.66Z"/><path class="cls-8" d="M198.78,226.4918s.4949-1.6457-.7422-1.6457c0,0-3.2163-.7053-2.9689-2.1159,0,0,.4948-1.8808,4.206-1.1755,0,0,4.2059-.2351,4.9482-3.5265,0,0,1.4844-3.0563-3.4638-5.1722,0,0-4.2059-.7053-3.9585-2.351,0,0-.2474-1.6457,4.4533-1.1755,0,0,4.4534-.2351,4.9482-3.9967,0,0,.2474-4.4669-5.1956-5.1722,0,0-1.7318.2351-1.7318,1.1755a1.2375,1.2375,0,0,0,.7422,1.4106s3.7111.94,2.9689,2.5861c0,0-1.4845,1.6457-3.2163.94,0,0-5.1956-.47-5.9378,3.7616a4.3821,4.3821,0,0,0,3.2163,4.9371s4.4533.2351,4.2059,2.351c0,0-.4948,1.8808-4.4533,1.1755,0,0-4.9482.47-4.7008,3.9967,0,0-.4948,4.4669,5.1956,5.1722A1.5315,1.5315,0,0,0,198.78,226.4918Z"/><polygon class="cls-1" points="436.142 68.443 546.307 75.032 541.134 161.519 430.969 154.93 436.142 68.443"/><path class="cls-2" d="M503.5731,133.1187l-32.01-32.5322L521.4652,82.61s2.54-1.0257,4.17.7205c0,0,1.6727,1.0421,1.01,3.8287Z"/><path class="cls-3" d="M525.6356,83.33s1.5025,1.0134,1.0627,3.5871l-2.0552,4.2311-27.0841,34.78-9.0563-10.198,4.395-3.0344Z"/><ellipse class="cls-4" cx="487.2582" cy="117.3974" rx="7.155" ry="23.002" transform="translate(52.357 366.5233) rotate(-43.3519)"/><ellipse class="cls-5" cx="505.5648" cy="106.0352" rx="1.4106" ry="1.4845" transform="translate(369.5337 604.3672) rotate(-86.5771)"/><ellipse class="cls-6" cx="518.1173" cy="148.9442" rx="1.7633" ry="1.8556" transform="translate(338.5043 657.2443) rotate(-86.5771)"/><ellipse class="cls-6" cx="462.8302" cy="140.9269" rx="1.7633" ry="1.8556" transform="translate(294.5211 594.5173) rotate(-86.5771)"/><ellipse class="cls-7" cx="516.4071" cy="129.8825" rx="2.5861" ry="2.7215" transform="translate(355.9239 637.6136) rotate(-86.5771)"/><ellipse class="cls-7" cx="496.0525" cy="93.1014" rx="2.5861" ry="2.7215" transform="translate(373.5001 582.7104) rotate(-86.5771)"/><ellipse class="cls-2" cx="469.3015" cy="88.6751" rx="2.5861" ry="2.7215" transform="translate(352.7646 551.845) rotate(-86.5771)"/><ellipse class="cls-2" cx="454.8111" cy="119.6037" rx="2.5861" ry="2.7215" transform="translate(308.266 566.4624) rotate(-86.5771)"/><ellipse class="cls-7" cx="467.4793" cy="127.427" rx="3.0563" ry="3.2163" transform="translate(312.3684 586.4643) rotate(-86.5771)"/><path class="cls-7" d="M480.85,108.8735s-.5939-1.1634-2.5336-.6511c0,0-11.7683,8.0167-19.6111-1.9294a2.0435,2.0435,0,0,0-2.2331.0482,1.4715,1.4715,0,0,0-.5013,1.8927s7.9139,12.2969,24.3848,2.7674A1.6843,1.6843,0,0,0,480.85,108.8735Z"/><path class="cls-6" d="M496.3746,129.1553a1.5773,1.5773,0,0,1,.6146,2.1565s-8.7536,9.6038,1.4871,16.5754a1.4474,1.4474,0,0,1-.1123,1.8774,1.7419,1.7419,0,0,1-2.0038.3512s-12.71-7.1193-2.2364-20.624A2.0114,2.0114,0,0,1,496.3746,129.1553Z"/><path class="cls-8" d="M482.1272,110.4391s-.5921,1.6133.6427,1.6871c0,0,3.1685.8961,2.8373,2.2894,0,0-.6063,1.8479-4.2687.9223,0,0-4.2125-.0164-5.15,3.2248,0,0-1.6643,2.9622,3.1488,5.37,0,0,4.1563.9551,3.8111,2.5831,0,0,.1487,1.6575-4.5156.9075,0,0-4.4595-.0312-5.178,3.6942,0,0-.5137,4.4441,4.8775,5.4732,0,0,1.7428-.1313,1.799-1.07a1.2375,1.2375,0,0,0-.6567-1.4524s-3.6484-1.16-2.8092-2.7587c0,0,1.58-1.5541,3.2667-.7467,0,0,5.1583.78,6.1518-3.4a4.3821,4.3821,0,0,0-2.9158-5.12s-4.4314-.5006-4.0581-2.5979c0,0,.6063-1.8479,4.5156-.9075,0,0,4.9675-.174,4.9311-3.709,0,0,.7606-4.4293-4.8776-5.4731A1.5316,1.5316,0,0,0,482.1272,110.4391Z"/></g><g id="confetti2"><path class="cls-9" d="M560.1,172.2521s1.2782.4351,1.1343,1.2916-2.0158,11.9919,8.6149,17.0818c0,0,1.17,1.0774.3331,2.0377a3.0945,3.0945,0,0,1-3.7235-.6259s-6.5051-4.1762-7.7986-11.22a21.665,21.665,0,0,1-11.0023,7.839s-2.6613,1.094-3.4294.3043c0,0-.0781-2.215.87-2.496a16.43,16.43,0,0,0,13.3243-13.6141S559.26,171.8907,560.1,172.2521Z"/><path class="cls-2" d="M537.6846,183.6773s-16.2084-2.7246-20.6933,14.5773l35.6663,6.2155S556.5245,188.1654,537.6846,183.6773Z"/><path class="cls-2" d="M577.1105,190.3047s-16.2084-2.7246-20.6933,14.5772l35.6663,6.2156S595.95,194.7927,577.1105,190.3047Z"/><path class="cls-3" d="M577.5486,190.3783s-10.0721,1.3761-15.2235,13.7284a9.8476,9.8476,0,0,0,3.18,1.6424s3.7929-.3821,3.8647-1.1814c0,0,2.61-7.8591,7.9624-12.9045C577.3326,191.6632,577.7316,190.6293,577.5486,190.3783Z"/><path class="cls-3" d="M538.1227,183.751s-10.0721,1.376-15.2235,13.7284a9.846,9.846,0,0,0,3.18,1.6423s3.7929-.3821,3.8647-1.1813c0,0,2.61-7.8592,7.9624-12.9046C537.9067,185.0358,538.3057,184.0019,538.1227,183.751Z"/><ellipse class="cls-4" cx="574.4154" cy="208.3477" rx="3.04" ry="18.1016" transform="matrix(0.1658, -0.9862, 0.9862, 0.1658, 273.729, 740.2777)"/><ellipse class="cls-4" cx="534.7704" cy="201.6836" rx="3.04" ry="18.1016" transform="translate(247.228 695.6218) rotate(-80.458)"/><path class="cls-8" d="M566.9851,231.7516s.6879-1.4376-.397-1.62c0,0-2.7121-1.1216-2.2774-2.38,0,0,.7241-1.6535,3.87-.459,0,0,3.7251.4043,4.8839-2.5075,0,0,1.7735-2.5866-2.24-5.2584,0,0-3.58-1.2674-3.1091-2.7416,0,0,.037-1.5471,4.0872-.4225,0,0,3.9421.4408,4.9565-2.9391,0,0,.9062-4.0638-3.7587-5.5137,0,0-1.5552-.04-1.7.8237a1.1724,1.1724,0,0,0,.4333,1.4043s3.11,1.41,2.2048,2.8115c0,0-1.5558,1.2918-2.9659.389,0,0-4.4843-1.1975-5.7882,2.5775a4.1168,4.1168,0,0,0,2.0591,5.006s3.87.8724,3.326,2.7782c0,0-.7241,1.6534-4.0871.4224,0,0-4.4124-.2979-4.74,2.9756,0,0-1.1232,4.0274,3.7587,5.5137A1.3659,1.3659,0,0,0,566.9851,231.7516Z"/><path class="cls-7" d="M526.593,203.0884s-.0882,1.0841.8186.8494c0,0,2.4751-.1861,2.529.71,0,0-.0489,1.2255-2.8867,1.5055,0,0-3.0437.94-3.0387,3.061,0,0-.5782,2.1207,3.4016,2.4546,0,0,3.2005-.3739,3.2937.6633,0,0,.4559.9432-3.0681,1.5525,0,0-3.225.9867-2.96,3.3439,0,0,.5638,2.7346,4.6711,2.1259,0,0,1.23-.47,1.0733-1.036,0,0,.0245-.6127-.7793-.7078,0,0-2.8771.1385-2.6076-.9926a2.6346,2.6346,0,0,1,2.2007-1.1762s3.8866-.7032,3.7248-3.39c0,0-.0442-2.2627-3.1811-2.36,0,0-3.3034.7038-3.475-.6163,0,0,.049-1.2256,3.0681-1.5525,0,0,3.5485-1.2221,2.7789-3.297,0,0-.3824-2.7815-4.671-2.1259C527.485,202.0994,526.5783,202.3342,526.593,203.0884Z"/><path class="cls-6" d="M540.5051,212.7962s-1.046.2787-.9839,1.981c0,0,4.3366,11.2285-5.1066,15.9046a1.7684,1.7684,0,0,0-.3654,1.86,1.2116,1.2116,0,0,0,1.4361.7632s11.3524-4.3034,6.6468-19.7086A1.3846,1.3846,0,0,0,540.5051,212.7962Z"/><path class="cls-7" d="M582.04,226.0879s.7662.7923-.1686,2.4252c0,0-9.5837,8.82-3.7844,18.0834a2.1325,2.1325,0,0,1-.6444,2,1.1723,1.1723,0,0,1-1.6447.0322s-7.6538-9.8482,4.412-22.5668A1.3329,1.3329,0,0,1,582.04,226.0879Z"/><ellipse class="cls-6" cx="548.2788" cy="212.4316" rx="1.6286" ry="1.6658" transform="translate(247.8977 717.9097) rotate(-80.458)"/><ellipse class="cls-6" cx="585.7664" cy="217.1918" rx="1.6286" ry="1.6658" transform="translate(274.4766 758.8496) rotate(-80.458)"/><ellipse class="cls-2" cx="553.2043" cy="219.9754" rx="2.1715" ry="2.2211" transform="translate(244.5673 729.0603) rotate(-80.458)"/><ellipse class="cls-7" cx="551.8517" cy="234.7211" rx="2.1715" ry="2.2211" transform="translate(228.8973 740.0277) rotate(-80.458)"/><ellipse class="cls-8" cx="530.9119" cy="237.3665" rx="2.1715" ry="2.2211" transform="translate(208.8198 721.5844) rotate(-80.458)"/><ellipse class="cls-2" cx="522.4037" cy="227.0186" rx="2.0629" ry="2.11" transform="translate(211.9268 704.5615) rotate(-80.458)"/><ellipse class="cls-2" cx="561.0859" cy="243.4296" rx="1.8457" ry="1.8879" transform="translate(228.0127 756.399) rotate(-80.458)"/><path class="cls-9" d="M292.9347,81.3659s1.2782.435,1.1342,1.2916-2.0158,11.9919,8.615,17.0817c0,0,1.17,1.0775.3331,2.0377a3.0945,3.0945,0,0,1-3.7236-.6259s-6.5051-4.1761-7.7985-11.2195a21.6657,21.6657,0,0,1-11.0023,7.839s-2.6613,1.094-3.4295.3043c0,0-.0781-2.2151.87-2.4961a16.43,16.43,0,0,0,13.3243-13.614S292.0946,81.0044,292.9347,81.3659Z"/><path class="cls-2" d="M270.519,92.7911s-16.2084-2.7246-20.6934,14.5772l35.6664,6.2156S289.3589,97.2791,270.519,92.7911Z"/><path class="cls-2" d="M309.9449,99.4184s-16.2084-2.7245-20.6934,14.5773l35.6664,6.2155S328.7848,103.9065,309.9449,99.4184Z"/><path class="cls-3" d="M310.383,99.4921s-10.0721,1.376-15.2235,13.7284a9.846,9.846,0,0,0,3.18,1.6423s3.7928-.3821,3.8646-1.1813c0,0,2.61-7.8592,7.9625-12.9046C310.167,100.7769,310.566,99.743,310.383,99.4921Z"/><path class="cls-3" d="M270.9571,92.8647s-10.0721,1.3761-15.2235,13.7284a9.846,9.846,0,0,0,3.18,1.6423s3.7928-.382,3.8646-1.1813c0,0,2.61-7.8591,7.9625-12.9045C270.7411,94.15,271.14,93.1157,270.9571,92.8647Z"/><ellipse class="cls-4" cx="307.2498" cy="117.4615" rx="3.04" ry="18.1016" transform="translate(140.4804 400.9885) rotate(-80.458)"/><ellipse class="cls-4" cx="267.6048" cy="110.7973" rx="3.04" ry="18.1016" transform="matrix(0.1658, -0.9862, 0.9862, 0.1658, 113.9794, 356.3327)"/><path class="cls-8" d="M299.82,140.8654s.6879-1.4377-.3971-1.62c0,0-2.712-1.1216-2.2774-2.38,0,0,.7242-1.6535,3.87-.4589,0,0,3.7251.4042,4.884-2.5076,0,0,1.7735-2.5866-2.24-5.2583,0,0-3.58-1.2675-3.1091-2.7416,0,0,.0369-1.5471,4.0872-.4225,0,0,3.9421.4407,4.9565-2.9392,0,0,.9062-4.0637-3.7587-5.5136,0,0-1.5552-.04-1.7.8237a1.1723,1.1723,0,0,0,.4333,1.4042s3.11,1.41,2.2048,2.8116c0,0-1.5559,1.2917-2.966.389,0,0-4.4842-1.1976-5.7881,2.5774a4.117,4.117,0,0,0,2.0591,5.0061s3.87.8723,3.326,2.7781c0,0-.7242,1.6535-4.0872.4225,0,0-4.4123-.2979-4.7395,2.9756,0,0-1.1232,4.0273,3.7588,5.5136A1.3659,1.3659,0,0,0,299.82,140.8654Z"/><path class="cls-7" d="M259.4274,112.2022s-.0882,1.0841.8185.8493c0,0,2.4752-.1861,2.5291.71,0,0-.0489,1.2256-2.8868,1.5056,0,0-3.0436.94-3.0386,3.061,0,0-.5783,2.1206,3.4016,2.4546,0,0,3.2005-.3739,3.2937.6632,0,0,.4558.9433-3.0682,1.5525,0,0-3.225.9867-2.96,3.3439,0,0,.5638,2.7347,4.671,2.126,0,0,1.23-.47,1.0734-1.036,0,0,.0244-.6128-.7794-.7079,0,0-2.877.1386-2.6075-.9925a2.6348,2.6348,0,0,1,2.2006-1.1763s3.8867-.7032,3.7248-3.39c0,0-.0442-2.2627-3.181-2.36,0,0-3.3034.7038-3.475-.6163,0,0,.0489-1.2255,3.0681-1.5525,0,0,3.5485-1.222,2.7789-3.2969,0,0-.3824-2.7816-4.671-2.1259C260.3194,111.2132,259.4126,111.448,259.4274,112.2022Z"/><path class="cls-6" d="M273.34,121.91s-1.046.2788-.9839,1.981c0,0,4.3366,11.2286-5.1066,15.9046a1.7685,1.7685,0,0,0-.3654,1.86,1.2114,1.2114,0,0,0,1.4361.7631s11.3524-4.3033,6.6468-19.7085A1.3847,1.3847,0,0,0,273.34,121.91Z"/><path class="cls-7" d="M314.8742,135.2016s.7661.7923-.1686,2.4253c0,0-9.5837,8.82-3.7844,18.0833a2.1325,2.1325,0,0,1-.6444,2,1.1724,1.1724,0,0,1-1.6448.0323s-7.6537-9.8483,4.4121-22.5669A1.3329,1.3329,0,0,1,314.8742,135.2016Z"/><ellipse class="cls-6" cx="281.1132" cy="121.5454" rx="1.6286" ry="1.6658" transform="translate(114.6491 378.6205) rotate(-80.458)"/><ellipse class="cls-6" cx="318.6007" cy="126.3056" rx="1.6286" ry="1.6658" transform="translate(141.228 419.5605) rotate(-80.458)"/><ellipse class="cls-2" cx="286.0387" cy="129.0892" rx="2.1715" ry="2.2211" transform="translate(111.3187 389.7711) rotate(-80.458)"/><ellipse class="cls-7" cx="284.6861" cy="143.8349" rx="2.1715" ry="2.2211" transform="translate(95.6487 400.7385) rotate(-80.458)"/><ellipse class="cls-8" cx="263.7462" cy="146.4803" rx="2.1715" ry="2.2211" transform="translate(75.5712 382.2953) rotate(-80.458)"/><ellipse class="cls-2" cx="255.2381" cy="136.1324" rx="2.0629" ry="2.11" transform="translate(78.6782 365.2723) rotate(-80.458)"/><ellipse class="cls-2" cx="293.9203" cy="152.5433" rx="1.8457" ry="1.8879" transform="translate(94.7641 417.1098) rotate(-80.458)"/></g></symbol><symbol id="j2" data-name="j2" viewBox="0 0 799 449.438"><g id="background_copy" data-name="background copy"><rect class="cls-1" width="799" height="449.4375"/></g><g id="confetti1_copy" data-name="confetti1 copy"><rect class="cls-1" x="136.8288" y="179.0259" width="110.3619" height="86.6416"/><path class="cls-2" d="M176.0188,205.1331l33.8951,30.5631-48.74,20.9239s-2.4741,1.1755-4.206-.47c0,0-1.7318-.94-1.237-3.7616Z"/><path class="cls-3" d="M156.9682,256.15s-1.56-.9219-1.2749-3.5172l1.7989-4.3463,24.9592-36.3353L192.1,221.59l-4.206,3.2914Z"/><ellipse class="cls-4" cx="193.2432" cy="219.8523" rx="7.155" ry="23.002" transform="translate(-99.302 210.0926) rotate(-46.7748)"/><ellipse class="cls-5" cx="175.6477" cy="232.2872" rx="1.4845" ry="1.4106"/><ellipse class="cls-6" cx="164.0513" cy="187.208" rx="1.8556" ry="1.7633"/><ellipse class="cls-6" cx="219.7184" cy="191.91" rx="1.8556" ry="1.7633"/><ellipse class="cls-7" cx="166.8965" cy="206.1336" rx="2.7215" ry="2.5861"/><ellipse class="cls-7" cx="189.4108" cy="241.6338" rx="2.7215" ry="2.5861"/><ellipse class="cls-2" cx="216.3784" cy="244.455" rx="2.7215" ry="2.5861"/><ellipse class="cls-2" cx="228.9963" cy="212.7164" rx="2.7215" ry="2.5861"/><ellipse class="cls-7" cx="215.8836" cy="205.6634" rx="3.2163" ry="3.0563"/><path class="cls-7" d="M203.6443,224.9822s.6623,1.1258,2.568.4986c0,0,11.2686-8.705,19.6912.7551a2.0437,2.0437,0,0,0,2.2263-.1814,1.4717,1.4717,0,0,0,.3875-1.9193s-8.634-11.8025-24.5066-1.3065A1.6842,1.6842,0,0,0,203.6443,224.9822Z"/><path class="cls-6" d="M186.9367,205.6634a1.5772,1.5772,0,0,1-.7423-2.1159s8.1646-10.1093-2.474-16.457a1.4474,1.4474,0,0,1,0-1.8808,1.7418,1.7418,0,0,1,1.9792-.47s13.1127,6.3477,3.4638,20.4537A2.0115,2.0115,0,0,1,186.9367,205.6634Z"/><path class="cls-8" d="M202.2761,223.4956s.4948-1.6457-.7423-1.6457c0,0-3.2163-.7053-2.9689-2.1159,0,0,.4948-1.8808,4.206-1.1755,0,0,4.2059-.2351,4.9482-3.5265,0,0,1.4844-3.0563-3.4638-5.1722,0,0-4.2059-.7053-3.9585-2.3511,0,0-.2474-1.6457,4.4534-1.1755,0,0,4.4533-.2351,4.9482-3.9967,0,0,.2474-4.4669-5.1956-5.1722,0,0-1.7319.2351-1.7319,1.1755a1.2375,1.2375,0,0,0,.7422,1.4106s3.7112.94,2.9689,2.5861c0,0-1.4844,1.6457-3.2163.94,0,0-5.1956-.47-5.9378,3.7616a4.3822,4.3822,0,0,0,3.2163,4.9372s4.4534.2351,4.206,2.351c0,0-.4949,1.8808-4.4534,1.1755,0,0-4.9482.47-4.7008,3.9967,0,0-.4948,4.4669,5.1956,5.1722A1.5316,1.5316,0,0,0,202.2761,223.4956Z"/><polygon class="cls-1" points="436.142 68.443 546.307 75.032 541.134 161.519 430.969 154.93 436.142 68.443"/><path class="cls-2" d="M503.5731,133.1187l-32.01-32.5322L521.4652,82.61s2.54-1.0257,4.17.7205c0,0,1.6727,1.0421,1.01,3.8287Z"/><path class="cls-3" d="M525.6356,83.33s1.5025,1.0134,1.0627,3.5871l-2.0552,4.2311-27.0841,34.78-9.0563-10.198,4.395-3.0344Z"/><ellipse class="cls-4" cx="487.2582" cy="117.3974" rx="7.155" ry="23.002" transform="translate(52.357 366.5233) rotate(-43.3519)"/><ellipse class="cls-5" cx="505.5648" cy="106.0352" rx="1.4106" ry="1.4845" transform="translate(369.5337 604.3672) rotate(-86.5771)"/><ellipse class="cls-6" cx="513.1235" cy="152.4398" rx="1.7633" ry="1.8556" transform="translate(330.3193 655.5464) rotate(-86.5771)"/><ellipse class="cls-6" cx="457.8364" cy="144.4225" rx="1.7633" ry="1.8556" transform="translate(286.3361 592.8193) rotate(-86.5771)"/><ellipse class="cls-7" cx="511.4133" cy="133.3781" rx="2.5861" ry="2.7215" transform="translate(347.7389 635.9157) rotate(-86.5771)"/><ellipse class="cls-7" cx="491.0588" cy="96.5971" rx="2.5861" ry="2.7215" transform="translate(365.3151 581.0124) rotate(-86.5771)"/><ellipse class="cls-2" cx="464.3077" cy="92.1708" rx="2.5861" ry="2.7215" transform="translate(344.5796 550.1471) rotate(-86.5771)"/><ellipse class="cls-2" cx="449.8174" cy="123.0993" rx="2.5861" ry="2.7215" transform="translate(300.081 564.7645) rotate(-86.5771)"/><ellipse class="cls-7" cx="462.4856" cy="130.9227" rx="3.0563" ry="3.2163" transform="translate(304.1835 584.7664) rotate(-86.5771)"/><path class="cls-7" d="M475.8564,112.3691s-.5938-1.1634-2.5336-.6511c0,0-11.7682,8.0167-19.611-1.9294a2.0438,2.0438,0,0,0-2.2331.0482,1.4716,1.4716,0,0,0-.5014,1.8927s7.9139,12.297,24.3849,2.7674A1.6842,1.6842,0,0,0,475.8564,112.3691Z"/><path class="cls-6" d="M491.3808,132.651a1.5771,1.5771,0,0,1,.6146,2.1564s-8.7535,9.6038,1.4871,16.5754a1.4474,1.4474,0,0,1-.1123,1.8774,1.7418,1.7418,0,0,1-2.0038.3512s-12.71-7.1193-2.2363-20.624A2.0113,2.0113,0,0,1,491.3808,132.651Z"/><path class="cls-8" d="M477.1335,113.9348s-.5922,1.6132.6426,1.687c0,0,3.1685.8961,2.8373,2.2894,0,0-.6062,1.8479-4.2686.9223,0,0-4.2125-.0164-5.15,3.2248,0,0-1.6643,2.9622,3.1487,5.37,0,0,4.1564.9551,3.8111,2.5831,0,0,.1487,1.6576-4.5156.9075,0,0-4.4594-.0312-5.178,3.6942,0,0-.5136,4.4442,4.8776,5.4732,0,0,1.7428-.1313,1.7989-1.07a1.2375,1.2375,0,0,0-.6567-1.4524s-3.6483-1.16-2.8092-2.7588c0,0,1.58-1.5541,3.2668-.7467,0,0,5.1582.78,6.1518-3.4a4.3824,4.3824,0,0,0-2.9158-5.12s-4.4314-.5-4.0581-2.5979c0,0,.6062-1.8479,4.5156-.9075,0,0,4.9674-.1739,4.931-3.7089,0,0,.7606-4.4294-4.8775-5.4732A1.5315,1.5315,0,0,0,477.1335,113.9348Z"/></g><g id="confetti2_copy" data-name="confetti2 copy"><path class="cls-9" d="M560.1,172.2521s1.2782.4351,1.1343,1.2916-2.0158,11.9919,8.6149,17.0818c0,0,1.17,1.0774.3331,2.0377a3.0945,3.0945,0,0,1-3.7235-.6259s-6.5051-4.1762-7.7986-11.22a21.665,21.665,0,0,1-11.0023,7.839s-2.6613,1.094-3.4294.3043c0,0-.0781-2.215.87-2.496a16.43,16.43,0,0,0,13.3243-13.6141S559.26,171.8907,560.1,172.2521Z"/><path class="cls-2" d="M537.6846,183.6773s-16.2084-2.7246-20.6933,14.5773l35.6663,6.2155S556.5245,188.1654,537.6846,183.6773Z"/><path class="cls-2" d="M577.1105,190.3047s-16.2084-2.7246-20.6933,14.5772l35.6663,6.2156S595.95,194.7927,577.1105,190.3047Z"/><path class="cls-3" d="M577.5486,190.3783s-10.0721,1.3761-15.2235,13.7284a9.8476,9.8476,0,0,0,3.18,1.6424s3.7929-.3821,3.8647-1.1814c0,0,2.61-7.8591,7.9624-12.9045C577.3326,191.6632,577.7316,190.6293,577.5486,190.3783Z"/><path class="cls-3" d="M538.1227,183.751s-10.0721,1.376-15.2235,13.7284a9.846,9.846,0,0,0,3.18,1.6423s3.7929-.3821,3.8647-1.1813c0,0,2.61-7.8592,7.9624-12.9046C537.9067,185.0358,538.3057,184.0019,538.1227,183.751Z"/><ellipse class="cls-4" cx="574.4154" cy="208.3477" rx="3.04" ry="18.1016" transform="matrix(0.1658, -0.9862, 0.9862, 0.1658, 273.729, 740.2777)"/><ellipse class="cls-4" cx="534.7704" cy="201.6836" rx="3.04" ry="18.1016" transform="translate(247.228 695.6218) rotate(-80.458)"/><path class="cls-8" d="M566.4857,234.7479s.6879-1.4377-.397-1.62c0,0-2.7121-1.1216-2.2774-2.38,0,0,.7242-1.6535,3.87-.4589,0,0,3.7251.4042,4.8839-2.5076,0,0,1.7735-2.5866-2.24-5.2583,0,0-3.58-1.2675-3.109-2.7416,0,0,.0369-1.5471,4.0871-.4225,0,0,3.9421.4407,4.9565-2.9392,0,0,.9062-4.0637-3.7587-5.5136,0,0-1.5552-.04-1.7.8237a1.1723,1.1723,0,0,0,.4333,1.4042s3.11,1.41,2.2049,2.8116c0,0-1.5559,1.2917-2.966.389,0,0-4.4842-1.1976-5.7882,2.5774a4.117,4.117,0,0,0,2.0591,5.0061s3.87.8723,3.3261,2.7781c0,0-.7242,1.6535-4.0872.4225,0,0-4.4124-.2979-4.74,2.9756,0,0-1.1232,4.0273,3.7587,5.5136A1.3659,1.3659,0,0,0,566.4857,234.7479Z"/><path class="cls-7" d="M526.0936,206.0847s-.0881,1.0841.8186.8493c0,0,2.4751-.1861,2.5291.71,0,0-.049,1.2256-2.8868,1.5056,0,0-3.0437.94-3.0387,3.061,0,0-.5782,2.1206,3.4016,2.4546,0,0,3.2-.3739,3.2937.6632,0,0,.4559.9433-3.0681,1.5525,0,0-3.225.9867-2.96,3.3439,0,0,.5637,2.7347,4.671,2.126,0,0,1.23-.47,1.0733-1.036,0,0,.0245-.6128-.7793-.7079,0,0-2.8771.1386-2.6075-.9925a2.6346,2.6346,0,0,1,2.2006-1.1763s3.8867-.7032,3.7248-3.39c0,0-.0442-2.2627-3.181-2.36,0,0-3.3035.7038-3.4751-.6163,0,0,.049-1.2255,3.0682-1.5525,0,0,3.5484-1.222,2.7788-3.2969,0,0-.3824-2.7816-4.671-2.1259C526.9856,205.0957,526.0789,205.3305,526.0936,206.0847Z"/><path class="cls-6" d="M540.0057,215.7924s-1.0459.2788-.9838,1.981c0,0,4.3365,11.2286-5.1066,15.9046a1.7685,1.7685,0,0,0-.3654,1.86,1.2113,1.2113,0,0,0,1.436.7631s11.3524-4.3033,6.6468-19.7085A1.3846,1.3846,0,0,0,540.0057,215.7924Z"/><path class="cls-7" d="M581.5405,229.0841s.7661.7923-.1687,2.4253c0,0-9.5837,8.82-3.7844,18.0833a2.1325,2.1325,0,0,1-.6444,2,1.1723,1.1723,0,0,1-1.6447.0323s-7.6538-9.8483,4.412-22.5669A1.3331,1.3331,0,0,1,581.5405,229.0841Z"/><ellipse class="cls-6" cx="547.7794" cy="215.4279" rx="1.6286" ry="1.6658" transform="translate(244.5263 719.9168) rotate(-80.458)"/><ellipse class="cls-6" cx="585.267" cy="220.1881" rx="1.6286" ry="1.6658" transform="translate(271.1052 760.8567) rotate(-80.458)"/><ellipse class="cls-2" cx="552.705" cy="222.9717" rx="2.1715" ry="2.2211" transform="translate(241.1959 731.0674) rotate(-80.458)"/><ellipse class="cls-7" cx="551.3524" cy="237.7174" rx="2.1715" ry="2.2211" transform="translate(225.5259 742.0348) rotate(-80.458)"/><ellipse class="cls-8" cx="530.4125" cy="240.3628" rx="2.1715" ry="2.2211" transform="translate(205.4484 723.5915) rotate(-80.458)"/><ellipse class="cls-2" cx="521.9044" cy="230.0149" rx="2.0629" ry="2.11" transform="translate(208.5554 706.5685) rotate(-80.458)"/><ellipse class="cls-2" cx="560.5865" cy="246.4258" rx="1.8457" ry="1.8879" transform="translate(224.6413 758.406) rotate(-80.458)"/><path class="cls-9" d="M292.9347,81.3659s1.2782.435,1.1342,1.2916-2.0158,11.9919,8.615,17.0817c0,0,1.17,1.0775.3331,2.0377a3.0945,3.0945,0,0,1-3.7236-.6259s-6.5051-4.1761-7.7985-11.2195a21.6657,21.6657,0,0,1-11.0023,7.839s-2.6613,1.094-3.4295.3043c0,0-.0781-2.2151.87-2.4961a16.43,16.43,0,0,0,13.3243-13.614S292.0946,81.0044,292.9347,81.3659Z"/><path class="cls-2" d="M270.519,92.7911s-16.2084-2.7246-20.6934,14.5772l35.6664,6.2156S289.3589,97.2791,270.519,92.7911Z"/><path class="cls-2" d="M309.9449,99.4184s-16.2084-2.7245-20.6934,14.5773l35.6664,6.2155S328.7848,103.9065,309.9449,99.4184Z"/><path class="cls-3" d="M310.383,99.4921s-10.0721,1.376-15.2235,13.7284a9.846,9.846,0,0,0,3.18,1.6423s3.7928-.3821,3.8646-1.1813c0,0,2.61-7.8592,7.9625-12.9046C310.167,100.7769,310.566,99.743,310.383,99.4921Z"/><path class="cls-3" d="M270.9571,92.8647s-10.0721,1.3761-15.2235,13.7284a9.846,9.846,0,0,0,3.18,1.6423s3.7928-.382,3.8646-1.1813c0,0,2.61-7.8591,7.9625-12.9045C270.7411,94.15,271.14,93.1157,270.9571,92.8647Z"/><ellipse class="cls-4" cx="307.2498" cy="117.4615" rx="3.04" ry="18.1016" transform="translate(140.4804 400.9885) rotate(-80.458)"/><ellipse class="cls-4" cx="267.6048" cy="110.7973" rx="3.04" ry="18.1016" transform="matrix(0.1658, -0.9862, 0.9862, 0.1658, 113.9794, 356.3327)"/><path class="cls-8" d="M299.32,144.86s.6879-1.4377-.397-1.62c0,0-2.7121-1.1216-2.2774-2.38,0,0,.7241-1.6535,3.87-.4589,0,0,3.7251.4042,4.8839-2.5076,0,0,1.7735-2.5866-2.24-5.2583,0,0-3.58-1.2675-3.1091-2.7416,0,0,.037-1.5471,4.0872-.4225,0,0,3.9421.4407,4.9565-2.9392,0,0,.9062-4.0637-3.7587-5.5136,0,0-1.5552-.0395-1.7.8237a1.1723,1.1723,0,0,0,.4333,1.4042s3.11,1.41,2.2048,2.8116c0,0-1.5558,1.2917-2.9659.389,0,0-4.4843-1.1976-5.7882,2.5774a4.117,4.117,0,0,0,2.0591,5.0061s3.8695.8723,3.326,2.7781c0,0-.7241,1.6535-4.0871.4225,0,0-4.4124-.2979-4.74,2.9756,0,0-1.1232,4.0273,3.7587,5.5136A1.3659,1.3659,0,0,0,299.32,144.86Z"/><path class="cls-7" d="M258.928,116.1972s-.0882,1.0841.8186.8493c0,0,2.4751-.1861,2.529.71,0,0-.0489,1.2256-2.8867,1.5056,0,0-3.0437.94-3.0387,3.061,0,0-.5782,2.1206,3.4016,2.4546,0,0,3.2-.3739,3.2937.6632,0,0,.4559.9433-3.0681,1.5525,0,0-3.225.9867-2.96,3.3439,0,0,.5638,2.7347,4.6711,2.126,0,0,1.23-.47,1.0733-1.036,0,0,.0245-.6128-.7793-.7079,0,0-2.8771.1386-2.6076-.9925a2.6348,2.6348,0,0,1,2.2007-1.1763s3.8866-.7032,3.7248-3.39c0,0-.0442-2.2627-3.1811-2.36,0,0-3.3034.7038-3.475-.6163,0,0,.049-1.2255,3.0681-1.5525,0,0,3.5485-1.222,2.7789-3.2969,0,0-.3824-2.7816-4.671-2.1259C259.82,115.2082,258.9133,115.443,258.928,116.1972Z"/><path class="cls-6" d="M272.84,125.9049s-1.046.2788-.9839,1.981c0,0,4.3366,11.2286-5.1066,15.9046a1.7685,1.7685,0,0,0-.3654,1.86,1.2114,1.2114,0,0,0,1.4361.7631s11.3524-4.3033,6.6468-19.7085A1.3847,1.3847,0,0,0,272.84,125.9049Z"/><path class="cls-7" d="M314.3748,139.1966s.7662.7923-.1686,2.4253c0,0-9.5837,8.82-3.7844,18.0833a2.1325,2.1325,0,0,1-.6444,2,1.1723,1.1723,0,0,1-1.6447.0323s-7.6538-9.8483,4.412-22.5669A1.333,1.333,0,0,1,314.3748,139.1966Z"/><ellipse class="cls-6" cx="280.6138" cy="125.5404" rx="1.6286" ry="1.6658" transform="translate(110.2928 381.4608) rotate(-80.458)"/><ellipse class="cls-6" cx="318.1014" cy="130.3006" rx="1.6286" ry="1.6658" transform="translate(136.8717 422.4007) rotate(-80.458)"/><ellipse class="cls-2" cx="285.5393" cy="133.0842" rx="2.1715" ry="2.2211" transform="translate(106.9624 392.6114) rotate(-80.458)"/><ellipse class="cls-7" cx="284.1867" cy="147.8299" rx="2.1715" ry="2.2211" transform="translate(91.2923 403.5788) rotate(-80.458)"/><ellipse class="cls-8" cx="263.2469" cy="150.4753" rx="2.1715" ry="2.2211" transform="translate(71.2148 385.1355) rotate(-80.458)"/><ellipse class="cls-2" cx="254.7387" cy="140.1274" rx="2.0629" ry="2.11" transform="translate(74.3219 368.1126) rotate(-80.458)"/><ellipse class="cls-2" cx="293.4209" cy="156.5383" rx="1.8457" ry="1.8879" transform="translate(90.4078 419.9501) rotate(-80.458)"/></g></symbol></defs><title>jubelsprite2</title><use width="799" height="449.4375" transform="translate(0 0.5)" xlink:href="#j1"/><use width="799" height="449.4375" transform="translate(801 0.5)" xlink:href="#j2"/></svg>
