<svg xmlns="http://www.w3.org/2000/svg" xmlns:xlink="http://www.w3.org/1999/xlink" viewBox="0 0 600 500"><defs><style>.cls-1,.cls-14,.cls-6{fill:none;}.cls-2,.cls-3{fill:#fff;}.cls-10,.cls-11,.cls-12,.cls-13,.cls-14,.cls-2,.cls-3,.cls-4,.cls-5,.cls-6,.cls-7,.cls-8,.cls-9{stroke:#000;stroke-miterlimit:10;}.cls-2{stroke-width:0.25px;}.cls-12,.cls-14,.cls-3,.cls-7,.cls-9{stroke-width:2px;}.cls-4{fill:#16456a;}.cls-10,.cls-11,.cls-13,.cls-4,.cls-5,.cls-6,.cls-8{stroke-width:3px;}.cls-5{fill:#7f7f7f;}.cls-8,.cls-9{fill:#f4e8cd;}.cls-10{fill:#686868;}.cls-11{fill:#99b88e;}.cls-12,.cls-13{fill:#795d47;}</style><symbol id="ked1" data-name="ked1" viewBox="0 0 300 500"><rect class="cls-1" width="300" height="500"/><g id="sko_copy_2" data-name="sko copy 2"><path d="M176.9837,463.87H229.482A1.518,1.518,0,0,0,231,462.352h0a22.7783,22.7783,0,0,0-22.7782-22.7782H176.9837a1.5181,1.5181,0,0,0-1.5181,1.5181v21.26A1.518,1.518,0,0,0,176.9837,463.87Z"/><path d="M89.407,440.4414h31.9806a1.1468,1.1468,0,0,1,1.1468,1.1468V463.591a1.1468,1.1468,0,0,1-1.1468,1.1468H68.1468A1.1468,1.1468,0,0,1,67,463.591v-.7426A22.407,22.407,0,0,1,89.407,440.4414Z"/><path class="cls-2" d="M90.7921,455.5024l-.981.1676a1.0028,1.0028,0,0,1-1.1541-.8172l-1.5632-9.1478a1.0029,1.0029,0,0,1,.8172-1.1542l.981-.1676a1.0029,1.0029,0,0,1,1.1542.8172l1.5632,9.1478A1.0029,1.0029,0,0,1,90.7921,455.5024Z"/><path class="cls-2" d="M95.4458,454.6305l-.981.1676a1.0028,1.0028,0,0,1-1.1541-.8172l-1.5633-9.1479a1.003,1.003,0,0,1,.8173-1.1541l.981-.1677a1.0031,1.0031,0,0,1,1.1542.8173l1.5632,9.1478A1.003,1.003,0,0,1,95.4458,454.6305Z"/><path class="cls-2" d="M100.1,453.7586l-.981.1676a1.0028,1.0028,0,0,1-1.1541-.8173l-1.5633-9.1478a1.003,1.003,0,0,1,.8173-1.1541l.981-.1677a1.0031,1.0031,0,0,1,1.1542.8173l1.5632,9.1478A1.003,1.003,0,0,1,100.1,453.7586Z"/><path class="cls-2" d="M209.5209,455.5649l.249.0426a1.3753,1.3753,0,0,0,1.5827-1.1207l1.4382-8.4159a1.3753,1.3753,0,0,0-1.1207-1.5826l-.2491-.0426a1.3754,1.3754,0,0,0-1.5827,1.1207L208.4,453.9823A1.3751,1.3751,0,0,0,209.5209,455.5649Z"/><path class="cls-2" d="M204.8672,454.693l.2491.0426a1.3753,1.3753,0,0,0,1.5826-1.1207l1.4382-8.4159a1.3754,1.3754,0,0,0-1.1207-1.5827l-.2491-.0425a1.3752,1.3752,0,0,0-1.5826,1.1207l-1.4382,8.4159A1.3752,1.3752,0,0,0,204.8672,454.693Z"/><path class="cls-2" d="M200.2135,453.8211l.2491.0426a1.3753,1.3753,0,0,0,1.5826-1.1207l1.4382-8.4159a1.3754,1.3754,0,0,0-1.1207-1.5827l-.2491-.0425a1.3751,1.3751,0,0,0-1.5826,1.1207l-1.4382,8.4159A1.3753,1.3753,0,0,0,200.2135,453.8211Z"/><rect class="cls-3" x="67" y="458.6637" width="55.5344" height="6.0741"/><rect class="cls-3" x="175.4656" y="457.7959" width="55.5344" height="6.0741" rx="0.3713" ry="0.3713"/></g><g id="jeans_copy_2" data-name="jeans copy 2"><path class="cls-4" d="M208.873,305.51V436.5367H176.7672V378.885a24.8528,24.8528,0,0,0-24.7822-24.7822h-5.97a24.8528,24.8528,0,0,0-24.7822,24.7822v57.6517H89.9947V305.51Z"/></g><g id="hoodie_copy_2" data-name="hoodie copy 2"><path class="cls-5" d="M91.73,205.3168s8.6772-35.5016,57.27-29.8961c0,0,45.1217-9.3425,56.4021,29.8961l5.2064,4.6712V326.77H89.9947l-3.4709-114.913Z"/><line class="cls-5" x1="89.5608" y1="205.7219" x2="117.7619" y2="205.7219"/><line class="cls-5" x1="208.4392" y1="205.7219" x2="179.8042" y2="205.7219"/><path class="cls-6" d="M116.46,200.0817s5.2064,29.5026,32.9736,27.7671c0,0,30.37-1.7354,32.1058-26.8994"/><path class="cls-6" d="M131.6455,207.4573"/><rect class="cls-7" x="130.7778" y="207.4573" width="2.6032" height="39.9153" rx="1.3016" ry="1.3016"/><rect class="cls-7" x="165.4868" y="207.4573" width="2.6032" height="39.9153" rx="1.3016" ry="1.3016"/><ellipse class="cls-8" cx="82.619" cy="334.8975" rx="9.1111" ry="16.8297"/><ellipse class="cls-9" cx="92.381" cy="335.8072" rx="3.254" ry="7.7325"/><ellipse class="cls-8" cx="212.3439" cy="334.8975" rx="9.1111" ry="16.8297"/><ellipse class="cls-9" cx="202.582" cy="335.8072" rx="3.254" ry="7.7325"/><rect class="cls-5" x="200.1958" y="210.7219" width="23.4286" height="120.9916" rx="11.7143" ry="11.7143"/><rect class="cls-5" x="73.5079" y="210.7219" width="23.4286" height="122.8111" rx="11.7143" ry="11.7143"/><path class="cls-10" d="M168.0032,280.4338v-.4781a4.8158,4.8158,0,0,0-4.8159-4.8158H135.5936a4.8158,4.8158,0,0,0-4.8158,4.8158v.4781a4.816,4.816,0,0,1-4.8159,4.8159h-.781a4.8158,4.8158,0,0,0-4.8158,4.8158v21.4754a4.8158,4.8158,0,0,0,4.8158,4.8159h47.6382a4.8158,4.8158,0,0,0,4.8158-4.8159V290.0655a4.8158,4.8158,0,0,0-4.8158-4.8158h0A4.8159,4.8159,0,0,1,168.0032,280.4338Z"/></g><g id="kasket_copy_2" data-name="kasket copy 2"><path class="cls-11" d="M92.164,94.8065s13.8836-37.3122,59.0053-33.8413c0,0,42.5185-3.4709,56.4021,31.2381v31.2381H92.164Z"/><path class="cls-12" d="M169.3915,112.5949c-1.3373,2.1961-7.5623,2.217-19.9576,2.1693-11.288-.0435-16.9577-.1073-18.2223-2.1693-3.3927-5.5324,6.015-23.8606,19.09-23.8625C163.3587,88.7306,172.7949,107.0061,169.3915,112.5949Z"/><rect x="127.7407" y="112.161" width="45.1217" height="9.545" rx="4.7725" ry="4.7725"/></g><g id="hår_copy_2" data-name="hår copy 2"><path class="cls-13" d="M203.2328,124.3092s9.545,1.7354,10.4127,11.28c0,0,12.1482,9.545.8677,23.4286,0,0,1.7355,8.6772-8.6772,11.28l-112.8043-.8677s-6.9418.8677-8.6772-9.545c0,0-12.1482-10.4127,0-22.5609,0,0-2.6032-10.4127,7.81-12.1481S203.2328,124.3092,203.2328,124.3092Z"/></g><g id="ansigt_copy_2" data-name="ansigt copy 2"><ellipse class="cls-8" cx="149.4339" cy="203.2721" rx="14.3175" ry="10.8466"/><ellipse class="cls-9" cx="94.3333" cy="145.5684" rx="8.2434" ry="9.1111"/><ellipse class="cls-9" cx="205.4021" cy="147.3039" rx="8.2434" ry="9.1111"/><path class="cls-8" d="M94.3333,124.743v44.254s0,11.28,9.545,15.619l19.9577,14.7514a19.2451,19.2451,0,0,0,11.28,3.4709h32.1058s8.6773,0,13.8836-6.9418L201.0635,179.41s5.2063-1.7355,4.3386-15.6191v-40.783H94.3333Z"/><circle cx="125.1376" cy="146.87" r="5.2063"/><circle cx="172.8624" cy="146.87" r="5.2063"/><path d="M182.8321,148.6169l-14.278-8.2434a5.2215,5.2215,0,0,1-1.9056-7.1119h0a5.2216,5.2216,0,0,1,7.112-1.9056l14.278,8.2434a5.2216,5.2216,0,0,1,1.9056,7.112h0A5.2216,5.2216,0,0,1,182.8321,148.6169Z"/><path d="M131.99,139.6288l-16.1332,6.3952a5.2217,5.2217,0,0,1-6.7585-2.9215h0a5.2217,5.2217,0,0,1,2.9214-6.7585l16.1333-6.3951a5.2216,5.2216,0,0,1,6.7585,2.9214h0A5.2217,5.2217,0,0,1,131.99,139.6288Z"/><path class="cls-6" d="M140.3228,192.2327s7.8095-11.28,18.2222,0"/><rect class="cls-14" x="140.7566" y="147.7377" width="18.2222" height="26.8995" rx="9.1111" ry="9.1111"/></g></symbol></defs><title>ked_sprite</title><g id="Layer_2" data-name="Layer 2"><g id="Dreng_ked_2" data-name="Dreng ked 2"><use width="300" height="500" xlink:href="#ked1"/><use width="300" height="500" transform="translate(300)" xlink:href="#ked1"/></g></g></svg>
