<?xml version="1.0" encoding="utf-8"?>
<!-- Generator: Adobe Illustrator 21.1.0, SVG Export Plug-In . SVG Version: 6.00 Build 0)  -->
<svg version="1.1" id="Layer_1" xmlns="http://www.w3.org/2000/svg" xmlns:xlink="http://www.w3.org/1999/xlink" x="0px" y="0px"
	 viewBox="0 0 743 1000" style="enable-background:new 0 0 743 1000;" xml:space="preserve">
<style type="text/css">
	.st0{fill:#006837;}
	.st1{fill:none;}
	.st2{font-family:'Futura-CondensedMedium';}
	.st3{font-size:40px;}
	.st4{fill:#F99512;}
	.st5{font-size:19.029px;}
	.st6{fill:#FF00FF;}
	.st7{fill:#F7931E;}
</style>
<g>
	<path class="st0" d="M691,83v848H34V83H691 M701,73H24v868h677V73L701,73z"/>
</g>
<rect x="77.5" y="28.9" class="st1" width="275.5" height="34.1"/>
<text transform="matrix(1 0 0 1 77.5386 62.0923)" class="st2 st3">div = ”Scene”</text>
<g>
	<g>
		<path class="st4" d="M319.8,131v108H80V131H319.8 M324.8,126H75v118h249.8V126L324.8,126z"/>
	</g>
</g>
<g>
	<g>
		<path class="st4" d="M256.6,166.7v60H92.3v-60H256.6 M260.6,162.7H88.3v68h172.3V162.7L260.6,162.7z"/>
	</g>
</g>
<rect x="84.3" y="97.9" class="st1" width="131" height="16.2"/>
<text transform="matrix(1 0 0 1 84.2949 113.6953)" class="st2 st5">div = ”container”</text>
<rect x="92.4" y="138.8" class="st1" width="131" height="16.2"/>
<text transform="matrix(1 0 0 1 92.3823 154.6074)" class="st2 st5">div = ”spritesheet”</text>
<g>
	<path class="st6" d="M218.2,190.3v18.1H115.9v-18.1H218.2 M228.2,180.3H105.9v38.1h122.3V180.3L228.2,180.3z"/>
</g>
<rect x="117.6" y="188.8" class="st1" width="91.4" height="16.2"/>
<text transform="matrix(1 0 0 1 117.5957 204.5586)" class="st2 st5">keyframe</text>
<g>
	<path class="st4" d="M329.8,298v110H88V298H329.8 M333.8,294H84v118h249.8V294L333.8,294z"/>
</g>
<g>
	<path class="st4" d="M264.6,335.7v58H102.3v-58H264.6 M269.6,330.7H97.3v68h172.3V330.7L269.6,330.7z"/>
</g>
<rect x="93.3" y="265.9" class="st1" width="131" height="16.2"/>
<text transform="matrix(1 0 0 1 93.2949 281.6953)" class="st2 st5">div = ”container”</text>
<rect x="101.4" y="306.8" class="st1" width="131" height="16.2"/>
<text transform="matrix(1 0 0 1 101.3823 322.6074)" class="st2 st5">div = ”spritesheet”</text>
<g>
	<path class="st6" d="M227.2,358.3v18.1H124.9v-18.1H227.2 M237.2,348.3H114.9v38.1h122.3V348.3L237.2,348.3z"/>
</g>
<rect x="126.6" y="356.8" class="st1" width="65.4" height="16.2"/>
<text transform="matrix(1 0 0 1 126.5957 372.5586)" class="st2 st5">keyframes</text>
<g>
	<g>
		<path class="st4" d="M328.8,460v108H89V460H328.8 M333.8,455H84v118h249.8V455L333.8,455z"/>
	</g>
</g>
<g>
	<g>
		<path class="st4" d="M264.6,496.7v58H102.3v-58H264.6 M269.6,491.7H97.3v68h172.3V491.7L269.6,491.7z"/>
	</g>
</g>
<rect x="93.3" y="426.9" class="st1" width="131" height="16.2"/>
<text transform="matrix(1 0 0 1 93.2949 442.6953)" class="st2 st5">div = ”container”</text>
<rect x="101.4" y="467.8" class="st1" width="131" height="16.2"/>
<text transform="matrix(1 0 0 1 101.3823 483.6074)" class="st2 st5">div = ”spritesheet”</text>
<g>
	<path class="st6" d="M227.2,519.3v18.1H124.9v-18.1H227.2 M237.2,509.3H114.9v38.1h122.3V509.3L237.2,509.3z"/>
</g>
<rect x="126.6" y="517.8" class="st1" width="65.4" height="16.2"/>
<text transform="matrix(1 0 0 1 126.5957 533.5586)" class="st2 st5">keyframes</text>
<g>
	<g>
		<path class="st4" d="M334.8,631v108H95V631H334.8 M339.8,626H90v118h249.8V626L339.8,626z"/>
	</g>
</g>
<g>
	<path class="st7" d="M270.6,667.7v58H108.3v-58H270.6 M275.6,662.7H103.3v68h172.3V662.7L275.6,662.7z"/>
</g>
<rect x="99.3" y="597.9" class="st1" width="131" height="16.2"/>
<text transform="matrix(1 0 0 1 99.2949 613.6953)" class="st2 st5">div = ”container”</text>
<rect x="107.4" y="638.8" class="st1" width="131" height="16.2"/>
<text transform="matrix(1 0 0 1 107.3823 654.6074)" class="st2 st5">div = ”spritesheet”</text>
<g>
	<path class="st6" d="M233.2,690.3v18.1H130.9v-18.1H233.2 M243.2,680.3H120.9v38.1h122.3V680.3L243.2,680.3z"/>
</g>
<rect x="132.6" y="688.8" class="st1" width="65.4" height="16.2"/>
<text transform="matrix(1 0 0 1 132.5957 704.5586)" class="st2 st5">keyframes</text>
<g>
	<g>
		<path class="st4" d="M343.8,802v108H104V802H343.8 M348.8,797H99v118h249.8V797L348.8,797z"/>
	</g>
</g>
<g>
	<g>
		<path class="st4" d="M279.6,838.7v58H117.3v-58H279.6 M284.6,833.7H112.3v68h172.3V833.7L284.6,833.7z"/>
	</g>
</g>
<rect x="108.3" y="768.9" class="st1" width="131" height="16.2"/>
<text transform="matrix(1 0 0 1 108.2949 784.6953)" class="st2 st5">div = ”container”</text>
<rect x="116.4" y="809.8" class="st1" width="131" height="16.2"/>
<text transform="matrix(1 0 0 1 116.3823 825.6074)" class="st2 st5">div = ”spritesheet”</text>
<g>
	<path class="st6" d="M242.2,861.3v18.1H139.9v-18.1H242.2 M252.2,851.3H129.9v38.1h122.3V851.3L252.2,851.3z"/>
</g>
<rect x="141.6" y="859.8" class="st1" width="65.4" height="16.2"/>
<text transform="matrix(1 0 0 1 141.5957 875.5586)" class="st2 st5">keyframes</text>
</svg>
