<svg id="tremmer" xmlns="http://www.w3.org/2000/svg" xmlns:xlink="http://www.w3.org/1999/xlink" viewBox="0 0 805 639"><defs><style>.cls-1,.cls-10,.cls-11,.cls-12,.cls-2,.cls-3,.cls-4,.cls-5,.cls-6,.cls-7,.cls-8,.cls-9{stroke:#000;stroke-miterlimit:10;}.cls-1{fill:url(#linear-gradient);}.cls-2{fill:url(#linear-gradient-2);}.cls-3{fill:url(#linear-gradient-3);}.cls-4{fill:url(#linear-gradient-4);}.cls-5{fill:url(#linear-gradient-5);}.cls-6{fill:url(#linear-gradient-6);}.cls-7{fill:url(#linear-gradient-7);}.cls-8{fill:url(#linear-gradient-8);}.cls-9{fill:url(#linear-gradient-9);}.cls-10{fill:url(#linear-gradient-10);}.cls-11{fill:url(#linear-gradient-11);}.cls-12{fill:url(#linear-gradient-12);}</style><linearGradient id="linear-gradient" x1="28.21" y1="318" x2="199.3" y2="318" gradientUnits="userSpaceOnUse"><stop offset="0.22" stop-color="#fff"/><stop offset="0.24" stop-color="#dedede"/><stop offset="0.26" stop-color="#b1b1b1"/><stop offset="0.29" stop-color="#898988"/><stop offset="0.32" stop-color="#686867"/><stop offset="0.35" stop-color="#4d4d4b"/><stop offset="0.39" stop-color="#373736"/><stop offset="0.43" stop-color="#282827"/><stop offset="0.47" stop-color="#20201e"/><stop offset="0.54" stop-color="#1d1d1b"/><stop offset="0.54" stop-color="#141413"/><stop offset="0.55" stop-color="#090908"/><stop offset="0.56" stop-color="#020202"/><stop offset="0.6"/></linearGradient><linearGradient id="linear-gradient-2" x1="114.21" y1="318" x2="285.3" y2="318" xlink:href="#linear-gradient"/><linearGradient id="linear-gradient-3" x1="198.21" y1="318" x2="369.3" y2="318" xlink:href="#linear-gradient"/><linearGradient id="linear-gradient-4" x1="292.21" y1="318" x2="463.3" y2="318" xlink:href="#linear-gradient"/><linearGradient id="linear-gradient-5" x1="414.21" y1="318" x2="585.3" y2="318" xlink:href="#linear-gradient"/><linearGradient id="linear-gradient-6" x1="507.21" y1="318" x2="678.3" y2="318" xlink:href="#linear-gradient"/><linearGradient id="linear-gradient-7" x1="601.21" y1="318" x2="772.3" y2="318" xlink:href="#linear-gradient"/><linearGradient id="linear-gradient-8" x1="676.21" y1="322" x2="847.3" y2="322" xlink:href="#linear-gradient"/><linearGradient id="linear-gradient-9" x1="745.21" y1="322" x2="916.3" y2="322" xlink:href="#linear-gradient"/><linearGradient id="linear-gradient-10" x1="-38.79" y1="317" x2="132.3" y2="317" xlink:href="#linear-gradient"/><linearGradient id="linear-gradient-11" x1="-150.79" y1="856" x2="20.3" y2="856" gradientTransform="translate(908 -42)" xlink:href="#linear-gradient"/><linearGradient id="linear-gradient-12" x1="468.21" y1="855" x2="639.3" y2="855" gradientTransform="translate(288 -660)" xlink:href="#linear-gradient"/></defs><title>prison</title><rect class="cls-1" x="67.5" y="2.5" width="19" height="631"/><rect class="cls-2" x="153.5" y="2.5" width="19" height="631"/><rect class="cls-3" x="237.5" y="2.5" width="19" height="631"/><rect class="cls-4" x="331.5" y="2.5" width="19" height="631"/><rect class="cls-5" x="453.5" y="2.5" width="19" height="631"/><rect class="cls-6" x="546.5" y="2.5" width="19" height="631"/><rect class="cls-7" x="640.5" y="2.5" width="19" height="631"/><rect class="cls-8" x="715.5" y="6.5" width="19" height="631"/><rect class="cls-9" x="784.5" y="6.5" width="19" height="631"/><rect class="cls-10" x="0.5" y="1.5" width="19" height="631"/><rect class="cls-11" x="796.5" y="412.5" width="19" height="803" transform="translate(-411 1435) rotate(-90)"/><rect class="cls-12" x="795.5" y="-206.5" width="19" height="803" transform="translate(207 815) rotate(-90)"/></svg>
