<?xml version="1.0" encoding="utf-8"?>
<!-- Generator: Adobe Illustrator 21.1.0, SVG Export Plug-In . SVG Version: 6.00 Build 0)  -->
<svg version="1.1" id="Layer_1" xmlns="http://www.w3.org/2000/svg" xmlns:xlink="http://www.w3.org/1999/xlink" x="0px" y="0px"
	 viewBox="0 0 500 320" style="enable-background:new 0 0 500 320;" xml:space="preserve">
<style type="text/css">
	.st0{fill:none;}
	.st1{fill:#FFFFFF;stroke:#000000;stroke-width:0.25;stroke-miterlimit:10;}
	.st2{fill:#FFFFFF;stroke:#000000;stroke-width:2;stroke-miterlimit:10;}
	.st3{fill:#16456A;stroke:#000000;stroke-width:3;stroke-miterlimit:10;}
	.st4{fill:#7F7F7F;stroke:#000000;stroke-width:3;stroke-miterlimit:10;}
	.st5{fill:none;stroke:#000000;stroke-width:3;stroke-miterlimit:10;}
	.st6{stroke:#000000;stroke-width:2;stroke-miterlimit:10;}
	.st7{fill:#686868;stroke:#000000;stroke-width:3;stroke-miterlimit:10;}
	.st8{fill:#99B88E;stroke:#000000;stroke-width:3;stroke-miterlimit:10;}
	.st9{fill:#795D47;stroke:#000000;stroke-width:2;stroke-miterlimit:10;}
	.st10{fill:#795D47;stroke:#000000;stroke-width:3;stroke-miterlimit:10;}
	.st11{fill:#F4E8CD;stroke:#000000;stroke-width:3;stroke-miterlimit:10;}
	.st12{fill:#F4E8CD;stroke:#000000;stroke-width:2;stroke-miterlimit:10;}
	.st13{fill:none;stroke:#000000;stroke-width:2;stroke-miterlimit:10;}
	.st14{fill:#FFFFFF;}
	.st15{fill:#333333;}
	.st16{fill:#1A1A1A;}
	.st17{fill:#74C0DB;}
	.st18{font-family:'Futura-Bold';}
	.st19{font-size:25px;}
	.st20{font-family:'Futura-CondensedMedium';}
	.st21{font-size:20px;}
	.st22{font-size:10px;}
	.st23{fill:#1F2532;}
	.st24{fill:#FF9207;}
	.st25{fill:#7F7F7F;}
	.st26{fill:#16456A;}
	.st27{fill:#99B88E;}
	.st28{fill:#F9F9F9;}
	.st29{font-size:32.3024px;}
	.st30{letter-spacing:-1.8;}
	.st31{letter-spacing:-0.9;}
	.st32{font-size:27.6638px;}
	.st33{fill:#F2F2F2;stroke:#F2F2F2;stroke-width:2;stroke-miterlimit:10;}
	.st34{fill:#E6E6E6;}
	.st35{fill:#F4F4F4;}
</style>
<symbol  id="Tænker01" viewBox="-150 -250 300 500">
	<rect x="-150" y="-250" class="st0" width="300" height="500"/>
	<g id="sko_copy_7_1_">
		<path d="M26.6,213.9h53.2c0.6,0,1.1-0.5,1.1-1.1c0,0,0,0,0,0V212c0-12.4-10-22.4-22.4-22.4l0,0h-32c-0.6,0-1.1,0.5-1.1,1.1v22
			C25.5,213.4,26,213.9,26.6,213.9C26.6,213.9,26.6,213.9,26.6,213.9z"/>
		<path d="M-60.6,190.4h32c0.6,0,1.2,0.5,1.2,1.1v22c0,0.6-0.5,1.1-1.2,1.1h-53.3c-0.6,0-1.2-0.5-1.2-1.1v-0.7
			C-83,200.5-73,190.4-60.6,190.4L-60.6,190.4z"/>
		<path class="st1" d="M-59.2,205.5l-1,0.2c-0.5,0.1-1.1-0.3-1.2-0.8l-1.6-9.1c-0.1-0.5,0.3-1.1,0.8-1.1l1-0.2
			c0.5-0.1,1.1,0.3,1.2,0.8c0,0,0,0,0,0l1.6,9.1C-58.3,204.9-58.7,205.4-59.2,205.5z"/>
		<path class="st1" d="M-54.6,204.6l-1,0.2c-0.5,0.1-1.1-0.3-1.2-0.8l-1.6-9.1c-0.1-0.5,0.3-1.1,0.8-1.1l1-0.2
			c0.5-0.1,1.1,0.3,1.2,0.8l1.6,9.1C-53.6,204-54,204.5-54.6,204.6z"/>
		<path class="st1" d="M-49.9,203.8l-1,0.2c-0.5,0.1-1.1-0.3-1.2-0.8c0,0,0,0,0,0l-1.5-9.1c-0.1-0.5,0.3-1.1,0.8-1.1l1-0.2
			c0.5-0.1,1.1,0.3,1.2,0.8l1.6,9.1C-49,203.2-49.4,203.7-49.9,203.8z"/>
		<path class="st1" d="M59.1,205.5l1,0.2c0.5,0.1,1.1-0.3,1.1-0.8l1.6-9.1c0.1-0.5-0.3-1.1-0.8-1.1l-1-0.2c-0.5-0.1-1.1,0.3-1.2,0.8
			c0,0,0,0,0,0l-1.6,9.1C58.2,204.9,58.6,205.4,59.1,205.5z"/>
		<path class="st1" d="M54.5,204.6l1,0.2c0.5,0.1,1.1-0.3,1.2-0.8c0,0,0,0,0,0l1.6-9.1c0.1-0.5-0.3-1.1-0.8-1.1l-1-0.2
			c-0.5-0.1-1.1,0.3-1.1,0.8l-1.6,9.1C53.6,204,54,204.5,54.5,204.6z"/>
		<path class="st1" d="M49.9,203.8l1,0.2c0.5,0.1,1.1-0.3,1.1-0.8l1.6-9.1c0.1-0.5-0.3-1.1-0.8-1.1l-1-0.2c-0.5-0.1-1.1,0.3-1.2,0.8
			c0,0,0,0,0,0l-1.6,9.1C48.9,203.1,49.3,203.7,49.9,203.8C49.8,203.8,49.8,203.8,49.9,203.8z"/>
		<rect x="-83" y="208.7" class="st2" width="55.5" height="6.1"/>
		<rect x="25.5" y="207.8" class="st2" width="55.5" height="6.1"/>
	</g>
	<g id="jeans_copy_7_1_">
		<path class="st3" d="M58.9,55.5v131H26.8v-57.6c0-13.7-11.1-24.7-24.8-24.8h-6c-13.7,0-24.8,11.1-24.8,24.8v57.6H-60v-131
			L58.9,55.5z"/>
	</g>
	<g id="hoodie_copy_7_1_">
		<path class="st4" d="M-58.3-44.7c0,0,8.7-35.5,57.3-29.9c0,0,45.1-9.3,56.4,29.9l5.2,4.7V76.8H-60l-3.5-114.9L-58.3-44.7z"/>
		<line class="st5" x1="-60.4" y1="-44.3" x2="-32.2" y2="-44.3"/>
		<line class="st5" x1="58.4" y1="-44.3" x2="29.8" y2="-44.3"/>
		<path class="st5" d="M-33.5-49.9c0,0,5.2,29.5,33,27.8c0,0,30.4-1.7,32.1-26.9"/>
		<path class="st5" d="M-18.4-42.5"/>
		<path class="st6" d="M-17.9-42.5L-17.9-42.5c0.7,0,1.3,0.6,1.3,1.3v37.3c0,0.7-0.6,1.3-1.3,1.3l0,0c-0.7,0-1.3-0.6-1.3-1.3v-37.3
			C-19.2-42-18.6-42.5-17.9-42.5z"/>
		<path class="st6" d="M16.8-42.5L16.8-42.5c0.7,0,1.3,0.6,1.3,1.3v37.3c0,0.7-0.6,1.3-1.3,1.3l0,0c-0.7,0-1.3-0.6-1.3-1.3v-37.3
			C15.5-42,16.1-42.5,16.8-42.5z"/>
		<path class="st7" d="M18,30.4V30c0-2.7-2.1-4.8-4.8-4.8c0,0,0,0,0,0h-27.6c-2.7,0-4.8,2.2-4.8,4.8c0,0,0,0,0,0v0.5
			c0,2.7-2.2,4.8-4.8,4.8h0h-0.8c-2.7,0-4.8,2.2-4.8,4.8c0,0,0,0,0,0v21.5c0,2.7,2.1,4.8,4.8,4.8c0,0,0,0,0,0h47.6
			c2.7,0,4.8-2.2,4.8-4.8c0,0,0,0,0,0V40.1c0-2.7-2.1-4.8-4.8-4.8c0,0,0,0,0,0l0,0C20.2,35.2,18,33.1,18,30.4L18,30.4z"/>
		<path class="st4" d="M84.5,84.5"/>
	</g>
	<g id="kasket_copy_7_1_">
		<path class="st8" d="M-57.8-166.2c0,0,13.9-37.3,59-33.8c0,0,42.5-3.5,56.4,31.2v31.2H-57.8V-166.2z"/>
		<path class="st9" d="M19.4-148.4c-1.3,2.2-7.6,2.2-20,2.2c-11.3,0-17-0.1-18.2-2.2c-3.4-5.5,6-23.9,19.1-23.9S22.8-154,19.4-148.4
			z"/>
		<path d="M-17.5-148.8h35.6c2.6,0,4.8,2.1,4.8,4.8v0c0,2.6-2.1,4.8-4.8,4.8h-35.6c-2.6,0-4.8-2.1-4.8-4.8v0
			C-22.3-146.7-20.1-148.8-17.5-148.8z"/>
	</g>
	<g id="hår_copy_7_1_">
		<path class="st10" d="M53.2-136.7c0,0,9.6,1.7,10.4,11.3c0,0,12.1,9.5,0.9,23.4c0,0,1.7,8.7-8.7,11.3L-57-91.6
			c0,0-6.9,0.9-8.7-9.5c0,0-12.1-10.4,0-22.6c0,0-2.6-10.4,7.8-12.2C-47.5-137.6,53.2-136.7,53.2-136.7z"/>
	</g>
	<g id="ansigt_copy_7_1_">
		<ellipse class="st11" cx="-0.6" cy="-57.7" rx="14.3" ry="10.9"/>
		<ellipse class="st12" cx="-55.7" cy="-115.4" rx="8.2" ry="9.1"/>
		<ellipse class="st12" cx="55.4" cy="-113.7" rx="8.2" ry="9.1"/>
		<path class="st11" d="M-55.7-136.3V-92c0,0,0,11.3,9.6,15.6l20,14.8c3.3,2.3,7.2,3.5,11.3,3.5h32.1c0,0,8.7,0,13.9-6.9l19.9-16.5
			c0,0,5.2-1.7,4.3-15.6V-138H-55.7V-136.3z"/>
		<circle cx="-24.9" cy="-114.1" r="5.2"/>
		<circle cx="22.9" cy="-114.1" r="5.2"/>
		<path d="M15.1-133.2h16.5c2.9,0,5.2,2.3,5.2,5.2l0,0c0,2.9-2.3,5.2-5.2,5.2H15.1c-2.9,0-5.2-2.3-5.2-5.2l0,0
			C9.9-130.9,12.2-133.2,15.1-133.2z"/>
		<path d="M-32.7-133.2h17.3c2.9,0,5.2,2.3,5.2,5.2l0,0c0,2.9-2.3,5.2-5.2,5.2h-17.3c-2.9,0-5.2-2.3-5.2-5.2l0,0
			C-37.9-130.9-35.5-133.2-32.7-133.2z"/>
		<path class="st5" d="M-9.7-73.8c0,0,7.8,11.3,18.2,0"/>
		<path class="st13" d="M-0.1-113.3L-0.1-113.3c5,0,9.1,4.1,9.1,9.1v8.7c0,5-4.1,9.1-9.1,9.1l0,0c-5,0-9.1-4.1-9.1-9.1v-8.7
			C-9.2-109.2-5.2-113.3-0.1-113.3z"/>
	</g>
	<path class="st4" d="M53,42.5c12.6,8,33.1-7.7,38.1-11.6c19.2-14.7,33.7-39.2,27.9-46.3c-0.5-0.6-1.8-1.9-5.7-2.2
		c-20.5-1.5-40.8,31.4-43.4,35.7l-4.2-54.6c-0.1-3.9-5.5-7-11.9-6.8l0,0c-6.4,0.2-11.6,3.6-11.5,7.5l1.9,59.5
		C44.6,28.5,46.1,38.1,53,42.5z"/>

		<ellipse transform="matrix(0.9953 -9.688804e-02 9.688804e-02 0.9953 2.6436 10.9066)" class="st11" cx="113.6" cy="-21.8" rx="9.1" ry="16.8"/>
	<g id="Iphone_copy_3_1_">
		<path class="st14" d="M109.2-59.9h15.5c2.6,0,4.7,2.1,4.7,4.7v33.3c0,2.6-2.1,4.7-4.7,4.7h-15.5c-2.6,0-4.7-2.1-4.7-4.7v-33.3
			C104.5-57.8,106.6-59.9,109.2-59.9z"/>
		<path d="M124.7-59.8c2.5,0,4.6,2.1,4.6,4.6v33.3c0,2.5-2.1,4.6-4.6,4.6h-15.5c-2.5,0-4.6-2.1-4.6-4.6v-33.3c0-2.5,2.1-4.6,4.6-4.6
			H124.7 M124.7-60h-15.5c-2.7,0-4.8,2.2-4.8,4.8v33.3c0,2.7,2.2,4.8,4.8,4.8h15.5c2.7,0,4.8-2.2,4.9-4.8v-33.3
			C129.6-57.8,127.4-60,124.7-60z"/>
		<rect x="106.4" y="-55.9" class="st15" width="21.8" height="33.4"/>
		<path class="st16" d="M128.1-55.8v33.2h-21.6v-33.2H128.1 M128.3-56.1h-22.1v33.7h22.1V-56.1z"/>
		<ellipse cx="112.9" cy="-58" rx="0.4" ry="0.4"/>
		<path d="M112.9-58.4c-0.2,0-0.4,0.2-0.4,0.4c0,0.2,0.2,0.4,0.4,0.4c0.2,0,0.4-0.2,0.4-0.4C113.3-58.2,113.1-58.4,112.9-58.4
			C112.9-58.4,112.9-58.4,112.9-58.4z"/>
		<path d="M115-58.1h4.6c0.1,0,0.1,0,0.1,0.1v0.1c0,0.1,0,0.1-0.1,0.1H115c-0.1,0-0.1,0-0.1-0.1V-58C114.9-58.1,114.9-58.1,115-58.1
			z"/>
		<path d="M119.6-58.1H115c-0.1,0-0.1,0-0.1,0.1v0.1c0,0.1,0,0.1,0.1,0.1c0,0,0,0,0,0h4.6c0.1,0,0.1,0,0.1-0.1c0,0,0,0,0,0V-58
			C119.8-58.1,119.7-58.1,119.6-58.1L119.6-58.1z"/>
		<ellipse cx="117.3" cy="-59.2" rx="0.2" ry="0.2"/>
		<path d="M117.3-59.5c-0.1,0-0.2,0.1-0.2,0.2s0.1,0.2,0.2,0.2s0.2-0.1,0.2-0.2S117.4-59.5,117.3-59.5z"/>
		<ellipse class="st14" cx="117" cy="-19.9" rx="1.9" ry="1.8"/>
		<path d="M117-21.6c0.9,0.1,1.6,0.9,1.5,1.8c-0.1,0.9-0.9,1.6-1.8,1.5c-0.8-0.1-1.5-0.8-1.5-1.6C115.3-20.9,116.1-21.6,117-21.6
			 M117-21.8c-1,0.1-1.8,1-1.7,2c0.1,1,1,1.8,2,1.7c1-0.1,1.7-0.9,1.7-1.9C119-21,118.1-21.9,117-21.8z"/>
		<path class="st14" d="M129.6-50.7h0.3c0.1,0,0.1,0,0.1,0.1v3c0,0.1,0,0.1-0.1,0.1h-0.3c-0.1,0-0.1,0-0.1-0.1v-3
			C129.5-50.7,129.5-50.7,129.6-50.7z"/>
		<path d="M129.9-50.7h-0.3c-0.1,0-0.1,0-0.1,0.1v0v3c0,0.1,0,0.1,0.1,0.1h0.3c0.1,0,0.1,0,0.1-0.1v0v-3
			C130-50.6,130-50.7,129.9-50.7C129.9-50.7,129.9-50.7,129.9-50.7z"/>
		<path class="st14" d="M104.1-53.6h0.3c0,0,0.1,0,0.1,0.1v1.7c0,0,0,0.1-0.1,0.1h-0.3c0,0-0.1,0-0.1-0.1L104.1-53.6
			C104-53.5,104-53.6,104.1-53.6z"/>
		<path d="M104.4-53.6h-0.3c0,0-0.1,0-0.1,0.1v1.7c0,0,0,0.1,0.1,0.1h0.3c0.1,0,0.1,0,0.1-0.1v-1.7
			C104.5-53.5,104.4-53.6,104.4-53.6z"/>
		<path class="st14" d="M104.1-50.1h0.3c0,0,0.1,0,0.1,0.1v2.1c0,0,0,0.1-0.1,0.1h-0.3c0,0-0.1,0-0.1-0.1L104.1-50.1
			C104-50,104-50.1,104.1-50.1z"/>
		<path d="M104.4-50.1h-0.3c0,0-0.1,0-0.1,0.1c0,0,0,0,0,0v2.1c0,0,0,0.1,0.1,0.1c0,0,0,0,0,0h0.3c0.1,0,0.1,0,0.1-0.1v0V-50
			C104.5-50.1,104.4-50.1,104.4-50.1L104.4-50.1L104.4-50.1z"/>
		<path class="st14" d="M104.1-46.9h0.3c0,0,0.1,0,0.1,0.1v2.2c0,0,0,0.1-0.1,0.1h-0.3c0,0-0.1,0-0.1-0.1L104.1-46.9
			C104-46.9,104-46.9,104.1-46.9z"/>
		<path d="M104.4-46.9h-0.3c0,0-0.1,0-0.1,0.1c0,0,0,0,0,0v2.2c0,0.1,0,0.1,0.1,0.1h0.3c0.1,0,0.1,0,0.1-0.1v-2.2
			C104.5-46.9,104.4-46.9,104.4-46.9L104.4-46.9z"/>
	</g>

		<ellipse transform="matrix(0.9953 -9.688804e-02 9.688804e-02 0.9953 2.9578 9.9921)" class="st12" cx="104.4" cy="-25.5" rx="3.2" ry="7.7"/>
	<ellipse transform="matrix(0.8062 -0.5916 0.5916 0.8062 -42.5503 -8.8539)" class="st11" cx="-34.8" cy="60.5" rx="15.8" ry="9"/>
	<ellipse transform="matrix(0.7988 -0.6015 0.6015 0.7988 -38.4022 -4.9166)" class="st12" cx="-26.6" cy="55" rx="7.3" ry="3.2"/>
	<path class="st4" d="M-95.9,19.8c-1.2-1.6-2.1-3.5-2.7-5.4c-2.1-8,2.9-15.8,5.6-19.3l36-43.4c2.4-2.9,8.1-1.6,12.7,2.7l0,0
		c4.6,4.3,6.4,10.2,4.1,13.1L-71.6,8.9l3.2,6.1c8.5,4.4,34.1,19.2,34,37.4c0,3.9-1.2,5.3-1.7,5.8c-6.3,6.6-30.2-4.9-45.2-22
		L-95.9,19.8z"/>
</symbol>
<rect class="st17" width="500" height="320"/>
<rect x="7" y="19.9" class="st0" width="304" height="54.1"/>
<text transform="matrix(1 0 0 1 6.9712 40.6851)" class="st18 st19">h2/Futura, Bold, 25pt </text>
<rect x="7.9" y="59.1" class="st0" width="244.3" height="45.9"/>
<text transform="matrix(1 0 0 1 7.9209 75.6958)" class="st20 st21">h3/Futura, Condensed Medium, 20pt</text>
<rect x="8.5" y="90.4" class="st0" width="221.5" height="38.4"/>
<text transform="matrix(1 0 0 1 8.5122 98.6885)" class="st20 st22">p /Futura, Medium,  10 pt</text>
<rect x="19" y="242" class="st23" width="49" height="49"/>
<rect x="123" y="242" class="st24" width="49" height="49"/>
<rect x="176" y="242" class="st25" width="49" height="49"/>
<rect x="228" y="242" class="st26" width="49" height="49"/>
<rect x="280" y="242" class="st27" width="49" height="49"/>
<g>
	<path class="st23" d="M458.8,85.8h-129c-6.7,0-12.2-4.2-12.2-9.3V34.7c0-5.1,5.5-9.3,12.2-9.3h129c6.7,0,12.2,4.2,12.2,9.3v41.8
		C471,81.6,465.5,85.8,458.8,85.8z"/>
	<polygon class="st23" points="335.9,95.9 353.9,85.8 340.8,85.8 	"/>
	<text transform="matrix(1.1074 0 0 1 326.8281 66.751)" class="st28 st18 st29">PRI</text>
	<text transform="matrix(1.1074 0 0 1 389.1055 66.751)" class="st28 st18 st29 st30">V</text>
	<text transform="matrix(1.1074 0 0 1 415.2607 66.751)" class="st28 st18 st29 st31">A</text>
	<text transform="matrix(1.1074 0 0 1 442.7715 66.751)" class="st28 st18 st29">T</text>
</g>
<g>
	<path class="st24" d="M457.4,127.3h-98c-5.1,0-9.2-3.2-9.2-7V88.7c0-3.9,4.2-7,9.2-7h98c5.1,0,9.2,3.2,9.2,7v31.6
		C466.6,124.1,462.5,127.3,457.4,127.3z"/>
	<polygon class="st24" points="361.6,136 377,127.3 365.9,127.3 	"/>
	<text transform="matrix(1.1074 0 0 1 360.0762 115.6494)" class="st28 st18 st32">S</text>
	<text transform="matrix(1.1074 0 0 1 379.8672 115.6494)" class="st28 st18 st32">N</text>
	<text transform="matrix(1.1074 0 0 1 407.8418 115.6494)" class="st28 st18 st32">AK</text>
</g>
<use xlink:href="#Tænker01"  width="300" height="500" x="-150" y="-250" transform="matrix(0.3863 0 0 0.3863 404.6318 218.6761)" style="overflow:visible;"/>
<rect x="70" y="242" class="st17" width="49" height="49"/>
<rect x="21" y="269" class="st17" width="2" height="2"/>
<rect x="63.9" y="214.1" class="st0" width="274.1" height="45.9"/>
<text transform="matrix(1 0 0 1 63.9209 230.6958)" class="st20 st21">Simpel animation med gennemslagskraft</text>
<ellipse cx="113.5" cy="159.5" rx="43.5" ry="41.5"/>
<path class="st33" d="M114,128v33V128z"/>
<path class="st33" d="M115.2,162.3l15.8,18.3L115.2,162.3z"/>
<rect x="162" y="155.2" class="st0" width="200" height="35.6"/>
<text transform="matrix(1 0 0 1 161.9712 175.9321)" class="st18 st19">Kort varighed</text>
<rect x="131.5" y="278.6" class="st0" width="38.4" height="12.4"/>
<text transform="matrix(1 0 0 1 131.5161 286.8906)" class="st20 st22">FF9207</text>
<rect x="187.9" y="278.6" class="st0" width="37.3" height="11.9"/>
<text transform="matrix(1 0 0 1 187.9058 286.9375)" class="st20 st22">7F7F7F</text>
<rect x="79.6" y="274.6" class="st0" width="32.8" height="13"/>
<text transform="matrix(1 0 0 1 79.5615 282.9375)" class="st20 st22">74C0DB</text>
<rect x="27" y="275.2" class="st0" width="36.7" height="11.9"/>
<text transform="matrix(1 0 0 1 27.0425 283.5029)" class="st34 st20 st22">1F2532</text>
<rect x="239" y="277.5" class="st0" width="37.8" height="13.6"/>
<text transform="matrix(1 0 0 1 238.9897 285.8086)" class="st35 st20 st22">16456A</text>
<rect x="285.1" y="277.5" class="st0" width="37.8" height="15.2"/>
<text transform="matrix(1 0 0 1 285.1201 285.8086)" class="st20 st22">99B88E</text>
</svg>
