<?xml version="1.0" encoding="utf-8"?>
<!-- Generator: Adobe Illustrator 21.1.0, SVG Export Plug-In . SVG Version: 6.00 Build 0)  -->
<svg version="1.1" id="Layer_1" xmlns="http://www.w3.org/2000/svg" xmlns:xlink="http://www.w3.org/1999/xlink" x="0px" y="0px"
	 viewBox="0 0 544 1083" style="enable-background:new 0 0 544 1083;" xml:space="preserve">
<style type="text/css">
	.st0{fill:#FFFFFF;stroke:#0000FF;stroke-miterlimit:10;}
	.st1{fill:none;}
	.st2{font-family:'MyriadPro-Regular';}
	.st3{font-size:16px;}
	.st4{fill:#2049BC;}
	.st5{fill:#39B54A;}
	.st6{fill:#FFFFFF;}
	.st7{font-size:10.5751px;}
	.st8{font-size:10.7623px;}
	.st9{fill:#3CA545;}
	.st10{fill:#0F36D6;}
	.st11{fill:#662D91;}
	.st12{fill:#40AD4B;}
	.st13{fill:#FF00FF;}
	.st14{fill:#0000FF;}
	.st15{fill:#FFFFFF;stroke:#000000;stroke-miterlimit:10;}
	.st16{fill:#2410E8;}
	.st17{fill:#FF0000;}
	.st18{fill:#56BA5A;}
	.st19{fill:#009245;}
	.st20{fill:#F7931E;}
</style>
<path class="st0" d="M327.5,129.5h-148c-6.6,0-12-5.4-12-12v-42c0-6.6,5.4-12,12-12h148c6.6,0,12,5.4,12,12v42
	C339.5,124.1,334.1,129.5,327.5,129.5z"/>
<path class="st0" d="M312.5,311.5h-144c-6.6,0-12-5.4-12-12v-49c0-6.6,5.4-12,12-12h144c6.6,0,12,5.4,12,12v49
	C324.5,306.1,319.1,311.5,312.5,311.5z"/>
<path class="st0" d="M314,473.9H182.5c-6.6,0-12-5.4-12-12V407c0-6.6,5.4-12,12-12H314c6.6,0,12,5.4,12,12v54.9
	C326,468.5,320.6,473.9,314,473.9z"/>
<rect x="123.2" y="19.7" class="st1" width="88.8" height="17.3"/>
<text transform="matrix(1 0 0 1 123.1572 31.0601)" class="st2 st3">sidenloaded</text>
<rect x="9" y="182" class="st1" width="209" height="17"/>
<text transform="matrix(1 0 0 1 9 193.3599)" class="st2 st3">animation jonasThink færdig</text>
<rect x="183.2" y="135.7" class="st1" width="169.8" height="17.3"/>
<text transform="matrix(1 0 0 1 183.1572 147.0601)"><tspan x="0" y="0" class="st4 st2 st3">function</tspan><tspan x="56.2" y="0" class="st2 st3"> jonasThink</tspan></text>
<rect x="191.2" y="223.7" class="st1" width="103.8" height="17.3"/>
<text transform="matrix(1 0 0 1 191.1572 235.0601)"><tspan x="0" y="0" class="st4 st2 st3">function</tspan><tspan x="56.2" y="0" class="st2 st3"> nude</tspan></text>
<g>
	<path class="st5" d="M308.2,460.9h-41.4c-6.6,0-12-5.4-12-12v-31.2c0-6.6,5.4-12,12-12h41.4c6.6,0,12,5.4,12,12v31.2
		C320.2,455.5,314.8,460.9,308.2,460.9z"/>
	<rect x="258.2" y="411.3" class="st1" width="58.7" height="45.6"/>
	<text transform="matrix(1 0 0 1 264.5137 418.8203)"><tspan x="0" y="0" class="st6 st2 st7">reaction 1: </tspan><tspan x="16.2" y="12.7" class="st6 st2 st7">del</tspan><tspan x="6.8" y="25.4" class="st6 st2 st7">hendes</tspan><tspan x="8" y="38.1" class="st6 st2 st7">billede</tspan></text>
</g>
<g>
	<path class="st5" d="M237.4,463.1h-42.6c-6.6,0-12-5.4-12-12v-32.2c0-6.6,5.4-12,12-12h42.6c6.6,0,12,5.4,12,12v32.2
		C249.4,457.7,244,463.1,237.4,463.1z"/>
	<rect x="192.3" y="409.3" class="st1" width="59.8" height="46.4"/>
	<text transform="matrix(1 0 0 1 192.3359 416.9219)"><tspan x="0" y="0" class="st6 st2 st8">reaction 2: </tspan><tspan x="22.9" y="12.9" class="st6 st2 st8">del</tspan><tspan x="19.7" y="25.8" class="st6 st2 st8"> ikke</tspan><tspan x="12.8" y="38.7" class="st6 st2 st8">billedet</tspan></text>
</g>
<rect x="340" y="283" class="st1" width="184" height="19"/>
<text transform="matrix(1 0 0 1 340 294.3599)" class="st2 st3">animation nude færdig</text>
<text transform="matrix(1 0 0 1 182.9819 85.9644)" class="st9 st2 st3">start anim: jonasThink</text>
<rect x="178.7" y="95.1" class="st1" width="136.3" height="31.9"/>
<text transform="matrix(1 0 0 1 178.6812 106.4653)" class="st10 st2 st3">start lyd: messenger</text>
<rect x="170.7" y="289.1" class="st1" width="122.1" height="22.8"/>
<text transform="matrix(1 0 0 1 170.6812 300.4653)" class="st11 st2 st3">start lyd: tik tok</text>
<text transform="matrix(1 0 0 1 170.9819 258.5723)" class="st12 st2 st3">start anim: nude</text>
<rect x="170.7" y="267.1" class="st1" width="136.3" height="15.9"/>
<text transform="matrix(1 0 0 1 170.6816 278.4653)" class="st13 st2 st3">stop lyd: messenger</text>
<path class="st0" d="M63.5,556.5h111c6.6,0,12,5.4,12,12v55c0,6.6-5.4,12-12,12h-111c-6.6,0-12-5.4-12-12v-55
	C51.5,561.9,56.9,556.5,63.5,556.5z"/>
<rect x="59.9" y="487.7" class="st1" width="90.7" height="60.6"/>
<text transform="matrix(1.107 0 0 1 59.8652 499.0215)" class="st14 st2 st3">reaction 2</text>
<rect x="68.7" y="581.1" class="st1" width="89.3" height="19.9"/>
<text transform="matrix(1 0 0 1 68.6558 592.498)" class="st5 st2 st3">anim: jubel</text>
<rect x="65.2" y="532.7" class="st1" width="169.8" height="17.3"/>
<text transform="matrix(1 0 0 1 65.1572 544.0601)"><tspan x="0" y="0" class="st4 st2 st3">function</tspan><tspan x="56.2" y="0" class="st2 st3"> jubel</tspan></text>
<rect x="68" y="563" class="st1" width="116" height="16.5"/>
<text transform="matrix(1 0 0 1 68 574.3301)" class="st13 st2 st3">stop lyd: tik tok</text>
<rect x="64.7" y="608.1" class="st1" width="122.1" height="22.8"/>
<text transform="matrix(1 0 0 1 64.6812 619.4653)" class="st11 st2 st3">start lyd: jubel</text>
<path class="st15" d="M511.5,642.5h-166c-6.6,0-12-5.4-12-12v-91c0-6.6,5.4-12,12-12h166c6.6,0,12,5.4,12,12v91
	C523.5,637.1,518.1,642.5,511.5,642.5z"/>
<path class="st15" d="M512.5,863.5h-166c-6.6,0-12-5.4-12-12v-123c0-6.6,5.4-12,12-12h166c6.6,0,12,5.4,12,12v123
	C524.5,858.1,519.1,863.5,512.5,863.5z"/>
<rect x="370.2" y="509.7" class="st1" width="112.8" height="17.3"/>
<text transform="matrix(1 0 0 1 370.1572 521.0601)"><tspan x="0" y="0" class="st4 st2 st3">function</tspan><tspan x="56.2" y="0" class="st2 st3"> share</tspan></text>
<rect x="371.2" y="701.7" class="st1" width="169.8" height="17.3"/>
<text transform="matrix(1 0 0 1 371.1572 713.0601)"><tspan x="0" y="0" class="st4 st2 st3">function</tspan><tspan x="56.2" y="0" class="st2 st3"> prison</tspan></text>
<rect x="423" y="885.1" class="st1" width="114" height="34.7"/>
<text transform="matrix(1 0 0 1 423 896.4199)"><tspan x="0" y="0" class="st16 st2 st3">function</tspan><tspan x="56.2" y="0" class="st2 st3"> prison</tspan><tspan x="0" y="19.2" class="st2 st3"> færdig</tspan></text>
<rect x="239" y="662.1" class="st1" width="159" height="16.9"/>
<text transform="matrix(1 0 0 1 239 673.4199)"><tspan x="0" y="0" class="st16 st2 st3">function</tspan><tspan x="56.2" y="0" class="st2 st3"> share færdig</tspan></text>
<path class="st0" d="M354.9,1073.5H182.1c-7.2,0-13.1-6.1-13.1-13.5V944.1c0-7.4,5.9-13.5,13.1-10.1h172.8
	c7.2-3.4,13.1,2.7,13.1,10.1V1060C368,1067.4,362.1,1073.5,354.9,1073.5z"/>
<polygon class="st1" points="459,493 375.1,493 366.2,473 450.1,473 "/>
<text transform="matrix(1 0 0 1 371.2085 484.3599)" class="st4 st2 st3">reaction 1</text>
<text transform="matrix(1 0 0 1 183.5928 969.1641)" class="st17 st2 st3">stop anim: prison1</text>
<text transform="matrix(1 0 0 1 181.5928 986.1641)" class="st17 st2 st3">stop anim: prison2</text>
<text transform="matrix(1 0 0 1 180.5928 1002.1641)" class="st13 st2 st3">stop lyd: prison</text>
<rect x="343" y="562" class="st1" width="116" height="16.5"/>
<text transform="matrix(1 0 0 1 343 573.3301)" class="st13 st2 st3">stop lyd: tik tok</text>
<rect x="343" y="575" class="st1" width="116" height="16.5"/>
<text transform="matrix(1 0 0 1 343 586.3301)" class="st11 st2 st3">start lyd: buh</text>
<rect x="341" y="596" class="st1" width="125" height="16.5"/>
<text transform="matrix(1 0 0 1 341 607.3301)" class="st18 st2 st3">start anim: girlcry</text>
<rect x="340" y="611" class="st1" width="158" height="16.5"/>
<text transform="matrix(1 0 0 1 340 622.3301)" class="st18 st2 st3">start anim: mobilviral</text>
<rect x="343" y="536" class="st1" width="165" height="16.5"/>
<text transform="matrix(1 0 0 1 343 547.3301)" class="st17 st2 st3">stop anim: jonasThink</text>
<rect x="343" y="550" class="st1" width="165" height="16.5"/>
<text transform="matrix(1 0 0 1 343 561.3301)" class="st17 st2 st3">stop anim: nude</text>
<rect x="344" y="729" class="st1" width="116" height="16.5"/>
<text transform="matrix(1 0 0 1 344 740.3301)" class="st13 st2 st3">stop lyd: buh</text>
<rect x="343" y="750" class="st1" width="125" height="16.5"/>
<text transform="matrix(1 0 0 1 343 761.3301)" class="st17 st2 st3">stop anim: girlcry</text>
<rect x="344" y="767" class="st1" width="158" height="16.5"/>
<text transform="matrix(1 0 0 1 344 778.3301)" class="st17 st2 st3">stop anim: mobilviral</text>
<rect x="346" y="798" class="st1" width="158" height="16.5"/>
<text transform="matrix(1 0 0 1 346 809.3301)" class="st5 st2 st3">start anim: prison</text>
<rect x="344" y="819" class="st1" width="158" height="16.5"/>
<text transform="matrix(1 0 0 1 344 830.3301)" class="st5 st2 st3">start anim: jonassad</text>
<rect x="180.4" y="1024" class="st1" width="124.6" height="21"/>
<text transform="matrix(1 0 0 1 180.4155 1035.3594)" class="st19 st2 st3">start anim: privat</text>
<rect x="177.4" y="1051.9" class="st1" width="114.6" height="18.5"/>
<text transform="matrix(1 0 0 1 177.4155 1063.2617)" class="st19 st2 st3">start anim: snak</text>
<rect x="177.4" y="1037.9" class="st1" width="137.6" height="18.5"/>
<text transform="matrix(1 0 0 1 177.4155 1049.2617)" class="st19 st2 st3">start anim: anonym</text>
<rect x="198.2" y="910.7" class="st1" width="169.8" height="17.3"/>
<text transform="matrix(1 0 0 1 198.1572 922.0601)"><tspan x="0" y="0" class="st4 st2 st3">function</tspan><tspan x="56.2" y="0" class="st2 st3"> privatSnak</tspan></text>
<rect x="183.7" y="940" class="st1" width="117.3" height="20.7"/>
<text transform="matrix(1 0 0 1 183.6694 951.3203)" class="st17 st2 st3">stop anim: jubel</text>
<rect x="150" y="374.7" class="st1" width="210" height="17.3"/>
<text transform="matrix(1 0 0 1 150 386.0601)"><tspan x="0" y="0" class="st4 st2 st3">function</tspan><tspan x="56.2" y="0" class="st2 st3"> valgMedMuligheder</tspan></text>
<polygon class="st20" points="225.3,13.1 264.3,13.1 264.3,41 281,41 242.8,72 207,41 225.3,41 "/>
<polygon class="st20" points="223.3,161.1 262.3,161.1 262.3,189 279,189 240.8,220 205,189 223.3,189 "/>
<polygon class="st20" points="222.3,309.1 261.3,309.1 261.3,337 278,337 239.8,368 204,337 222.3,337 "/>
<polygon class="st20" points="163.4,461.1 192.7,486.8 174.3,507.8 186.9,518.8 137.7,516.9 131.2,470 145,482 "/>
<polygon class="st20" points="309.3,477.4 340.4,453.8 357.2,476.1 370.6,466 358.8,513.8 311.5,510.6 326.1,499.6 "/>
<polygon class="st20" points="407.3,635.1 446.3,635.1 446.3,663 463,663 424.8,694 389,663 407.3,663 "/>
<polygon class="st20" points="95,653 157,653 162,879 204,879 131.2,935.5 69,877 101,878 "/>
<polygon class="st20" points="384.2,868.7 418.1,887.9 404.4,912.2 419,920.4 370.5,928.6 354.6,884 370.5,893 "/>
<rect x="101" y="663.7" class="st1" width="97" height="55.3"/>
<text transform="matrix(1 0 0 1 101 675.0742)"><tspan x="0" y="0" class="st16 st2 st3">function</tspan><tspan x="56.2" y="0" class="st2 st3"> </tspan><tspan x="0" y="19.2" class="st2 st3">jubel </tspan><tspan x="0" y="38.4" class="st2 st3">færdig</tspan></text>
<text transform="matrix(1 0 0 1 181.5928 1016.1641)" class="st13 st2 st3">stop lyd: jubel</text>
</svg>
